%TF.GenerationSoftware,KiCad,Pcbnew,(5.1.6)-1*%
%TF.CreationDate,2022-03-13T12:34:37-03:00*%
%TF.ProjectId,nRF24L01_Arduino_v2,6e524632-344c-4303-915f-41726475696e,rev?*%
%TF.SameCoordinates,Original*%
%TF.FileFunction,Soldermask,Top*%
%TF.FilePolarity,Negative*%
%FSLAX46Y46*%
G04 Gerber Fmt 4.6, Leading zero omitted, Abs format (unit mm)*
G04 Created by KiCad (PCBNEW (5.1.6)-1) date 2022-03-13 12:34:37*
%MOMM*%
%LPD*%
G01*
G04 APERTURE LIST*
%ADD10O,1.150000X1.600000*%
%ADD11R,1.150000X1.600000*%
%ADD12O,1.600000X1.150000*%
%ADD13R,1.600000X1.150000*%
%ADD14R,1.800000X1.800000*%
%ADD15O,1.800000X1.800000*%
%ADD16C,0.100000*%
%ADD17R,1.100000X1.600000*%
%ADD18C,1.751000*%
%ADD19R,1.700000X1.700000*%
%ADD20O,1.700000X1.700000*%
%ADD21C,1.600000*%
%ADD22R,1.624000X1.624000*%
%ADD23C,1.624000*%
%ADD24C,3.100000*%
%ADD25C,1.700000*%
%ADD26R,3.900000X2.100000*%
%ADD27R,1.600000X2.100000*%
%ADD28C,1.900000*%
%ADD29O,1.624000X1.624000*%
%ADD30C,1.522400*%
G04 APERTURE END LIST*
D10*
%TO.C,Q1*%
X132715000Y-109220000D03*
X133985000Y-109220000D03*
D11*
X131445000Y-109220000D03*
%TD*%
D12*
%TO.C,CI3*%
X137160000Y-102870000D03*
X137160000Y-101600000D03*
D13*
X137160000Y-104140000D03*
%TD*%
D14*
%TO.C,P3*%
X137477500Y-107950000D03*
D15*
X137477500Y-110490000D03*
X137477500Y-113030000D03*
X137477500Y-115570000D03*
X137477500Y-118110000D03*
X137477500Y-120650000D03*
X137477500Y-123190000D03*
X137477500Y-125730000D03*
X137477500Y-128270000D03*
X137477500Y-130810000D03*
%TD*%
D16*
%TO.C,JP1*%
G36*
X109960245Y-101446539D02*
G01*
X109950866Y-101443694D01*
X109942221Y-101439073D01*
X109934645Y-101432855D01*
X109928427Y-101425279D01*
X109923806Y-101416634D01*
X109920961Y-101407255D01*
X109920000Y-101397500D01*
X109920000Y-99897500D01*
X109920961Y-99887745D01*
X109923806Y-99878366D01*
X109928427Y-99869721D01*
X109934645Y-99862145D01*
X109942221Y-99855927D01*
X109950866Y-99851306D01*
X109960245Y-99848461D01*
X109970000Y-99847500D01*
X110520000Y-99847500D01*
X110526111Y-99848102D01*
X110544534Y-99848102D01*
X110549435Y-99848343D01*
X110598266Y-99853153D01*
X110603119Y-99853873D01*
X110651244Y-99863445D01*
X110656005Y-99864637D01*
X110702960Y-99878881D01*
X110707579Y-99880534D01*
X110752912Y-99899311D01*
X110757349Y-99901409D01*
X110800622Y-99924540D01*
X110804829Y-99927062D01*
X110845628Y-99954322D01*
X110849570Y-99957246D01*
X110887499Y-99988374D01*
X110891134Y-99991669D01*
X110925831Y-100026366D01*
X110929126Y-100030001D01*
X110960254Y-100067930D01*
X110963178Y-100071872D01*
X110990438Y-100112671D01*
X110992960Y-100116878D01*
X111016091Y-100160151D01*
X111018189Y-100164588D01*
X111036966Y-100209921D01*
X111038619Y-100214540D01*
X111052863Y-100261495D01*
X111054055Y-100266256D01*
X111063627Y-100314381D01*
X111064347Y-100319234D01*
X111069157Y-100368065D01*
X111069398Y-100372966D01*
X111069398Y-100391389D01*
X111070000Y-100397500D01*
X111070000Y-100897500D01*
X111069398Y-100903611D01*
X111069398Y-100922034D01*
X111069157Y-100926935D01*
X111064347Y-100975766D01*
X111063627Y-100980619D01*
X111054055Y-101028744D01*
X111052863Y-101033505D01*
X111038619Y-101080460D01*
X111036966Y-101085079D01*
X111018189Y-101130412D01*
X111016091Y-101134849D01*
X110992960Y-101178122D01*
X110990438Y-101182329D01*
X110963178Y-101223128D01*
X110960254Y-101227070D01*
X110929126Y-101264999D01*
X110925831Y-101268634D01*
X110891134Y-101303331D01*
X110887499Y-101306626D01*
X110849570Y-101337754D01*
X110845628Y-101340678D01*
X110804829Y-101367938D01*
X110800622Y-101370460D01*
X110757349Y-101393591D01*
X110752912Y-101395689D01*
X110707579Y-101414466D01*
X110702960Y-101416119D01*
X110656005Y-101430363D01*
X110651244Y-101431555D01*
X110603119Y-101441127D01*
X110598266Y-101441847D01*
X110549435Y-101446657D01*
X110544534Y-101446898D01*
X110526111Y-101446898D01*
X110520000Y-101447500D01*
X109970000Y-101447500D01*
X109960245Y-101446539D01*
G37*
G36*
X107913889Y-101446898D02*
G01*
X107895466Y-101446898D01*
X107890565Y-101446657D01*
X107841734Y-101441847D01*
X107836881Y-101441127D01*
X107788756Y-101431555D01*
X107783995Y-101430363D01*
X107737040Y-101416119D01*
X107732421Y-101414466D01*
X107687088Y-101395689D01*
X107682651Y-101393591D01*
X107639378Y-101370460D01*
X107635171Y-101367938D01*
X107594372Y-101340678D01*
X107590430Y-101337754D01*
X107552501Y-101306626D01*
X107548866Y-101303331D01*
X107514169Y-101268634D01*
X107510874Y-101264999D01*
X107479746Y-101227070D01*
X107476822Y-101223128D01*
X107449562Y-101182329D01*
X107447040Y-101178122D01*
X107423909Y-101134849D01*
X107421811Y-101130412D01*
X107403034Y-101085079D01*
X107401381Y-101080460D01*
X107387137Y-101033505D01*
X107385945Y-101028744D01*
X107376373Y-100980619D01*
X107375653Y-100975766D01*
X107370843Y-100926935D01*
X107370602Y-100922034D01*
X107370602Y-100903611D01*
X107370000Y-100897500D01*
X107370000Y-100397500D01*
X107370602Y-100391389D01*
X107370602Y-100372966D01*
X107370843Y-100368065D01*
X107375653Y-100319234D01*
X107376373Y-100314381D01*
X107385945Y-100266256D01*
X107387137Y-100261495D01*
X107401381Y-100214540D01*
X107403034Y-100209921D01*
X107421811Y-100164588D01*
X107423909Y-100160151D01*
X107447040Y-100116878D01*
X107449562Y-100112671D01*
X107476822Y-100071872D01*
X107479746Y-100067930D01*
X107510874Y-100030001D01*
X107514169Y-100026366D01*
X107548866Y-99991669D01*
X107552501Y-99988374D01*
X107590430Y-99957246D01*
X107594372Y-99954322D01*
X107635171Y-99927062D01*
X107639378Y-99924540D01*
X107682651Y-99901409D01*
X107687088Y-99899311D01*
X107732421Y-99880534D01*
X107737040Y-99878881D01*
X107783995Y-99864637D01*
X107788756Y-99863445D01*
X107836881Y-99853873D01*
X107841734Y-99853153D01*
X107890565Y-99848343D01*
X107895466Y-99848102D01*
X107913889Y-99848102D01*
X107920000Y-99847500D01*
X108470000Y-99847500D01*
X108479755Y-99848461D01*
X108489134Y-99851306D01*
X108497779Y-99855927D01*
X108505355Y-99862145D01*
X108511573Y-99869721D01*
X108516194Y-99878366D01*
X108519039Y-99887745D01*
X108520000Y-99897500D01*
X108520000Y-101397500D01*
X108519039Y-101407255D01*
X108516194Y-101416634D01*
X108511573Y-101425279D01*
X108505355Y-101432855D01*
X108497779Y-101439073D01*
X108489134Y-101443694D01*
X108479755Y-101446539D01*
X108470000Y-101447500D01*
X107920000Y-101447500D01*
X107913889Y-101446898D01*
G37*
D17*
X109220000Y-100647500D03*
%TD*%
D18*
%TO.C,R5*%
X116205000Y-100647500D03*
X121285000Y-100647500D03*
%TD*%
D19*
%TO.C,CI1*%
X111760000Y-103187500D03*
D20*
X119380000Y-136207500D03*
X111760000Y-105727500D03*
X119380000Y-133667500D03*
X111760000Y-108267500D03*
X119380000Y-131127500D03*
X111760000Y-110807500D03*
X119380000Y-128587500D03*
X111760000Y-113347500D03*
X119380000Y-126047500D03*
X111760000Y-115887500D03*
X119380000Y-123507500D03*
X111760000Y-118427500D03*
X119380000Y-120967500D03*
X111760000Y-120967500D03*
X119380000Y-118427500D03*
X111760000Y-123507500D03*
X119380000Y-115887500D03*
X111760000Y-126047500D03*
X119380000Y-113347500D03*
X111760000Y-128587500D03*
X119380000Y-110807500D03*
X111760000Y-131127500D03*
X119380000Y-108267500D03*
X111760000Y-133667500D03*
X119380000Y-105727500D03*
X111760000Y-136207500D03*
X119380000Y-103187500D03*
%TD*%
D21*
%TO.C,C2*%
X129222500Y-120967500D03*
X129222500Y-118427500D03*
%TD*%
D22*
%TO.C,D1*%
X133667500Y-100647500D03*
D23*
X123507500Y-100647500D03*
%TD*%
D21*
%TO.C,C7*%
X123507500Y-115887500D03*
X123507500Y-118427500D03*
%TD*%
D24*
%TO.C,J4*%
X137160000Y-141922500D03*
%TD*%
%TO.C,J5*%
X107315000Y-97472500D03*
%TD*%
%TO.C,J6*%
X137160000Y-97472500D03*
%TD*%
%TO.C,J3*%
X107315000Y-141922500D03*
%TD*%
D21*
%TO.C,C5*%
X123507500Y-123507500D03*
X123507500Y-120967500D03*
%TD*%
D25*
%TO.C,C6*%
X107315000Y-134342500D03*
D19*
X107315000Y-136842500D03*
%TD*%
D21*
%TO.C,C8*%
X133667500Y-103187500D03*
X131127500Y-103187500D03*
%TD*%
D26*
%TO.C,CI2*%
X130175000Y-123850000D03*
D27*
X130175000Y-130150000D03*
X132475000Y-130150000D03*
X127875000Y-130150000D03*
%TD*%
D28*
%TO.C,LD1*%
X108585000Y-103822500D03*
X106045000Y-103822500D03*
%TD*%
D15*
%TO.C,Mod1*%
X126365000Y-138112500D03*
X126365000Y-135572500D03*
X128905000Y-138112500D03*
X128905000Y-135572500D03*
X131445000Y-138112500D03*
X131445000Y-135572500D03*
X133985000Y-138112500D03*
X133985000Y-135572500D03*
%TD*%
D29*
%TO.C,P1*%
X121602500Y-142240000D03*
X124142500Y-141605000D03*
X126682500Y-142240000D03*
X129222500Y-141605000D03*
X131762500Y-142240000D03*
X134302500Y-141605000D03*
%TD*%
D15*
%TO.C,P2*%
X106997500Y-130810000D03*
X106997500Y-128270000D03*
X106997500Y-125730000D03*
X106997500Y-123190000D03*
X106997500Y-120650000D03*
X106997500Y-118110000D03*
X106997500Y-115570000D03*
X106997500Y-113030000D03*
X106997500Y-110490000D03*
D14*
X106997500Y-107950000D03*
%TD*%
%TO.C,P4*%
X137795000Y-134937500D03*
D15*
X137795000Y-137477500D03*
%TD*%
D18*
%TO.C,R4*%
X128587500Y-110807500D03*
X123507500Y-110807500D03*
%TD*%
%TO.C,R6*%
X123507500Y-103187500D03*
X128587500Y-103187500D03*
%TD*%
%TO.C,R7*%
X123507500Y-105727500D03*
X128587500Y-105727500D03*
%TD*%
%TO.C,R8*%
X128587500Y-113347500D03*
X123507500Y-113347500D03*
%TD*%
D30*
%TO.C,X1*%
X117475000Y-140652500D03*
X112395000Y-140652500D03*
%TD*%
D18*
%TO.C,R9*%
X124460000Y-127317500D03*
X124460000Y-132397500D03*
%TD*%
M02*
