M48
; DRILL file {KiCad (5.1.6)-1} date 03/13/22 12:35:02
; FORMAT={-:-/ absolute / inch / decimal}
; #@! TF.CreationDate,2022-03-13T12:35:02-03:00
; #@! TF.GenerationSoftware,Kicad,Pcbnew,(5.1.6)-1
; #@! TF.FileFunction,Plated,1,2,PTH
FMAT,2
INCH
T1C0.0240
T2C0.0295
T3C0.0315
T4C0.0320
T5C0.0360
T6C0.0390
T7C0.0394
T8C0.0400
T9C0.0480
T10C0.0866
%
G90
G05
T1
X4.4625Y-5.625
X4.475Y-4.525
X4.5375Y-5.625
X4.6125Y-4.4625
X4.6125Y-5.2125
X4.7625Y-4.5125
X4.775Y-4.6
X4.8Y-5.525
X4.95Y-4.3
X4.9625Y-4.6125
X4.9625Y-4.9625
X5.025Y-5.4875
X5.15Y-4.8
X5.2Y-4.1625
X5.2125Y-4.475
X5.225Y-5.5375
X5.2375Y-4.9625
X5.2375Y-5.275
X5.2875Y-4.4625
X5.3Y-4.5625
X5.35Y-5.0
X5.35Y-5.075
T2
X5.175Y-4.3
X5.225Y-4.3
X5.275Y-4.3
X5.4Y-4.0
X5.4Y-4.05
X5.4Y-4.1
T3
X4.225Y-5.2891
X4.225Y-5.3875
T4
X4.575Y-3.9625
X4.775Y-3.9625
X4.9Y-5.0125
X4.9Y-5.2125
X5.0875Y-4.6625
X5.0875Y-4.7625
X4.8625Y-4.5625
X4.8625Y-4.6625
X4.8625Y-4.7625
X4.8625Y-4.8625
X5.1625Y-4.0625
X5.2625Y-4.0625
X4.8625Y-4.3625
X5.0625Y-4.3625
X4.8625Y-4.0625
X5.0625Y-4.0625
X4.8625Y-4.1625
X5.0625Y-4.1625
X4.8625Y-4.4625
X5.0625Y-4.4625
T5
X4.4Y-4.0625
X4.4Y-4.1625
X4.4Y-4.2625
X4.4Y-4.3625
X4.4Y-4.4625
X4.4Y-4.5625
X4.4Y-4.6625
X4.4Y-4.7625
X4.4Y-4.8625
X4.4Y-4.9625
X4.4Y-5.0625
X4.4Y-5.1625
X4.4Y-5.2625
X4.4Y-5.3625
X4.7Y-4.0625
X4.7Y-4.1625
X4.7Y-4.2625
X4.7Y-4.3625
X4.7Y-4.4625
X4.7Y-4.5625
X4.7Y-4.6625
X4.7Y-4.7625
X4.7Y-4.8625
X4.7Y-4.9625
X4.7Y-5.0625
X4.7Y-5.1625
X4.7Y-5.2625
X4.7Y-5.3625
X4.425Y-5.5375
X4.625Y-5.5375
X4.175Y-4.0875
X4.275Y-4.0875
T6
X4.8625Y-3.9625
X5.2625Y-3.9625
T7
X5.4125Y-4.25
T8
X5.4125Y-4.35
X5.4125Y-4.45
X5.4125Y-4.55
X5.4125Y-4.65
X5.4125Y-4.75
X5.4125Y-4.85
X5.4125Y-4.95
X5.4125Y-5.05
X5.4125Y-5.15
X4.7875Y-5.6
X4.8875Y-5.575
X4.9875Y-5.6
X5.0875Y-5.575
X5.1875Y-5.6
X5.2875Y-5.575
X4.2125Y-4.25
X4.2125Y-4.35
X4.2125Y-4.45
X4.2125Y-4.55
X4.2125Y-4.65
X4.2125Y-4.75
X4.2125Y-4.85
X4.2125Y-4.95
X4.2125Y-5.05
X4.2125Y-5.15
X5.425Y-5.3125
X5.425Y-5.4125
T9
X4.975Y-5.3375
X4.975Y-5.4375
X5.075Y-5.3375
X5.075Y-5.4375
X5.175Y-5.3375
X5.175Y-5.4375
X5.275Y-5.3375
X5.275Y-5.4375
T10
X5.4Y-5.5875
X4.225Y-3.8375
X5.4Y-3.8375
X4.225Y-5.5875
T0
M30
