%TF.GenerationSoftware,KiCad,Pcbnew,(5.1.6)-1*%
%TF.CreationDate,2022-03-13T12:34:37-03:00*%
%TF.ProjectId,nRF24L01_Arduino_v2,6e524632-344c-4303-915f-41726475696e,rev?*%
%TF.SameCoordinates,Original*%
%TF.FileFunction,Legend,Top*%
%TF.FilePolarity,Positive*%
%FSLAX46Y46*%
G04 Gerber Fmt 4.6, Leading zero omitted, Abs format (unit mm)*
G04 Created by KiCad (PCBNEW (5.1.6)-1) date 2022-03-13 12:34:37*
%MOMM*%
%LPD*%
G01*
G04 APERTURE LIST*
%ADD10C,0.139700*%
%ADD11C,0.150000*%
%ADD12C,0.184150*%
%ADD13C,0.228600*%
%ADD14C,0.120000*%
%ADD15C,0.304800*%
%ADD16C,0.317500*%
%ADD17C,0.254000*%
%ADD18C,0.149860*%
%ADD19C,0.152400*%
%ADD20C,0.177800*%
%ADD21C,0.127000*%
G04 APERTURE END LIST*
D10*
X105412419Y-138828840D02*
X105412419Y-138270040D01*
X105598685Y-138669183D01*
X105784952Y-138270040D01*
X105784952Y-138828840D01*
X105997828Y-138456307D02*
X106130876Y-138828840D01*
X106263923Y-138456307D02*
X106130876Y-138828840D01*
X106077657Y-138961888D01*
X106051047Y-138988497D01*
X105997828Y-139015107D01*
X106476800Y-138828840D02*
X106476800Y-138270040D01*
X106796114Y-138828840D01*
X106796114Y-138270040D01*
X107062209Y-138828840D02*
X107062209Y-138456307D01*
X107062209Y-138562745D02*
X107088819Y-138509526D01*
X107115428Y-138482916D01*
X107168647Y-138456307D01*
X107221866Y-138456307D01*
X107328304Y-138456307D02*
X107541180Y-138456307D01*
X107408133Y-138828840D02*
X107408133Y-138349869D01*
X107434742Y-138296650D01*
X107487961Y-138270040D01*
X107541180Y-138270040D01*
X107727447Y-138615964D02*
X108153200Y-138615964D01*
X108525733Y-138270040D02*
X108578952Y-138270040D01*
X108632171Y-138296650D01*
X108658780Y-138323259D01*
X108685390Y-138376478D01*
X108712000Y-138482916D01*
X108712000Y-138615964D01*
X108685390Y-138722402D01*
X108658780Y-138775621D01*
X108632171Y-138802230D01*
X108578952Y-138828840D01*
X108525733Y-138828840D01*
X108472514Y-138802230D01*
X108445904Y-138775621D01*
X108419295Y-138722402D01*
X108392685Y-138615964D01*
X108392685Y-138482916D01*
X108419295Y-138376478D01*
X108445904Y-138323259D01*
X108472514Y-138296650D01*
X108525733Y-138270040D01*
X108924876Y-138323259D02*
X108951485Y-138296650D01*
X109004704Y-138270040D01*
X109137752Y-138270040D01*
X109190971Y-138296650D01*
X109217580Y-138323259D01*
X109244190Y-138376478D01*
X109244190Y-138429697D01*
X109217580Y-138509526D01*
X108898266Y-138828840D01*
X109244190Y-138828840D01*
X106423580Y-139806740D02*
X106237314Y-139540645D01*
X106104266Y-139806740D02*
X106104266Y-139247940D01*
X106317142Y-139247940D01*
X106370361Y-139274550D01*
X106396971Y-139301159D01*
X106423580Y-139354378D01*
X106423580Y-139434207D01*
X106396971Y-139487426D01*
X106370361Y-139514035D01*
X106317142Y-139540645D01*
X106104266Y-139540645D01*
X106875942Y-139780130D02*
X106822723Y-139806740D01*
X106716285Y-139806740D01*
X106663066Y-139780130D01*
X106636457Y-139726911D01*
X106636457Y-139514035D01*
X106663066Y-139460816D01*
X106716285Y-139434207D01*
X106822723Y-139434207D01*
X106875942Y-139460816D01*
X106902552Y-139514035D01*
X106902552Y-139567254D01*
X106636457Y-139620473D01*
X107088819Y-139434207D02*
X107221866Y-139806740D01*
X107354914Y-139434207D01*
X107567790Y-139753521D02*
X107594400Y-139780130D01*
X107567790Y-139806740D01*
X107541180Y-139780130D01*
X107567790Y-139753521D01*
X107567790Y-139806740D01*
X108366076Y-139247940D02*
X108419295Y-139247940D01*
X108472514Y-139274550D01*
X108499123Y-139301159D01*
X108525733Y-139354378D01*
X108552342Y-139460816D01*
X108552342Y-139593864D01*
X108525733Y-139700302D01*
X108499123Y-139753521D01*
X108472514Y-139780130D01*
X108419295Y-139806740D01*
X108366076Y-139806740D01*
X108312857Y-139780130D01*
X108286247Y-139753521D01*
X108259638Y-139700302D01*
X108233028Y-139593864D01*
X108233028Y-139460816D01*
X108259638Y-139354378D01*
X108286247Y-139301159D01*
X108312857Y-139274550D01*
X108366076Y-139247940D01*
X133943271Y-142595600D02*
X133890052Y-142568990D01*
X133810223Y-142568990D01*
X133730395Y-142595600D01*
X133677176Y-142648819D01*
X133650566Y-142702038D01*
X133623957Y-142808476D01*
X133623957Y-142888304D01*
X133650566Y-142994742D01*
X133677176Y-143047961D01*
X133730395Y-143101180D01*
X133810223Y-143127790D01*
X133863442Y-143127790D01*
X133943271Y-143101180D01*
X133969880Y-143074571D01*
X133969880Y-142888304D01*
X133863442Y-142888304D01*
X134209366Y-142755257D02*
X134209366Y-143127790D01*
X134209366Y-142808476D02*
X134235976Y-142781866D01*
X134289195Y-142755257D01*
X134369023Y-142755257D01*
X134422242Y-142781866D01*
X134448852Y-142835085D01*
X134448852Y-143127790D01*
X134954433Y-143127790D02*
X134954433Y-142568990D01*
X134954433Y-143101180D02*
X134901214Y-143127790D01*
X134794776Y-143127790D01*
X134741557Y-143101180D01*
X134714947Y-143074571D01*
X134688338Y-143021352D01*
X134688338Y-142861695D01*
X134714947Y-142808476D01*
X134741557Y-142781866D01*
X134794776Y-142755257D01*
X134901214Y-142755257D01*
X134954433Y-142781866D01*
X128504042Y-142914914D02*
X128929795Y-142914914D01*
X128716919Y-143127790D02*
X128716919Y-142702038D01*
X129461985Y-142568990D02*
X129195890Y-142568990D01*
X129169280Y-142835085D01*
X129195890Y-142808476D01*
X129249109Y-142781866D01*
X129382157Y-142781866D01*
X129435376Y-142808476D01*
X129461985Y-142835085D01*
X129488595Y-142888304D01*
X129488595Y-143021352D01*
X129461985Y-143074571D01*
X129435376Y-143101180D01*
X129382157Y-143127790D01*
X129249109Y-143127790D01*
X129195890Y-143101180D01*
X129169280Y-143074571D01*
X129648252Y-142568990D02*
X129834519Y-143127790D01*
X130020785Y-142568990D01*
D11*
X121835938Y-139647385D02*
X121590404Y-139647385D01*
X121590404Y-140033223D02*
X121590404Y-139296623D01*
X121941166Y-139296623D01*
X122116547Y-139296623D02*
X122537461Y-139296623D01*
X122327004Y-140033223D02*
X122327004Y-139296623D01*
X122782995Y-140033223D02*
X122782995Y-139296623D01*
X122958376Y-139296623D01*
X123063604Y-139331700D01*
X123133757Y-139401852D01*
X123168833Y-139472004D01*
X123203909Y-139612309D01*
X123203909Y-139717538D01*
X123168833Y-139857842D01*
X123133757Y-139927995D01*
X123063604Y-139998147D01*
X122958376Y-140033223D01*
X122782995Y-140033223D01*
X123519595Y-140033223D02*
X123519595Y-139296623D01*
X135942614Y-135567057D02*
X135942614Y-135005838D01*
X136223223Y-135286447D02*
X135662004Y-135286447D01*
X135486623Y-134304314D02*
X135486623Y-134655076D01*
X135837385Y-134690152D01*
X135802309Y-134655076D01*
X135767233Y-134584923D01*
X135767233Y-134409542D01*
X135802309Y-134339390D01*
X135837385Y-134304314D01*
X135907538Y-134269238D01*
X136082919Y-134269238D01*
X136153071Y-134304314D01*
X136188147Y-134339390D01*
X136223223Y-134409542D01*
X136223223Y-134584923D01*
X136188147Y-134655076D01*
X136153071Y-134690152D01*
X135486623Y-134058780D02*
X136223223Y-133813247D01*
X135486623Y-133567714D01*
X135521700Y-138268528D02*
X135486623Y-138338680D01*
X135486623Y-138443909D01*
X135521700Y-138549138D01*
X135591852Y-138619290D01*
X135662004Y-138654366D01*
X135802309Y-138689442D01*
X135907538Y-138689442D01*
X136047842Y-138654366D01*
X136117995Y-138619290D01*
X136188147Y-138549138D01*
X136223223Y-138443909D01*
X136223223Y-138373757D01*
X136188147Y-138268528D01*
X136153071Y-138233452D01*
X135907538Y-138233452D01*
X135907538Y-138373757D01*
X135732157Y-137917766D02*
X136223223Y-137917766D01*
X135802309Y-137917766D02*
X135767233Y-137882690D01*
X135732157Y-137812538D01*
X135732157Y-137707309D01*
X135767233Y-137637157D01*
X135837385Y-137602080D01*
X136223223Y-137602080D01*
X136223223Y-136935633D02*
X135486623Y-136935633D01*
X136188147Y-136935633D02*
X136223223Y-137005785D01*
X136223223Y-137146090D01*
X136188147Y-137216242D01*
X136153071Y-137251319D01*
X136082919Y-137286395D01*
X135872461Y-137286395D01*
X135802309Y-137251319D01*
X135767233Y-137216242D01*
X135732157Y-137146090D01*
X135732157Y-137005785D01*
X135767233Y-136935633D01*
X134306128Y-125812814D02*
X134867347Y-125812814D01*
X134586738Y-126093423D02*
X134586738Y-125532204D01*
X135568871Y-125356823D02*
X135218109Y-125356823D01*
X135183033Y-125707585D01*
X135218109Y-125672509D01*
X135288261Y-125637433D01*
X135463642Y-125637433D01*
X135533795Y-125672509D01*
X135568871Y-125707585D01*
X135603947Y-125777738D01*
X135603947Y-125953119D01*
X135568871Y-126023271D01*
X135533795Y-126058347D01*
X135463642Y-126093423D01*
X135288261Y-126093423D01*
X135218109Y-126058347D01*
X135183033Y-126023271D01*
X134463971Y-127901700D02*
X134393819Y-127866623D01*
X134288590Y-127866623D01*
X134183361Y-127901700D01*
X134113209Y-127971852D01*
X134078133Y-128042004D01*
X134043057Y-128182309D01*
X134043057Y-128287538D01*
X134078133Y-128427842D01*
X134113209Y-128497995D01*
X134183361Y-128568147D01*
X134288590Y-128603223D01*
X134358742Y-128603223D01*
X134463971Y-128568147D01*
X134499047Y-128533071D01*
X134499047Y-128287538D01*
X134358742Y-128287538D01*
X134814733Y-128112157D02*
X134814733Y-128603223D01*
X134814733Y-128182309D02*
X134849809Y-128147233D01*
X134919961Y-128112157D01*
X135025190Y-128112157D01*
X135095342Y-128147233D01*
X135130419Y-128217385D01*
X135130419Y-128603223D01*
X135796866Y-128603223D02*
X135796866Y-127866623D01*
X135796866Y-128568147D02*
X135726714Y-128603223D01*
X135586409Y-128603223D01*
X135516257Y-128568147D01*
X135481180Y-128533071D01*
X135446104Y-128462919D01*
X135446104Y-128252461D01*
X135481180Y-128182309D01*
X135516257Y-128147233D01*
X135586409Y-128112157D01*
X135726714Y-128112157D01*
X135796866Y-128147233D01*
X134463971Y-130411500D02*
X134393819Y-130376423D01*
X134288590Y-130376423D01*
X134183361Y-130411500D01*
X134113209Y-130481652D01*
X134078133Y-130551804D01*
X134043057Y-130692109D01*
X134043057Y-130797338D01*
X134078133Y-130937642D01*
X134113209Y-131007795D01*
X134183361Y-131077947D01*
X134288590Y-131113023D01*
X134358742Y-131113023D01*
X134463971Y-131077947D01*
X134499047Y-131042871D01*
X134499047Y-130797338D01*
X134358742Y-130797338D01*
X134814733Y-130621957D02*
X134814733Y-131113023D01*
X134814733Y-130692109D02*
X134849809Y-130657033D01*
X134919961Y-130621957D01*
X135025190Y-130621957D01*
X135095342Y-130657033D01*
X135130419Y-130727185D01*
X135130419Y-131113023D01*
X135796866Y-131113023D02*
X135796866Y-130376423D01*
X135796866Y-131077947D02*
X135726714Y-131113023D01*
X135586409Y-131113023D01*
X135516257Y-131077947D01*
X135481180Y-131042871D01*
X135446104Y-130972719D01*
X135446104Y-130762261D01*
X135481180Y-130692109D01*
X135516257Y-130657033D01*
X135586409Y-130621957D01*
X135726714Y-130621957D01*
X135796866Y-130657033D01*
X134857804Y-110688266D02*
X135208566Y-110688266D01*
X134787652Y-110898723D02*
X135033185Y-110162123D01*
X135278719Y-110898723D01*
X135875014Y-110162123D02*
X135524252Y-110162123D01*
X135489176Y-110512885D01*
X135524252Y-110477809D01*
X135594404Y-110442733D01*
X135769785Y-110442733D01*
X135839938Y-110477809D01*
X135875014Y-110512885D01*
X135910090Y-110583038D01*
X135910090Y-110758419D01*
X135875014Y-110828571D01*
X135839938Y-110863647D01*
X135769785Y-110898723D01*
X135594404Y-110898723D01*
X135524252Y-110863647D01*
X135489176Y-110828571D01*
X134857804Y-113198066D02*
X135208566Y-113198066D01*
X134787652Y-113408523D02*
X135033185Y-112671923D01*
X135278719Y-113408523D01*
X135839938Y-112917457D02*
X135839938Y-113408523D01*
X135664557Y-112636847D02*
X135489176Y-113162990D01*
X135945166Y-113162990D01*
X134857804Y-115707866D02*
X135208566Y-115707866D01*
X134787652Y-115918323D02*
X135033185Y-115181723D01*
X135278719Y-115918323D01*
X135454100Y-115181723D02*
X135910090Y-115181723D01*
X135664557Y-115462333D01*
X135769785Y-115462333D01*
X135839938Y-115497409D01*
X135875014Y-115532485D01*
X135910090Y-115602638D01*
X135910090Y-115778019D01*
X135875014Y-115848171D01*
X135839938Y-115883247D01*
X135769785Y-115918323D01*
X135559328Y-115918323D01*
X135489176Y-115883247D01*
X135454100Y-115848171D01*
X134857804Y-118217666D02*
X135208566Y-118217666D01*
X134787652Y-118428123D02*
X135033185Y-117691523D01*
X135278719Y-118428123D01*
X135489176Y-117761676D02*
X135524252Y-117726600D01*
X135594404Y-117691523D01*
X135769785Y-117691523D01*
X135839938Y-117726600D01*
X135875014Y-117761676D01*
X135910090Y-117831828D01*
X135910090Y-117901980D01*
X135875014Y-118007209D01*
X135454100Y-118428123D01*
X135910090Y-118428123D01*
X134857804Y-120727466D02*
X135208566Y-120727466D01*
X134787652Y-120937923D02*
X135033185Y-120201323D01*
X135278719Y-120937923D01*
X135910090Y-120937923D02*
X135489176Y-120937923D01*
X135699633Y-120937923D02*
X135699633Y-120201323D01*
X135629480Y-120306552D01*
X135559328Y-120376704D01*
X135489176Y-120411780D01*
X134857804Y-123237266D02*
X135208566Y-123237266D01*
X134787652Y-123447723D02*
X135033185Y-122711123D01*
X135278719Y-123447723D01*
X135664557Y-122711123D02*
X135734709Y-122711123D01*
X135804861Y-122746200D01*
X135839938Y-122781276D01*
X135875014Y-122851428D01*
X135910090Y-122991733D01*
X135910090Y-123167114D01*
X135875014Y-123307419D01*
X135839938Y-123377571D01*
X135804861Y-123412647D01*
X135734709Y-123447723D01*
X135664557Y-123447723D01*
X135594404Y-123412647D01*
X135559328Y-123377571D01*
X135524252Y-123307419D01*
X135489176Y-123167114D01*
X135489176Y-122991733D01*
X135524252Y-122851428D01*
X135559328Y-122781276D01*
X135594404Y-122746200D01*
X135664557Y-122711123D01*
X108540380Y-123287914D02*
X109101600Y-123287914D01*
X108820990Y-123568523D02*
X108820990Y-123007304D01*
X109382209Y-122831923D02*
X109838200Y-122831923D01*
X109592666Y-123112533D01*
X109697895Y-123112533D01*
X109768047Y-123147609D01*
X109803123Y-123182685D01*
X109838200Y-123252838D01*
X109838200Y-123428219D01*
X109803123Y-123498371D01*
X109768047Y-123533447D01*
X109697895Y-123568523D01*
X109487438Y-123568523D01*
X109417285Y-123533447D01*
X109382209Y-123498371D01*
X110048657Y-122831923D02*
X110294190Y-123568523D01*
X110539723Y-122831923D01*
X110715104Y-122831923D02*
X111171095Y-122831923D01*
X110925561Y-123112533D01*
X111030790Y-123112533D01*
X111100942Y-123147609D01*
X111136019Y-123182685D01*
X111171095Y-123252838D01*
X111171095Y-123428219D01*
X111136019Y-123498371D01*
X111100942Y-123533447D01*
X111030790Y-123568523D01*
X110820333Y-123568523D01*
X110750180Y-123533447D01*
X110715104Y-123498371D01*
X108540380Y-125797714D02*
X109101600Y-125797714D01*
X108820990Y-126078323D02*
X108820990Y-125517104D01*
X109803123Y-125341723D02*
X109452361Y-125341723D01*
X109417285Y-125692485D01*
X109452361Y-125657409D01*
X109522514Y-125622333D01*
X109697895Y-125622333D01*
X109768047Y-125657409D01*
X109803123Y-125692485D01*
X109838200Y-125762638D01*
X109838200Y-125938019D01*
X109803123Y-126008171D01*
X109768047Y-126043247D01*
X109697895Y-126078323D01*
X109522514Y-126078323D01*
X109452361Y-126043247D01*
X109417285Y-126008171D01*
X110048657Y-125341723D02*
X110294190Y-126078323D01*
X110539723Y-125341723D01*
X108926219Y-127886600D02*
X108856066Y-127851523D01*
X108750838Y-127851523D01*
X108645609Y-127886600D01*
X108575457Y-127956752D01*
X108540380Y-128026904D01*
X108505304Y-128167209D01*
X108505304Y-128272438D01*
X108540380Y-128412742D01*
X108575457Y-128482895D01*
X108645609Y-128553047D01*
X108750838Y-128588123D01*
X108820990Y-128588123D01*
X108926219Y-128553047D01*
X108961295Y-128517971D01*
X108961295Y-128272438D01*
X108820990Y-128272438D01*
X109276980Y-128097057D02*
X109276980Y-128588123D01*
X109276980Y-128167209D02*
X109312057Y-128132133D01*
X109382209Y-128097057D01*
X109487438Y-128097057D01*
X109557590Y-128132133D01*
X109592666Y-128202285D01*
X109592666Y-128588123D01*
X110259114Y-128588123D02*
X110259114Y-127851523D01*
X110259114Y-128553047D02*
X110188961Y-128588123D01*
X110048657Y-128588123D01*
X109978504Y-128553047D01*
X109943428Y-128517971D01*
X109908352Y-128447819D01*
X109908352Y-128237361D01*
X109943428Y-128167209D01*
X109978504Y-128132133D01*
X110048657Y-128097057D01*
X110188961Y-128097057D01*
X110259114Y-128132133D01*
X108926219Y-130396400D02*
X108856066Y-130361323D01*
X108750838Y-130361323D01*
X108645609Y-130396400D01*
X108575457Y-130466552D01*
X108540380Y-130536704D01*
X108505304Y-130677009D01*
X108505304Y-130782238D01*
X108540380Y-130922542D01*
X108575457Y-130992695D01*
X108645609Y-131062847D01*
X108750838Y-131097923D01*
X108820990Y-131097923D01*
X108926219Y-131062847D01*
X108961295Y-131027771D01*
X108961295Y-130782238D01*
X108820990Y-130782238D01*
X109276980Y-130606857D02*
X109276980Y-131097923D01*
X109276980Y-130677009D02*
X109312057Y-130641933D01*
X109382209Y-130606857D01*
X109487438Y-130606857D01*
X109557590Y-130641933D01*
X109592666Y-130712085D01*
X109592666Y-131097923D01*
X110259114Y-131097923D02*
X110259114Y-130361323D01*
X110259114Y-131062847D02*
X110188961Y-131097923D01*
X110048657Y-131097923D01*
X109978504Y-131062847D01*
X109943428Y-131027771D01*
X109908352Y-130957619D01*
X109908352Y-130747161D01*
X109943428Y-130677009D01*
X109978504Y-130641933D01*
X110048657Y-130606857D01*
X110188961Y-130606857D01*
X110259114Y-130641933D01*
X108676319Y-108366273D02*
X108676319Y-107629673D01*
X108851700Y-107629673D01*
X108956928Y-107664750D01*
X109027080Y-107734902D01*
X109062157Y-107805054D01*
X109097233Y-107945359D01*
X109097233Y-108050588D01*
X109062157Y-108190892D01*
X109027080Y-108261045D01*
X108956928Y-108331197D01*
X108851700Y-108366273D01*
X108676319Y-108366273D01*
X109342766Y-107629673D02*
X109798757Y-107629673D01*
X109553223Y-107910283D01*
X109658452Y-107910283D01*
X109728604Y-107945359D01*
X109763680Y-107980435D01*
X109798757Y-108050588D01*
X109798757Y-108225969D01*
X109763680Y-108296121D01*
X109728604Y-108331197D01*
X109658452Y-108366273D01*
X109447995Y-108366273D01*
X109377842Y-108331197D01*
X109342766Y-108296121D01*
X108676319Y-110876073D02*
X108676319Y-110139473D01*
X108851700Y-110139473D01*
X108956928Y-110174550D01*
X109027080Y-110244702D01*
X109062157Y-110314854D01*
X109097233Y-110455159D01*
X109097233Y-110560388D01*
X109062157Y-110700692D01*
X109027080Y-110770845D01*
X108956928Y-110840997D01*
X108851700Y-110876073D01*
X108676319Y-110876073D01*
X109728604Y-110385007D02*
X109728604Y-110876073D01*
X109553223Y-110104397D02*
X109377842Y-110630540D01*
X109833833Y-110630540D01*
X108676319Y-113385873D02*
X108676319Y-112649273D01*
X108851700Y-112649273D01*
X108956928Y-112684350D01*
X109027080Y-112754502D01*
X109062157Y-112824654D01*
X109097233Y-112964959D01*
X109097233Y-113070188D01*
X109062157Y-113210492D01*
X109027080Y-113280645D01*
X108956928Y-113350797D01*
X108851700Y-113385873D01*
X108676319Y-113385873D01*
X109763680Y-112649273D02*
X109412919Y-112649273D01*
X109377842Y-113000035D01*
X109412919Y-112964959D01*
X109483071Y-112929883D01*
X109658452Y-112929883D01*
X109728604Y-112964959D01*
X109763680Y-113000035D01*
X109798757Y-113070188D01*
X109798757Y-113245569D01*
X109763680Y-113315721D01*
X109728604Y-113350797D01*
X109658452Y-113385873D01*
X109483071Y-113385873D01*
X109412919Y-113350797D01*
X109377842Y-113315721D01*
X108676319Y-115895673D02*
X108676319Y-115159073D01*
X108851700Y-115159073D01*
X108956928Y-115194150D01*
X109027080Y-115264302D01*
X109062157Y-115334454D01*
X109097233Y-115474759D01*
X109097233Y-115579988D01*
X109062157Y-115720292D01*
X109027080Y-115790445D01*
X108956928Y-115860597D01*
X108851700Y-115895673D01*
X108676319Y-115895673D01*
X109728604Y-115159073D02*
X109588300Y-115159073D01*
X109518147Y-115194150D01*
X109483071Y-115229226D01*
X109412919Y-115334454D01*
X109377842Y-115474759D01*
X109377842Y-115755369D01*
X109412919Y-115825521D01*
X109447995Y-115860597D01*
X109518147Y-115895673D01*
X109658452Y-115895673D01*
X109728604Y-115860597D01*
X109763680Y-115825521D01*
X109798757Y-115755369D01*
X109798757Y-115579988D01*
X109763680Y-115509835D01*
X109728604Y-115474759D01*
X109658452Y-115439683D01*
X109518147Y-115439683D01*
X109447995Y-115474759D01*
X109412919Y-115509835D01*
X109377842Y-115579988D01*
X108676319Y-118405473D02*
X108676319Y-117668873D01*
X108851700Y-117668873D01*
X108956928Y-117703950D01*
X109027080Y-117774102D01*
X109062157Y-117844254D01*
X109097233Y-117984559D01*
X109097233Y-118089788D01*
X109062157Y-118230092D01*
X109027080Y-118300245D01*
X108956928Y-118370397D01*
X108851700Y-118405473D01*
X108676319Y-118405473D01*
X109342766Y-117668873D02*
X109833833Y-117668873D01*
X109518147Y-118405473D01*
X108676319Y-120915273D02*
X108676319Y-120178673D01*
X108851700Y-120178673D01*
X108956928Y-120213750D01*
X109027080Y-120283902D01*
X109062157Y-120354054D01*
X109097233Y-120494359D01*
X109097233Y-120599588D01*
X109062157Y-120739892D01*
X109027080Y-120810045D01*
X108956928Y-120880197D01*
X108851700Y-120915273D01*
X108676319Y-120915273D01*
X109518147Y-120494359D02*
X109447995Y-120459283D01*
X109412919Y-120424207D01*
X109377842Y-120354054D01*
X109377842Y-120318978D01*
X109412919Y-120248826D01*
X109447995Y-120213750D01*
X109518147Y-120178673D01*
X109658452Y-120178673D01*
X109728604Y-120213750D01*
X109763680Y-120248826D01*
X109798757Y-120318978D01*
X109798757Y-120354054D01*
X109763680Y-120424207D01*
X109728604Y-120459283D01*
X109658452Y-120494359D01*
X109518147Y-120494359D01*
X109447995Y-120529435D01*
X109412919Y-120564511D01*
X109377842Y-120634664D01*
X109377842Y-120774969D01*
X109412919Y-120845121D01*
X109447995Y-120880197D01*
X109518147Y-120915273D01*
X109658452Y-120915273D01*
X109728604Y-120880197D01*
X109763680Y-120845121D01*
X109798757Y-120774969D01*
X109798757Y-120634664D01*
X109763680Y-120564511D01*
X109728604Y-120529435D01*
X109658452Y-120494359D01*
X133057295Y-108283223D02*
X132811761Y-107932461D01*
X132636380Y-108283223D02*
X132636380Y-107546623D01*
X132916990Y-107546623D01*
X132987142Y-107581700D01*
X133022219Y-107616776D01*
X133057295Y-107686928D01*
X133057295Y-107792157D01*
X133022219Y-107862309D01*
X132987142Y-107897385D01*
X132916990Y-107932461D01*
X132636380Y-107932461D01*
X133723742Y-108283223D02*
X133372980Y-108283223D01*
X133372980Y-107546623D01*
X133969276Y-108002614D02*
X134530495Y-108002614D01*
X134881257Y-108283223D02*
X134881257Y-107546623D01*
X135056638Y-107546623D01*
X135161866Y-107581700D01*
X135232019Y-107651852D01*
X135267095Y-107722004D01*
X135302171Y-107862309D01*
X135302171Y-107967538D01*
X135267095Y-108107842D01*
X135232019Y-108177995D01*
X135161866Y-108248147D01*
X135056638Y-108283223D01*
X134881257Y-108283223D01*
X135933542Y-107792157D02*
X135933542Y-108283223D01*
X135758161Y-107511547D02*
X135582780Y-108037690D01*
X136038771Y-108037690D01*
D12*
X111937195Y-100244123D02*
X111586433Y-100244123D01*
X111551357Y-100594885D01*
X111586433Y-100559809D01*
X111656585Y-100524733D01*
X111831966Y-100524733D01*
X111902119Y-100559809D01*
X111937195Y-100594885D01*
X111972271Y-100665038D01*
X111972271Y-100840419D01*
X111937195Y-100910571D01*
X111902119Y-100945647D01*
X111831966Y-100980723D01*
X111656585Y-100980723D01*
X111586433Y-100945647D01*
X111551357Y-100910571D01*
X112182728Y-100244123D02*
X112428261Y-100980723D01*
X112673795Y-100244123D01*
X105818819Y-100980723D02*
X105818819Y-100244123D01*
X105994200Y-100244123D01*
X106099428Y-100279200D01*
X106169580Y-100349352D01*
X106204657Y-100419504D01*
X106239733Y-100559809D01*
X106239733Y-100665038D01*
X106204657Y-100805342D01*
X106169580Y-100875495D01*
X106099428Y-100945647D01*
X105994200Y-100980723D01*
X105818819Y-100980723D01*
X106906180Y-100244123D02*
X106555419Y-100244123D01*
X106520342Y-100594885D01*
X106555419Y-100559809D01*
X106625571Y-100524733D01*
X106800952Y-100524733D01*
X106871104Y-100559809D01*
X106906180Y-100594885D01*
X106941257Y-100665038D01*
X106941257Y-100840419D01*
X106906180Y-100910571D01*
X106871104Y-100945647D01*
X106800952Y-100980723D01*
X106625571Y-100980723D01*
X106555419Y-100945647D01*
X106520342Y-100910571D01*
D13*
X122085100Y-138344910D02*
X121018300Y-138344910D01*
X121424700Y-138344910D02*
X121373900Y-138243310D01*
X121373900Y-138040110D01*
X121424700Y-137938510D01*
X121475500Y-137887710D01*
X121577100Y-137836910D01*
X121881900Y-137836910D01*
X121983500Y-137887710D01*
X122034300Y-137938510D01*
X122085100Y-138040110D01*
X122085100Y-138243310D01*
X122034300Y-138344910D01*
X121373900Y-137481310D02*
X122085100Y-137227310D01*
X121373900Y-136973310D02*
X122085100Y-137227310D01*
X122339100Y-137328910D01*
X122389900Y-137379710D01*
X122440700Y-137481310D01*
X121373900Y-135855710D02*
X122085100Y-135652510D01*
X121577100Y-135449310D01*
X122085100Y-135246110D01*
X121373900Y-135042910D01*
X121373900Y-134738110D02*
X122085100Y-134534910D01*
X121577100Y-134331710D01*
X122085100Y-134128510D01*
X121373900Y-133925310D01*
X121373900Y-133620510D02*
X122085100Y-133417310D01*
X121577100Y-133214110D01*
X122085100Y-133010910D01*
X121373900Y-132807710D01*
X121983500Y-132401310D02*
X122034300Y-132350510D01*
X122085100Y-132401310D01*
X122034300Y-132452110D01*
X121983500Y-132401310D01*
X122085100Y-132401310D01*
X122085100Y-131893310D02*
X121373900Y-131893310D01*
X121475500Y-131893310D02*
X121424700Y-131842510D01*
X121373900Y-131740910D01*
X121373900Y-131588510D01*
X121424700Y-131486910D01*
X121526300Y-131436110D01*
X122085100Y-131436110D01*
X121526300Y-131436110D02*
X121424700Y-131385310D01*
X121373900Y-131283710D01*
X121373900Y-131131310D01*
X121424700Y-131029710D01*
X121526300Y-130978910D01*
X122085100Y-130978910D01*
X122085100Y-130013710D02*
X121526300Y-130013710D01*
X121424700Y-130064510D01*
X121373900Y-130166110D01*
X121373900Y-130369310D01*
X121424700Y-130470910D01*
X122034300Y-130013710D02*
X122085100Y-130115310D01*
X122085100Y-130369310D01*
X122034300Y-130470910D01*
X121932700Y-130521710D01*
X121831100Y-130521710D01*
X121729500Y-130470910D01*
X121678700Y-130369310D01*
X121678700Y-130115310D01*
X121627900Y-130013710D01*
X122085100Y-129505710D02*
X121373900Y-129505710D01*
X121577100Y-129505710D02*
X121475500Y-129454910D01*
X121424700Y-129404110D01*
X121373900Y-129302510D01*
X121373900Y-129200910D01*
X122034300Y-128388110D02*
X122085100Y-128489710D01*
X122085100Y-128692910D01*
X122034300Y-128794510D01*
X121983500Y-128845310D01*
X121881900Y-128896110D01*
X121577100Y-128896110D01*
X121475500Y-128845310D01*
X121424700Y-128794510D01*
X121373900Y-128692910D01*
X121373900Y-128489710D01*
X121424700Y-128388110D01*
X122034300Y-127524510D02*
X122085100Y-127626110D01*
X122085100Y-127829310D01*
X122034300Y-127930910D01*
X121932700Y-127981710D01*
X121526300Y-127981710D01*
X121424700Y-127930910D01*
X121373900Y-127829310D01*
X121373900Y-127626110D01*
X121424700Y-127524510D01*
X121526300Y-127473710D01*
X121627900Y-127473710D01*
X121729500Y-127981710D01*
X122085100Y-126864110D02*
X122034300Y-126965710D01*
X121932700Y-127016510D01*
X121018300Y-127016510D01*
X122085100Y-126305310D02*
X122034300Y-126406910D01*
X121983500Y-126457710D01*
X121881900Y-126508510D01*
X121577100Y-126508510D01*
X121475500Y-126457710D01*
X121424700Y-126406910D01*
X121373900Y-126305310D01*
X121373900Y-126152910D01*
X121424700Y-126051310D01*
X121475500Y-126000510D01*
X121577100Y-125949710D01*
X121881900Y-125949710D01*
X121983500Y-126000510D01*
X122034300Y-126051310D01*
X122085100Y-126152910D01*
X122085100Y-126305310D01*
X122034300Y-125035310D02*
X122085100Y-125136910D01*
X122085100Y-125340110D01*
X122034300Y-125441710D01*
X121983500Y-125492510D01*
X121881900Y-125543310D01*
X121577100Y-125543310D01*
X121475500Y-125492510D01*
X121424700Y-125441710D01*
X121373900Y-125340110D01*
X121373900Y-125136910D01*
X121424700Y-125035310D01*
X122085100Y-124120910D02*
X121526300Y-124120910D01*
X121424700Y-124171710D01*
X121373900Y-124273310D01*
X121373900Y-124476510D01*
X121424700Y-124578110D01*
X122034300Y-124120910D02*
X122085100Y-124222510D01*
X122085100Y-124476510D01*
X122034300Y-124578110D01*
X121932700Y-124628910D01*
X121831100Y-124628910D01*
X121729500Y-124578110D01*
X121678700Y-124476510D01*
X121678700Y-124222510D01*
X121627900Y-124120910D01*
X122085100Y-123612910D02*
X121373900Y-123612910D01*
X121475500Y-123612910D02*
X121424700Y-123562110D01*
X121373900Y-123460510D01*
X121373900Y-123308110D01*
X121424700Y-123206510D01*
X121526300Y-123155710D01*
X122085100Y-123155710D01*
X121526300Y-123155710D02*
X121424700Y-123104910D01*
X121373900Y-123003310D01*
X121373900Y-122850910D01*
X121424700Y-122749310D01*
X121526300Y-122698510D01*
X122085100Y-122698510D01*
X121373900Y-122190510D02*
X122440700Y-122190510D01*
X121424700Y-122190510D02*
X121373900Y-122088910D01*
X121373900Y-121885710D01*
X121424700Y-121784110D01*
X121475500Y-121733310D01*
X121577100Y-121682510D01*
X121881900Y-121682510D01*
X121983500Y-121733310D01*
X122034300Y-121784110D01*
X122085100Y-121885710D01*
X122085100Y-122088910D01*
X122034300Y-122190510D01*
X122085100Y-121072910D02*
X122034300Y-121174510D01*
X121983500Y-121225310D01*
X121881900Y-121276110D01*
X121577100Y-121276110D01*
X121475500Y-121225310D01*
X121424700Y-121174510D01*
X121373900Y-121072910D01*
X121373900Y-120920510D01*
X121424700Y-120818910D01*
X121475500Y-120768110D01*
X121577100Y-120717310D01*
X121881900Y-120717310D01*
X121983500Y-120768110D01*
X122034300Y-120818910D01*
X122085100Y-120920510D01*
X122085100Y-121072910D01*
X122034300Y-120310910D02*
X122085100Y-120209310D01*
X122085100Y-120006110D01*
X122034300Y-119904510D01*
X121932700Y-119853710D01*
X121881900Y-119853710D01*
X121780300Y-119904510D01*
X121729500Y-120006110D01*
X121729500Y-120158510D01*
X121678700Y-120260110D01*
X121577100Y-120310910D01*
X121526300Y-120310910D01*
X121424700Y-120260110D01*
X121373900Y-120158510D01*
X121373900Y-120006110D01*
X121424700Y-119904510D01*
X121983500Y-119396510D02*
X122034300Y-119345710D01*
X122085100Y-119396510D01*
X122034300Y-119447310D01*
X121983500Y-119396510D01*
X122085100Y-119396510D01*
X122034300Y-118431310D02*
X122085100Y-118532910D01*
X122085100Y-118736110D01*
X122034300Y-118837710D01*
X121983500Y-118888510D01*
X121881900Y-118939310D01*
X121577100Y-118939310D01*
X121475500Y-118888510D01*
X121424700Y-118837710D01*
X121373900Y-118736110D01*
X121373900Y-118532910D01*
X121424700Y-118431310D01*
X122034300Y-117516910D02*
X122085100Y-117618510D01*
X122085100Y-117821710D01*
X122034300Y-117923310D01*
X121983500Y-117974110D01*
X121881900Y-118024910D01*
X121577100Y-118024910D01*
X121475500Y-117974110D01*
X121424700Y-117923310D01*
X121373900Y-117821710D01*
X121373900Y-117618510D01*
X121424700Y-117516910D01*
D14*
%TO.C,Q1*%
X130915000Y-111070000D02*
X134515000Y-111070000D01*
X130876522Y-111058478D02*
G75*
G02*
X132715000Y-106620000I1838478J1838478D01*
G01*
X134553478Y-111058478D02*
G75*
G03*
X132715000Y-106620000I-1838478J1838478D01*
G01*
%TO.C,CI3*%
X139010000Y-104670000D02*
X139010000Y-101070000D01*
X138998478Y-104708478D02*
G75*
G02*
X134560000Y-102870000I-1838478J1838478D01*
G01*
X138998478Y-101031522D02*
G75*
G03*
X134560000Y-102870000I-1838478J-1838478D01*
G01*
%TO.C,P3*%
X136147500Y-132140000D02*
X138807500Y-132140000D01*
X136147500Y-109220000D02*
X136147500Y-132140000D01*
X138807500Y-109220000D02*
X138807500Y-132140000D01*
X136147500Y-109220000D02*
X138807500Y-109220000D01*
X136147500Y-107950000D02*
X136147500Y-106620000D01*
X136147500Y-106620000D02*
X137477500Y-106620000D01*
%TO.C,JP1*%
X111270000Y-100347500D02*
X111270000Y-100947500D01*
X107820000Y-99647500D02*
X110620000Y-99647500D01*
X107170000Y-100947500D02*
X107170000Y-100347500D01*
X110620000Y-101647500D02*
X107820000Y-101647500D01*
X107870000Y-101647500D02*
G75*
G02*
X107170000Y-100947500I0J700000D01*
G01*
X107170000Y-100347500D02*
G75*
G02*
X107870000Y-99647500I700000J0D01*
G01*
X110570000Y-99647500D02*
G75*
G02*
X111270000Y-100347500I0J-700000D01*
G01*
X111270000Y-100947500D02*
G75*
G02*
X110570000Y-101647500I-700000J0D01*
G01*
D15*
%TO.C,R5*%
X120777000Y-101155500D02*
X120269000Y-101663500D01*
X116713000Y-99631500D02*
X116713000Y-100647500D01*
X120777000Y-101663500D02*
X120777000Y-99631500D01*
X116713000Y-100647500D02*
X116713000Y-101663500D01*
X116205000Y-100647500D02*
X116713000Y-100647500D01*
X121285000Y-100647500D02*
X120777000Y-100647500D01*
X120777000Y-101663500D02*
X116713000Y-101663500D01*
X116713000Y-99631500D02*
X120777000Y-99631500D01*
D14*
%TO.C,CI1*%
X114570000Y-101857500D02*
X112920000Y-101857500D01*
X112920000Y-101857500D02*
X112920000Y-137537500D01*
X112920000Y-137537500D02*
X118220000Y-137537500D01*
X118220000Y-137537500D02*
X118220000Y-101857500D01*
X118220000Y-101857500D02*
X116570000Y-101857500D01*
X110430000Y-101797500D02*
X110430000Y-137597500D01*
X110430000Y-137597500D02*
X120710000Y-137597500D01*
X120710000Y-137597500D02*
X120710000Y-101797500D01*
X120710000Y-101797500D02*
X110430000Y-101797500D01*
X116570000Y-101857500D02*
G75*
G02*
X114570000Y-101857500I-1000000J0D01*
G01*
D11*
%TO.C,C2*%
X129476500Y-121348500D02*
G75*
G03*
X129476500Y-118046500I-1651000J1651000D01*
G01*
X128968500Y-118046500D02*
G75*
G03*
X128968500Y-121348500I1651000J-1651000D01*
G01*
D16*
%TO.C,D1*%
X124777500Y-100647500D02*
X123507500Y-100647500D01*
X132397500Y-100647500D02*
X133667500Y-100647500D01*
X132397500Y-100647500D02*
X131635500Y-100647500D01*
D15*
X131635500Y-100647500D02*
X131635500Y-99631500D01*
X131635500Y-99631500D02*
X125539500Y-99631500D01*
X125539500Y-99631500D02*
X125539500Y-100647500D01*
X125539500Y-100647500D02*
X124777500Y-100647500D01*
X125539500Y-100647500D02*
X125539500Y-101663500D01*
X125539500Y-101663500D02*
X131635500Y-101663500D01*
X131635500Y-101663500D02*
X131635500Y-100647500D01*
X131127500Y-99631500D02*
X131127500Y-101663500D01*
X130873500Y-101663500D02*
X130873500Y-99631500D01*
D11*
%TO.C,C7*%
X123253500Y-115506500D02*
G75*
G03*
X123253500Y-118808500I1651000J-1651000D01*
G01*
X123761500Y-118808500D02*
G75*
G03*
X123761500Y-115506500I-1651000J1651000D01*
G01*
%TO.C,C5*%
X123761500Y-123888500D02*
G75*
G03*
X123761500Y-120586500I-1651000J1651000D01*
G01*
X123253500Y-120586500D02*
G75*
G03*
X123253500Y-123888500I1651000J-1651000D01*
G01*
D14*
%TO.C,C6*%
X105755000Y-137904788D02*
X106205000Y-137904788D01*
X105980000Y-138129788D02*
X105980000Y-137679788D01*
X108375000Y-137712240D02*
G75*
G03*
X106255000Y-137712241I-1060000J2119740D01*
G01*
D11*
%TO.C,C8*%
X134048500Y-102933500D02*
G75*
G03*
X130746500Y-102933500I-1651000J-1651000D01*
G01*
X130746500Y-103441500D02*
G75*
G03*
X134048500Y-103441500I1651000J1651000D01*
G01*
D14*
%TO.C,CI2*%
X133585000Y-125090000D02*
X132325000Y-125090000D01*
X126765000Y-125090000D02*
X128025000Y-125090000D01*
X133585000Y-128850000D02*
X133585000Y-125090000D01*
X126765000Y-131100000D02*
X126765000Y-125090000D01*
%TO.C,LD1*%
X108875000Y-102742500D02*
X108875000Y-102586500D01*
X108875000Y-105058500D02*
X108875000Y-104902500D01*
X105642665Y-104901108D02*
G75*
G03*
X108875000Y-105058016I1672335J1078608D01*
G01*
X105642665Y-102743892D02*
G75*
G02*
X108875000Y-102586984I1672335J-1078608D01*
G01*
%TO.C,Mod1*%
X135315000Y-139442500D02*
X135315000Y-134242500D01*
X127635000Y-139442500D02*
X135315000Y-139442500D01*
X125035000Y-134242500D02*
X135315000Y-134242500D01*
X127635000Y-139442500D02*
X127635000Y-136842500D01*
X127635000Y-136842500D02*
X125035000Y-136842500D01*
X125035000Y-136842500D02*
X125035000Y-134242500D01*
X126365000Y-139442500D02*
X125035000Y-139442500D01*
X125035000Y-139442500D02*
X125035000Y-138112500D01*
D17*
%TO.C,P1*%
X120332500Y-142875000D02*
X120332500Y-140970000D01*
X120332500Y-142875000D02*
X120764300Y-143306800D01*
X120764300Y-143306800D02*
X134937500Y-143306800D01*
X134937500Y-143306800D02*
X135369300Y-142875000D01*
X135369300Y-142875000D02*
X135369300Y-140970000D01*
X134937500Y-140538200D02*
X135369300Y-140970000D01*
X120764300Y-140538200D02*
X134937500Y-140538200D01*
X120332500Y-140970000D02*
X120764300Y-140538200D01*
D14*
%TO.C,P2*%
X105667500Y-106620000D02*
X106997500Y-106620000D01*
X105667500Y-107950000D02*
X105667500Y-106620000D01*
X105667500Y-109220000D02*
X108327500Y-109220000D01*
X108327500Y-109220000D02*
X108327500Y-132140000D01*
X105667500Y-109220000D02*
X105667500Y-132140000D01*
X105667500Y-132140000D02*
X108327500Y-132140000D01*
%TO.C,P4*%
X136465000Y-138807500D02*
X139125000Y-138807500D01*
X136465000Y-136207500D02*
X136465000Y-138807500D01*
X139125000Y-136207500D02*
X139125000Y-138807500D01*
X136465000Y-136207500D02*
X139125000Y-136207500D01*
X136465000Y-134937500D02*
X136465000Y-133607500D01*
X136465000Y-133607500D02*
X137795000Y-133607500D01*
D15*
%TO.C,R4*%
X124015500Y-109791500D02*
X128079500Y-109791500D01*
X128079500Y-111823500D02*
X124015500Y-111823500D01*
X128587500Y-110807500D02*
X128079500Y-110807500D01*
X123507500Y-110807500D02*
X124015500Y-110807500D01*
X124015500Y-110807500D02*
X124015500Y-111823500D01*
X128079500Y-111823500D02*
X128079500Y-109791500D01*
X124015500Y-109791500D02*
X124015500Y-110807500D01*
X128079500Y-111315500D02*
X127571500Y-111823500D01*
%TO.C,R6*%
X128079500Y-103695500D02*
X127571500Y-104203500D01*
X124015500Y-102171500D02*
X124015500Y-103187500D01*
X128079500Y-104203500D02*
X128079500Y-102171500D01*
X124015500Y-103187500D02*
X124015500Y-104203500D01*
X123507500Y-103187500D02*
X124015500Y-103187500D01*
X128587500Y-103187500D02*
X128079500Y-103187500D01*
X128079500Y-104203500D02*
X124015500Y-104203500D01*
X124015500Y-102171500D02*
X128079500Y-102171500D01*
%TO.C,R7*%
X128079500Y-106743500D02*
X124015500Y-106743500D01*
X124015500Y-104711500D02*
X128079500Y-104711500D01*
X123507500Y-105727500D02*
X124015500Y-105727500D01*
X128587500Y-105727500D02*
X128079500Y-105727500D01*
X128079500Y-105727500D02*
X128079500Y-104711500D01*
X124015500Y-104711500D02*
X124015500Y-106743500D01*
X128079500Y-106743500D02*
X128079500Y-105727500D01*
X124015500Y-105219500D02*
X124523500Y-104711500D01*
%TO.C,R8*%
X124015500Y-112331500D02*
X128079500Y-112331500D01*
X128079500Y-114363500D02*
X124015500Y-114363500D01*
X128587500Y-113347500D02*
X128079500Y-113347500D01*
X123507500Y-113347500D02*
X124015500Y-113347500D01*
X124015500Y-113347500D02*
X124015500Y-114363500D01*
X128079500Y-114363500D02*
X128079500Y-112331500D01*
X124015500Y-112331500D02*
X124015500Y-113347500D01*
X128079500Y-113855500D02*
X127571500Y-114363500D01*
D16*
%TO.C,X1*%
X118110000Y-138112500D02*
X111760000Y-138112500D01*
X118110000Y-143192500D02*
X111760000Y-143192500D01*
X109220000Y-140652500D02*
G75*
G03*
X111760000Y-143192500I2540000J0D01*
G01*
X111760000Y-138112500D02*
G75*
G03*
X109220000Y-140652500I0J-2540000D01*
G01*
X118110000Y-143192500D02*
G75*
G03*
X120650000Y-140652500I0J2540000D01*
G01*
X120650000Y-140652500D02*
G75*
G03*
X118110000Y-138112500I-2540000J0D01*
G01*
D15*
%TO.C,R9*%
X123444000Y-131889500D02*
X123444000Y-127825500D01*
X125476000Y-127825500D02*
X125476000Y-131889500D01*
X124460000Y-127317500D02*
X124460000Y-127825500D01*
X124460000Y-132397500D02*
X124460000Y-131889500D01*
X124460000Y-131889500D02*
X125476000Y-131889500D01*
X125476000Y-127825500D02*
X123444000Y-127825500D01*
X123444000Y-131889500D02*
X124460000Y-131889500D01*
X124968000Y-127825500D02*
X125476000Y-128333500D01*
%TO.C,Q1*%
D11*
X132619761Y-106207619D02*
X132524523Y-106160000D01*
X132429285Y-106064761D01*
X132286428Y-105921904D01*
X132191190Y-105874285D01*
X132095952Y-105874285D01*
X132143571Y-106112380D02*
X132048333Y-106064761D01*
X131953095Y-105969523D01*
X131905476Y-105779047D01*
X131905476Y-105445714D01*
X131953095Y-105255238D01*
X132048333Y-105160000D01*
X132143571Y-105112380D01*
X132334047Y-105112380D01*
X132429285Y-105160000D01*
X132524523Y-105255238D01*
X132572142Y-105445714D01*
X132572142Y-105779047D01*
X132524523Y-105969523D01*
X132429285Y-106064761D01*
X132334047Y-106112380D01*
X132143571Y-106112380D01*
X133524523Y-106112380D02*
X132953095Y-106112380D01*
X133238809Y-106112380D02*
X133238809Y-105112380D01*
X133143571Y-105255238D01*
X133048333Y-105350476D01*
X132953095Y-105398095D01*
%TO.C,CI3*%
X135835571Y-103168147D02*
X135870647Y-103203223D01*
X135905723Y-103308452D01*
X135905723Y-103378604D01*
X135870647Y-103483833D01*
X135800495Y-103553985D01*
X135730342Y-103589061D01*
X135590038Y-103624138D01*
X135484809Y-103624138D01*
X135344504Y-103589061D01*
X135274352Y-103553985D01*
X135204200Y-103483833D01*
X135169123Y-103378604D01*
X135169123Y-103308452D01*
X135204200Y-103203223D01*
X135239276Y-103168147D01*
X135905723Y-102852461D02*
X135169123Y-102852461D01*
X135169123Y-102571852D02*
X135169123Y-102115861D01*
X135449733Y-102361395D01*
X135449733Y-102256166D01*
X135484809Y-102186014D01*
X135519885Y-102150938D01*
X135590038Y-102115861D01*
X135765419Y-102115861D01*
X135835571Y-102150938D01*
X135870647Y-102186014D01*
X135905723Y-102256166D01*
X135905723Y-102466623D01*
X135870647Y-102536776D01*
X135835571Y-102571852D01*
%TO.C,P3*%
X135028819Y-106378223D02*
X135028819Y-105641623D01*
X135309428Y-105641623D01*
X135379580Y-105676700D01*
X135414657Y-105711776D01*
X135449733Y-105781928D01*
X135449733Y-105887157D01*
X135414657Y-105957309D01*
X135379580Y-105992385D01*
X135309428Y-106027461D01*
X135028819Y-106027461D01*
X135695266Y-105641623D02*
X136151257Y-105641623D01*
X135905723Y-105922233D01*
X136010952Y-105922233D01*
X136081104Y-105957309D01*
X136116180Y-105992385D01*
X136151257Y-106062538D01*
X136151257Y-106237919D01*
X136116180Y-106308071D01*
X136081104Y-106343147D01*
X136010952Y-106378223D01*
X135800495Y-106378223D01*
X135730342Y-106343147D01*
X135695266Y-106308071D01*
%TO.C,JP1*%
X108309833Y-98670533D02*
X108309833Y-99178533D01*
X108275966Y-99280133D01*
X108208233Y-99347866D01*
X108106633Y-99381733D01*
X108038900Y-99381733D01*
X108648500Y-99381733D02*
X108648500Y-98670533D01*
X108919433Y-98670533D01*
X108987166Y-98704400D01*
X109021033Y-98738266D01*
X109054900Y-98806000D01*
X109054900Y-98907600D01*
X109021033Y-98975333D01*
X108987166Y-99009200D01*
X108919433Y-99043066D01*
X108648500Y-99043066D01*
X109732233Y-99381733D02*
X109325833Y-99381733D01*
X109529033Y-99381733D02*
X109529033Y-98670533D01*
X109461300Y-98772133D01*
X109393566Y-98839866D01*
X109325833Y-98873733D01*
%TO.C,R5*%
D18*
X118578333Y-101099880D02*
X118245000Y-100623690D01*
X118006904Y-101099880D02*
X118006904Y-100099880D01*
X118387857Y-100099880D01*
X118483095Y-100147500D01*
X118530714Y-100195119D01*
X118578333Y-100290357D01*
X118578333Y-100433214D01*
X118530714Y-100528452D01*
X118483095Y-100576071D01*
X118387857Y-100623690D01*
X118006904Y-100623690D01*
X119483095Y-100099880D02*
X119006904Y-100099880D01*
X118959285Y-100576071D01*
X119006904Y-100528452D01*
X119102142Y-100480833D01*
X119340238Y-100480833D01*
X119435476Y-100528452D01*
X119483095Y-100576071D01*
X119530714Y-100671309D01*
X119530714Y-100909404D01*
X119483095Y-101004642D01*
X119435476Y-101052261D01*
X119340238Y-101099880D01*
X119102142Y-101099880D01*
X119006904Y-101052261D01*
X118959285Y-101004642D01*
%TO.C,CI1*%
D11*
X115165238Y-109894642D02*
X115117619Y-109942261D01*
X114974761Y-109989880D01*
X114879523Y-109989880D01*
X114736666Y-109942261D01*
X114641428Y-109847023D01*
X114593809Y-109751785D01*
X114546190Y-109561309D01*
X114546190Y-109418452D01*
X114593809Y-109227976D01*
X114641428Y-109132738D01*
X114736666Y-109037500D01*
X114879523Y-108989880D01*
X114974761Y-108989880D01*
X115117619Y-109037500D01*
X115165238Y-109085119D01*
X115593809Y-109989880D02*
X115593809Y-108989880D01*
X116593809Y-109989880D02*
X116022380Y-109989880D01*
X116308095Y-109989880D02*
X116308095Y-108989880D01*
X116212857Y-109132738D01*
X116117619Y-109227976D01*
X116022380Y-109275595D01*
%TO.C,C2*%
X129087033Y-119987785D02*
X129048328Y-120026490D01*
X128932214Y-120065195D01*
X128854804Y-120065195D01*
X128738690Y-120026490D01*
X128661280Y-119949080D01*
X128622576Y-119871671D01*
X128583871Y-119716852D01*
X128583871Y-119600738D01*
X128622576Y-119445919D01*
X128661280Y-119368509D01*
X128738690Y-119291100D01*
X128854804Y-119252395D01*
X128932214Y-119252395D01*
X129048328Y-119291100D01*
X129087033Y-119329804D01*
X129396671Y-119329804D02*
X129435376Y-119291100D01*
X129512785Y-119252395D01*
X129706309Y-119252395D01*
X129783719Y-119291100D01*
X129822423Y-119329804D01*
X129861128Y-119407214D01*
X129861128Y-119484623D01*
X129822423Y-119600738D01*
X129357966Y-120065195D01*
X129861128Y-120065195D01*
%TO.C,D1*%
D19*
X128043819Y-100980723D02*
X128043819Y-100244123D01*
X128219200Y-100244123D01*
X128324428Y-100279200D01*
X128394580Y-100349352D01*
X128429657Y-100419504D01*
X128464733Y-100559809D01*
X128464733Y-100665038D01*
X128429657Y-100805342D01*
X128394580Y-100875495D01*
X128324428Y-100945647D01*
X128219200Y-100980723D01*
X128043819Y-100980723D01*
X129166257Y-100980723D02*
X128745342Y-100980723D01*
X128955800Y-100980723D02*
X128955800Y-100244123D01*
X128885647Y-100349352D01*
X128815495Y-100419504D01*
X128745342Y-100454580D01*
%TO.C,C7*%
D11*
X123372033Y-117447785D02*
X123333328Y-117486490D01*
X123217214Y-117525195D01*
X123139804Y-117525195D01*
X123023690Y-117486490D01*
X122946280Y-117409080D01*
X122907576Y-117331671D01*
X122868871Y-117176852D01*
X122868871Y-117060738D01*
X122907576Y-116905919D01*
X122946280Y-116828509D01*
X123023690Y-116751100D01*
X123139804Y-116712395D01*
X123217214Y-116712395D01*
X123333328Y-116751100D01*
X123372033Y-116789804D01*
X123642966Y-116712395D02*
X124184833Y-116712395D01*
X123836490Y-117525195D01*
%TO.C,C5*%
X123372033Y-122527785D02*
X123333328Y-122566490D01*
X123217214Y-122605195D01*
X123139804Y-122605195D01*
X123023690Y-122566490D01*
X122946280Y-122489080D01*
X122907576Y-122411671D01*
X122868871Y-122256852D01*
X122868871Y-122140738D01*
X122907576Y-121985919D01*
X122946280Y-121908509D01*
X123023690Y-121831100D01*
X123139804Y-121792395D01*
X123217214Y-121792395D01*
X123333328Y-121831100D01*
X123372033Y-121869804D01*
X124107423Y-121792395D02*
X123720376Y-121792395D01*
X123681671Y-122179442D01*
X123720376Y-122140738D01*
X123797785Y-122102033D01*
X123991309Y-122102033D01*
X124068719Y-122140738D01*
X124107423Y-122179442D01*
X124146128Y-122256852D01*
X124146128Y-122450376D01*
X124107423Y-122527785D01*
X124068719Y-122566490D01*
X123991309Y-122605195D01*
X123797785Y-122605195D01*
X123720376Y-122566490D01*
X123681671Y-122527785D01*
%TO.C,C6*%
X109259642Y-135421666D02*
X109307261Y-135469285D01*
X109354880Y-135612142D01*
X109354880Y-135707380D01*
X109307261Y-135850238D01*
X109212023Y-135945476D01*
X109116785Y-135993095D01*
X108926309Y-136040714D01*
X108783452Y-136040714D01*
X108592976Y-135993095D01*
X108497738Y-135945476D01*
X108402500Y-135850238D01*
X108354880Y-135707380D01*
X108354880Y-135612142D01*
X108402500Y-135469285D01*
X108450119Y-135421666D01*
X108354880Y-134564523D02*
X108354880Y-134755000D01*
X108402500Y-134850238D01*
X108450119Y-134897857D01*
X108592976Y-134993095D01*
X108783452Y-135040714D01*
X109164404Y-135040714D01*
X109259642Y-134993095D01*
X109307261Y-134945476D01*
X109354880Y-134850238D01*
X109354880Y-134659761D01*
X109307261Y-134564523D01*
X109259642Y-134516904D01*
X109164404Y-134469285D01*
X108926309Y-134469285D01*
X108831071Y-134516904D01*
X108783452Y-134564523D01*
X108735833Y-134659761D01*
X108735833Y-134850238D01*
X108783452Y-134945476D01*
X108831071Y-134993095D01*
X108926309Y-135040714D01*
%TO.C,C8*%
X132687785Y-103322966D02*
X132726490Y-103361671D01*
X132765195Y-103477785D01*
X132765195Y-103555195D01*
X132726490Y-103671309D01*
X132649080Y-103748719D01*
X132571671Y-103787423D01*
X132416852Y-103826128D01*
X132300738Y-103826128D01*
X132145919Y-103787423D01*
X132068509Y-103748719D01*
X131991100Y-103671309D01*
X131952395Y-103555195D01*
X131952395Y-103477785D01*
X131991100Y-103361671D01*
X132029804Y-103322966D01*
X132300738Y-102858509D02*
X132262033Y-102935919D01*
X132223328Y-102974623D01*
X132145919Y-103013328D01*
X132107214Y-103013328D01*
X132029804Y-102974623D01*
X131991100Y-102935919D01*
X131952395Y-102858509D01*
X131952395Y-102703690D01*
X131991100Y-102626280D01*
X132029804Y-102587576D01*
X132107214Y-102548871D01*
X132145919Y-102548871D01*
X132223328Y-102587576D01*
X132262033Y-102626280D01*
X132300738Y-102703690D01*
X132300738Y-102858509D01*
X132339442Y-102935919D01*
X132378147Y-102974623D01*
X132455557Y-103013328D01*
X132610376Y-103013328D01*
X132687785Y-102974623D01*
X132726490Y-102935919D01*
X132765195Y-102858509D01*
X132765195Y-102703690D01*
X132726490Y-102626280D01*
X132687785Y-102587576D01*
X132610376Y-102548871D01*
X132455557Y-102548871D01*
X132378147Y-102587576D01*
X132339442Y-102626280D01*
X132300738Y-102703690D01*
%TO.C,CI2*%
X129770238Y-127992142D02*
X129722619Y-128039761D01*
X129579761Y-128087380D01*
X129484523Y-128087380D01*
X129341666Y-128039761D01*
X129246428Y-127944523D01*
X129198809Y-127849285D01*
X129151190Y-127658809D01*
X129151190Y-127515952D01*
X129198809Y-127325476D01*
X129246428Y-127230238D01*
X129341666Y-127135000D01*
X129484523Y-127087380D01*
X129579761Y-127087380D01*
X129722619Y-127135000D01*
X129770238Y-127182619D01*
X130198809Y-128087380D02*
X130198809Y-127087380D01*
X130627380Y-127182619D02*
X130675000Y-127135000D01*
X130770238Y-127087380D01*
X131008333Y-127087380D01*
X131103571Y-127135000D01*
X131151190Y-127182619D01*
X131198809Y-127277857D01*
X131198809Y-127373095D01*
X131151190Y-127515952D01*
X130579761Y-128087380D01*
X131198809Y-128087380D01*
%TO.C,LD1*%
X106823933Y-105425723D02*
X106473171Y-105425723D01*
X106473171Y-104689123D01*
X107069466Y-105425723D02*
X107069466Y-104689123D01*
X107244847Y-104689123D01*
X107350076Y-104724200D01*
X107420228Y-104794352D01*
X107455304Y-104864504D01*
X107490380Y-105004809D01*
X107490380Y-105110038D01*
X107455304Y-105250342D01*
X107420228Y-105320495D01*
X107350076Y-105390647D01*
X107244847Y-105425723D01*
X107069466Y-105425723D01*
X108191904Y-105425723D02*
X107770990Y-105425723D01*
X107981447Y-105425723D02*
X107981447Y-104689123D01*
X107911295Y-104794352D01*
X107841142Y-104864504D01*
X107770990Y-104899580D01*
D20*
X107763733Y-102874233D02*
X107763733Y-102163033D01*
X108170133Y-102874233D02*
X107865333Y-102467833D01*
X108170133Y-102163033D02*
X107763733Y-102569433D01*
%TO.C,Mod1*%
D11*
X127493485Y-136684657D02*
X127493485Y-137175723D01*
X127493485Y-136754809D02*
X127528561Y-136719733D01*
X127598714Y-136684657D01*
X127703942Y-136684657D01*
X127774095Y-136719733D01*
X127809171Y-136789885D01*
X127809171Y-137175723D01*
X128580847Y-137175723D02*
X128335314Y-136824961D01*
X128159933Y-137175723D02*
X128159933Y-136439123D01*
X128440542Y-136439123D01*
X128510695Y-136474200D01*
X128545771Y-136509276D01*
X128580847Y-136579428D01*
X128580847Y-136684657D01*
X128545771Y-136754809D01*
X128510695Y-136789885D01*
X128440542Y-136824961D01*
X128159933Y-136824961D01*
X129142066Y-136789885D02*
X128896533Y-136789885D01*
X128896533Y-137175723D02*
X128896533Y-136439123D01*
X129247295Y-136439123D01*
X129492828Y-136509276D02*
X129527904Y-136474200D01*
X129598057Y-136439123D01*
X129773438Y-136439123D01*
X129843590Y-136474200D01*
X129878666Y-136509276D01*
X129913742Y-136579428D01*
X129913742Y-136649580D01*
X129878666Y-136754809D01*
X129457752Y-137175723D01*
X129913742Y-137175723D01*
X130545114Y-136684657D02*
X130545114Y-137175723D01*
X130369733Y-136404047D02*
X130194352Y-136930190D01*
X130650342Y-136930190D01*
X131281714Y-137175723D02*
X130930952Y-137175723D01*
X130930952Y-136439123D01*
X131667552Y-136439123D02*
X131737704Y-136439123D01*
X131807857Y-136474200D01*
X131842933Y-136509276D01*
X131878009Y-136579428D01*
X131913085Y-136719733D01*
X131913085Y-136895114D01*
X131878009Y-137035419D01*
X131842933Y-137105571D01*
X131807857Y-137140647D01*
X131737704Y-137175723D01*
X131667552Y-137175723D01*
X131597400Y-137140647D01*
X131562323Y-137105571D01*
X131527247Y-137035419D01*
X131492171Y-136895114D01*
X131492171Y-136719733D01*
X131527247Y-136579428D01*
X131562323Y-136509276D01*
X131597400Y-136474200D01*
X131667552Y-136439123D01*
X132614609Y-137175723D02*
X132193695Y-137175723D01*
X132404152Y-137175723D02*
X132404152Y-136439123D01*
X132334000Y-136544352D01*
X132263847Y-136614504D01*
X132193695Y-136649580D01*
X132930295Y-136895114D02*
X133491514Y-136895114D01*
X133210904Y-137175723D02*
X133210904Y-136614504D01*
%TO.C,P1*%
D21*
X135028819Y-140350723D02*
X135028819Y-139614123D01*
X135309428Y-139614123D01*
X135379580Y-139649200D01*
X135414657Y-139684276D01*
X135449733Y-139754428D01*
X135449733Y-139859657D01*
X135414657Y-139929809D01*
X135379580Y-139964885D01*
X135309428Y-139999961D01*
X135028819Y-139999961D01*
X136151257Y-140350723D02*
X135730342Y-140350723D01*
X135940800Y-140350723D02*
X135940800Y-139614123D01*
X135870647Y-139719352D01*
X135800495Y-139789504D01*
X135730342Y-139824580D01*
%TO.C,P2*%
D11*
X108358819Y-133048223D02*
X108358819Y-132311623D01*
X108639428Y-132311623D01*
X108709580Y-132346700D01*
X108744657Y-132381776D01*
X108779733Y-132451928D01*
X108779733Y-132557157D01*
X108744657Y-132627309D01*
X108709580Y-132662385D01*
X108639428Y-132697461D01*
X108358819Y-132697461D01*
X109060342Y-132381776D02*
X109095419Y-132346700D01*
X109165571Y-132311623D01*
X109340952Y-132311623D01*
X109411104Y-132346700D01*
X109446180Y-132381776D01*
X109481257Y-132451928D01*
X109481257Y-132522080D01*
X109446180Y-132627309D01*
X109025266Y-133048223D01*
X109481257Y-133048223D01*
%TO.C,P4*%
X137568819Y-140033223D02*
X137568819Y-139296623D01*
X137849428Y-139296623D01*
X137919580Y-139331700D01*
X137954657Y-139366776D01*
X137989733Y-139436928D01*
X137989733Y-139542157D01*
X137954657Y-139612309D01*
X137919580Y-139647385D01*
X137849428Y-139682461D01*
X137568819Y-139682461D01*
X138621104Y-139542157D02*
X138621104Y-140033223D01*
X138445723Y-139261547D02*
X138270342Y-139787690D01*
X138726333Y-139787690D01*
%TO.C,R4*%
D18*
X125880833Y-111259880D02*
X125547500Y-110783690D01*
X125309404Y-111259880D02*
X125309404Y-110259880D01*
X125690357Y-110259880D01*
X125785595Y-110307500D01*
X125833214Y-110355119D01*
X125880833Y-110450357D01*
X125880833Y-110593214D01*
X125833214Y-110688452D01*
X125785595Y-110736071D01*
X125690357Y-110783690D01*
X125309404Y-110783690D01*
X126737976Y-110593214D02*
X126737976Y-111259880D01*
X126499880Y-110212261D02*
X126261785Y-110926547D01*
X126880833Y-110926547D01*
%TO.C,R6*%
X125880833Y-103639880D02*
X125547500Y-103163690D01*
X125309404Y-103639880D02*
X125309404Y-102639880D01*
X125690357Y-102639880D01*
X125785595Y-102687500D01*
X125833214Y-102735119D01*
X125880833Y-102830357D01*
X125880833Y-102973214D01*
X125833214Y-103068452D01*
X125785595Y-103116071D01*
X125690357Y-103163690D01*
X125309404Y-103163690D01*
X126737976Y-102639880D02*
X126547500Y-102639880D01*
X126452261Y-102687500D01*
X126404642Y-102735119D01*
X126309404Y-102877976D01*
X126261785Y-103068452D01*
X126261785Y-103449404D01*
X126309404Y-103544642D01*
X126357023Y-103592261D01*
X126452261Y-103639880D01*
X126642738Y-103639880D01*
X126737976Y-103592261D01*
X126785595Y-103544642D01*
X126833214Y-103449404D01*
X126833214Y-103211309D01*
X126785595Y-103116071D01*
X126737976Y-103068452D01*
X126642738Y-103020833D01*
X126452261Y-103020833D01*
X126357023Y-103068452D01*
X126309404Y-103116071D01*
X126261785Y-103211309D01*
%TO.C,R7*%
X125880833Y-106179880D02*
X125547500Y-105703690D01*
X125309404Y-106179880D02*
X125309404Y-105179880D01*
X125690357Y-105179880D01*
X125785595Y-105227500D01*
X125833214Y-105275119D01*
X125880833Y-105370357D01*
X125880833Y-105513214D01*
X125833214Y-105608452D01*
X125785595Y-105656071D01*
X125690357Y-105703690D01*
X125309404Y-105703690D01*
X126214166Y-105179880D02*
X126880833Y-105179880D01*
X126452261Y-106179880D01*
%TO.C,R8*%
X125880833Y-113799880D02*
X125547500Y-113323690D01*
X125309404Y-113799880D02*
X125309404Y-112799880D01*
X125690357Y-112799880D01*
X125785595Y-112847500D01*
X125833214Y-112895119D01*
X125880833Y-112990357D01*
X125880833Y-113133214D01*
X125833214Y-113228452D01*
X125785595Y-113276071D01*
X125690357Y-113323690D01*
X125309404Y-113323690D01*
X126452261Y-113228452D02*
X126357023Y-113180833D01*
X126309404Y-113133214D01*
X126261785Y-113037976D01*
X126261785Y-112990357D01*
X126309404Y-112895119D01*
X126357023Y-112847500D01*
X126452261Y-112799880D01*
X126642738Y-112799880D01*
X126737976Y-112847500D01*
X126785595Y-112895119D01*
X126833214Y-112990357D01*
X126833214Y-113037976D01*
X126785595Y-113133214D01*
X126737976Y-113180833D01*
X126642738Y-113228452D01*
X126452261Y-113228452D01*
X126357023Y-113276071D01*
X126309404Y-113323690D01*
X126261785Y-113418928D01*
X126261785Y-113609404D01*
X126309404Y-113704642D01*
X126357023Y-113752261D01*
X126452261Y-113799880D01*
X126642738Y-113799880D01*
X126737976Y-113752261D01*
X126785595Y-113704642D01*
X126833214Y-113609404D01*
X126833214Y-113418928D01*
X126785595Y-113323690D01*
X126737976Y-113276071D01*
X126642738Y-113228452D01*
%TO.C,X1*%
D19*
X117513704Y-141836623D02*
X118004771Y-142573223D01*
X118004771Y-141836623D02*
X117513704Y-142573223D01*
X118671219Y-142573223D02*
X118250304Y-142573223D01*
X118460761Y-142573223D02*
X118460761Y-141836623D01*
X118390609Y-141941852D01*
X118320457Y-142012004D01*
X118250304Y-142047080D01*
X113409185Y-139398223D02*
X112988271Y-139398223D01*
X113198728Y-139398223D02*
X113198728Y-138661623D01*
X113128576Y-138766852D01*
X113058423Y-138837004D01*
X112988271Y-138872080D01*
X114040557Y-138661623D02*
X113900252Y-138661623D01*
X113830100Y-138696700D01*
X113795023Y-138731776D01*
X113724871Y-138837004D01*
X113689795Y-138977309D01*
X113689795Y-139257919D01*
X113724871Y-139328071D01*
X113759947Y-139363147D01*
X113830100Y-139398223D01*
X113970404Y-139398223D01*
X114040557Y-139363147D01*
X114075633Y-139328071D01*
X114110709Y-139257919D01*
X114110709Y-139082538D01*
X114075633Y-139012385D01*
X114040557Y-138977309D01*
X113970404Y-138942233D01*
X113830100Y-138942233D01*
X113759947Y-138977309D01*
X113724871Y-139012385D01*
X113689795Y-139082538D01*
X114987614Y-139398223D02*
X114987614Y-138661623D01*
X115233147Y-139187766D01*
X115478680Y-138661623D01*
X115478680Y-139398223D01*
X115829442Y-139398223D02*
X115829442Y-138661623D01*
X115829442Y-139012385D02*
X116250357Y-139012385D01*
X116250357Y-139398223D02*
X116250357Y-138661623D01*
X116530966Y-138907157D02*
X116916804Y-138907157D01*
X116530966Y-139398223D01*
X116916804Y-139398223D01*
%TO.C,R9*%
D18*
X124912380Y-130024166D02*
X124436190Y-130357500D01*
X124912380Y-130595595D02*
X123912380Y-130595595D01*
X123912380Y-130214642D01*
X123960000Y-130119404D01*
X124007619Y-130071785D01*
X124102857Y-130024166D01*
X124245714Y-130024166D01*
X124340952Y-130071785D01*
X124388571Y-130119404D01*
X124436190Y-130214642D01*
X124436190Y-130595595D01*
X124912380Y-129547976D02*
X124912380Y-129357500D01*
X124864761Y-129262261D01*
X124817142Y-129214642D01*
X124674285Y-129119404D01*
X124483809Y-129071785D01*
X124102857Y-129071785D01*
X124007619Y-129119404D01*
X123960000Y-129167023D01*
X123912380Y-129262261D01*
X123912380Y-129452738D01*
X123960000Y-129547976D01*
X124007619Y-129595595D01*
X124102857Y-129643214D01*
X124340952Y-129643214D01*
X124436190Y-129595595D01*
X124483809Y-129547976D01*
X124531428Y-129452738D01*
X124531428Y-129262261D01*
X124483809Y-129167023D01*
X124436190Y-129119404D01*
X124340952Y-129071785D01*
%TD*%
M02*
