%TF.GenerationSoftware,KiCad,Pcbnew,(5.1.6)-1*%
%TF.CreationDate,2022-03-13T12:34:37-03:00*%
%TF.ProjectId,nRF24L01_Arduino_v2,6e524632-344c-4303-915f-41726475696e,rev?*%
%TF.SameCoordinates,Original*%
%TF.FileFunction,Copper,L2,Bot*%
%TF.FilePolarity,Positive*%
%FSLAX46Y46*%
G04 Gerber Fmt 4.6, Leading zero omitted, Abs format (unit mm)*
G04 Created by KiCad (PCBNEW (5.1.6)-1) date 2022-03-13 12:34:37*
%MOMM*%
%LPD*%
G01*
G04 APERTURE LIST*
%TA.AperFunction,ComponentPad*%
%ADD10O,1.050000X1.500000*%
%TD*%
%TA.AperFunction,ComponentPad*%
%ADD11R,1.050000X1.500000*%
%TD*%
%TA.AperFunction,ComponentPad*%
%ADD12O,1.500000X1.050000*%
%TD*%
%TA.AperFunction,ComponentPad*%
%ADD13R,1.500000X1.050000*%
%TD*%
%TA.AperFunction,ComponentPad*%
%ADD14R,1.700000X1.700000*%
%TD*%
%TA.AperFunction,ComponentPad*%
%ADD15O,1.700000X1.700000*%
%TD*%
%TA.AperFunction,ComponentPad*%
%ADD16C,1.651000*%
%TD*%
%TA.AperFunction,ComponentPad*%
%ADD17R,1.600000X1.600000*%
%TD*%
%TA.AperFunction,ComponentPad*%
%ADD18O,1.600000X1.600000*%
%TD*%
%TA.AperFunction,ComponentPad*%
%ADD19C,1.500000*%
%TD*%
%TA.AperFunction,ComponentPad*%
%ADD20R,1.524000X1.524000*%
%TD*%
%TA.AperFunction,ComponentPad*%
%ADD21C,1.524000*%
%TD*%
%TA.AperFunction,ComponentPad*%
%ADD22C,3.000000*%
%TD*%
%TA.AperFunction,ComponentPad*%
%ADD23C,1.600000*%
%TD*%
%TA.AperFunction,ComponentPad*%
%ADD24C,1.800000*%
%TD*%
%TA.AperFunction,ComponentPad*%
%ADD25O,1.524000X1.524000*%
%TD*%
%TA.AperFunction,ComponentPad*%
%ADD26C,1.422400*%
%TD*%
%TA.AperFunction,ViaPad*%
%ADD27C,1.016000*%
%TD*%
%TA.AperFunction,Conductor*%
%ADD28C,0.609600*%
%TD*%
%TA.AperFunction,Conductor*%
%ADD29C,0.406400*%
%TD*%
%TA.AperFunction,Conductor*%
%ADD30C,0.304800*%
%TD*%
G04 APERTURE END LIST*
D10*
%TO.P,Q1,2*%
%TO.N,Net-(Q1-Pad2)*%
X132715000Y-109220000D03*
%TO.P,Q1,3*%
%TO.N,GND*%
X133985000Y-109220000D03*
D11*
%TO.P,Q1,1*%
%TO.N,/Out_Rele*%
X131445000Y-109220000D03*
%TD*%
D12*
%TO.P,CI3,2*%
%TO.N,/PD3*%
X137160000Y-102870000D03*
%TO.P,CI3,3*%
%TO.N,+5V*%
X137160000Y-101600000D03*
D13*
%TO.P,CI3,1*%
%TO.N,GND*%
X137160000Y-104140000D03*
%TD*%
D14*
%TO.P,P3,1*%
%TO.N,/Out_Rele*%
X137477500Y-107950000D03*
D15*
%TO.P,P3,2*%
%TO.N,/PC5*%
X137477500Y-110490000D03*
%TO.P,P3,3*%
%TO.N,/PC4*%
X137477500Y-113030000D03*
%TO.P,P3,4*%
%TO.N,/PC3*%
X137477500Y-115570000D03*
%TO.P,P3,5*%
%TO.N,/PC2*%
X137477500Y-118110000D03*
%TO.P,P3,6*%
%TO.N,/PC1*%
X137477500Y-120650000D03*
%TO.P,P3,7*%
%TO.N,/PC0*%
X137477500Y-123190000D03*
%TO.P,P3,8*%
%TO.N,+5V*%
X137477500Y-125730000D03*
%TO.P,P3,9*%
%TO.N,GND*%
X137477500Y-128270000D03*
%TO.P,P3,10*%
X137477500Y-130810000D03*
%TD*%
D16*
%TO.P,R5,2*%
%TO.N,Net-(JP1-Pad1)*%
X116205000Y-100647500D03*
%TO.P,R5,1*%
%TO.N,+5V*%
X121285000Y-100647500D03*
%TD*%
D17*
%TO.P,CI1,1*%
%TO.N,/~RST*%
X111760000Y-103187500D03*
D18*
%TO.P,CI1,15*%
%TO.N,/PB1*%
X119380000Y-136207500D03*
%TO.P,CI1,2*%
%TO.N,/RXD.Brd*%
X111760000Y-105727500D03*
%TO.P,CI1,16*%
%TO.N,/PB2*%
X119380000Y-133667500D03*
%TO.P,CI1,3*%
%TO.N,/TXD.Brd*%
X111760000Y-108267500D03*
%TO.P,CI1,17*%
%TO.N,/PB3*%
X119380000Y-131127500D03*
%TO.P,CI1,4*%
%TO.N,/PD2*%
X111760000Y-110807500D03*
%TO.P,CI1,18*%
%TO.N,/PB4*%
X119380000Y-128587500D03*
%TO.P,CI1,5*%
%TO.N,/PD3*%
X111760000Y-113347500D03*
%TO.P,CI1,19*%
%TO.N,/PB5*%
X119380000Y-126047500D03*
%TO.P,CI1,6*%
%TO.N,/PD4*%
X111760000Y-115887500D03*
%TO.P,CI1,20*%
%TO.N,+5V*%
X119380000Y-123507500D03*
%TO.P,CI1,7*%
X111760000Y-118427500D03*
%TO.P,CI1,21*%
%TO.N,Net-(C2-Pad1)*%
X119380000Y-120967500D03*
%TO.P,CI1,8*%
%TO.N,GND*%
X111760000Y-120967500D03*
%TO.P,CI1,22*%
X119380000Y-118427500D03*
%TO.P,CI1,9*%
%TO.N,/OSC1*%
X111760000Y-123507500D03*
%TO.P,CI1,23*%
%TO.N,/PC0*%
X119380000Y-115887500D03*
%TO.P,CI1,10*%
%TO.N,/OSC2*%
X111760000Y-126047500D03*
%TO.P,CI1,24*%
%TO.N,/PC1*%
X119380000Y-113347500D03*
%TO.P,CI1,11*%
%TO.N,/PD5*%
X111760000Y-128587500D03*
%TO.P,CI1,25*%
%TO.N,/PC2*%
X119380000Y-110807500D03*
%TO.P,CI1,12*%
%TO.N,/PD6*%
X111760000Y-131127500D03*
%TO.P,CI1,26*%
%TO.N,/PC3*%
X119380000Y-108267500D03*
%TO.P,CI1,13*%
%TO.N,/PD7*%
X111760000Y-133667500D03*
%TO.P,CI1,27*%
%TO.N,/PC4*%
X119380000Y-105727500D03*
%TO.P,CI1,14*%
%TO.N,/PB0*%
X111760000Y-136207500D03*
%TO.P,CI1,28*%
%TO.N,/PC5*%
X119380000Y-103187500D03*
%TD*%
D19*
%TO.P,C2,1*%
%TO.N,Net-(C2-Pad1)*%
X129222500Y-120967500D03*
%TO.P,C2,2*%
%TO.N,GND*%
X129222500Y-118427500D03*
%TD*%
D20*
%TO.P,D1,2*%
%TO.N,+5V*%
X133667500Y-100647500D03*
D21*
%TO.P,D1,1*%
%TO.N,/~RST*%
X123507500Y-100647500D03*
%TD*%
D19*
%TO.P,C7,1*%
%TO.N,/PC0*%
X123507500Y-115887500D03*
%TO.P,C7,2*%
%TO.N,GND*%
X123507500Y-118427500D03*
%TD*%
D22*
%TO.P,J4,1*%
%TO.N,Net-(J4-Pad1)*%
X137160000Y-141922500D03*
%TD*%
%TO.P,J5,1*%
%TO.N,Net-(J5-Pad1)*%
X107315000Y-97472500D03*
%TD*%
%TO.P,J6,1*%
%TO.N,Net-(J6-Pad1)*%
X137160000Y-97472500D03*
%TD*%
%TO.P,J3,1*%
%TO.N,Net-(J3-Pad1)*%
X107315000Y-141922500D03*
%TD*%
D19*
%TO.P,C5,1*%
%TO.N,+5V*%
X123507500Y-123507500D03*
%TO.P,C5,2*%
%TO.N,GND*%
X123507500Y-120967500D03*
%TD*%
D23*
%TO.P,C6,2*%
%TO.N,GND*%
X107315000Y-134342500D03*
D17*
%TO.P,C6,1*%
%TO.N,+3.3V*%
X107315000Y-136842500D03*
%TD*%
D19*
%TO.P,C8,2*%
%TO.N,GND*%
X133667500Y-103187500D03*
%TO.P,C8,1*%
%TO.N,/~RST*%
X131127500Y-103187500D03*
%TD*%
D24*
%TO.P,LD1,2*%
%TO.N,Net-(JP1-Pad1)*%
X108585000Y-103822500D03*
%TO.P,LD1,1*%
%TO.N,GND*%
X106045000Y-103822500D03*
%TD*%
D15*
%TO.P,Mod1,1*%
%TO.N,GND*%
X126365000Y-138112500D03*
%TO.P,Mod1,2*%
%TO.N,+3.3V*%
X126365000Y-135572500D03*
%TO.P,Mod1,3*%
%TO.N,/PB1*%
X128905000Y-138112500D03*
%TO.P,Mod1,4*%
%TO.N,/PB2*%
X128905000Y-135572500D03*
%TO.P,Mod1,5*%
%TO.N,/PB5*%
X131445000Y-138112500D03*
%TO.P,Mod1,6*%
%TO.N,/PB3*%
X131445000Y-135572500D03*
%TO.P,Mod1,7*%
%TO.N,/PB4*%
X133985000Y-138112500D03*
%TO.P,Mod1,8*%
%TO.N,/PD2*%
X133985000Y-135572500D03*
%TD*%
D25*
%TO.P,P1,1*%
%TO.N,/~RST*%
X121602500Y-142240000D03*
%TO.P,P1,2*%
%TO.N,/TXD.Brd*%
X124142500Y-141605000D03*
%TO.P,P1,3*%
%TO.N,/RXD.Brd*%
X126682500Y-142240000D03*
%TO.P,P1,4*%
%TO.N,+5V*%
X129222500Y-141605000D03*
%TO.P,P1,5*%
%TO.N,GND*%
X131762500Y-142240000D03*
%TO.P,P1,6*%
X134302500Y-141605000D03*
%TD*%
D15*
%TO.P,P2,10*%
%TO.N,GND*%
X106997500Y-130810000D03*
%TO.P,P2,9*%
X106997500Y-128270000D03*
%TO.P,P2,8*%
%TO.N,+5V*%
X106997500Y-125730000D03*
%TO.P,P2,7*%
%TO.N,+3.3V*%
X106997500Y-123190000D03*
%TO.P,P2,6*%
%TO.N,/PB0*%
X106997500Y-120650000D03*
%TO.P,P2,5*%
%TO.N,/PD7*%
X106997500Y-118110000D03*
%TO.P,P2,4*%
%TO.N,/PD6*%
X106997500Y-115570000D03*
%TO.P,P2,3*%
%TO.N,/PD5*%
X106997500Y-113030000D03*
%TO.P,P2,2*%
%TO.N,/PD4*%
X106997500Y-110490000D03*
D14*
%TO.P,P2,1*%
%TO.N,/PD3*%
X106997500Y-107950000D03*
%TD*%
%TO.P,P4,1*%
%TO.N,+5V*%
X137795000Y-134937500D03*
D15*
%TO.P,P4,2*%
%TO.N,GND*%
X137795000Y-137477500D03*
%TD*%
D16*
%TO.P,R4,1*%
%TO.N,+5V*%
X128587500Y-110807500D03*
%TO.P,R4,2*%
%TO.N,/PC0*%
X123507500Y-110807500D03*
%TD*%
%TO.P,R6,2*%
%TO.N,/~RST*%
X123507500Y-103187500D03*
%TO.P,R6,1*%
%TO.N,+5V*%
X128587500Y-103187500D03*
%TD*%
%TO.P,R7,1*%
%TO.N,/PC0*%
X123507500Y-105727500D03*
%TO.P,R7,2*%
%TO.N,GND*%
X128587500Y-105727500D03*
%TD*%
%TO.P,R8,1*%
%TO.N,Net-(Q1-Pad2)*%
X128587500Y-113347500D03*
%TO.P,R8,2*%
%TO.N,/PD4*%
X123507500Y-113347500D03*
%TD*%
D26*
%TO.P,X1,1*%
%TO.N,/OSC1*%
X117475000Y-140652500D03*
%TO.P,X1,2*%
%TO.N,/OSC2*%
X112395000Y-140652500D03*
%TD*%
D16*
%TO.P,R9,1*%
%TO.N,+5V*%
X124460000Y-127317500D03*
%TO.P,R9,2*%
%TO.N,/PD3*%
X124460000Y-132397500D03*
%TD*%
D27*
%TO.N,GND*%
X132080000Y-105727500D03*
%TO.N,+3.3V*%
X127635000Y-139382500D03*
%TO.N,+5V*%
X133032500Y-126047500D03*
X133032500Y-133985000D03*
X132715000Y-140652500D03*
X130810000Y-121920000D03*
X121285000Y-116840000D03*
%TO.N,/PC0*%
X134620000Y-115887500D03*
%TO.N,/TXD.Brd*%
X115252500Y-142875000D03*
%TO.N,/PD2*%
X134302500Y-113347500D03*
%TO.N,/PB4*%
X135890000Y-128905000D03*
%TO.N,/PD3*%
X117157500Y-132397500D03*
X117157500Y-113347500D03*
X126047500Y-126047500D03*
X135890000Y-127000000D03*
%TO.N,/PB5*%
X121920000Y-140335000D03*
%TO.N,/PD4*%
X113665000Y-114935000D03*
X120967500Y-114617500D03*
%TO.N,/OSC1*%
X113347500Y-142875000D03*
%TO.N,/PC2*%
X125730000Y-109220000D03*
X126047500Y-117157500D03*
%TO.N,Net-(Q1-Pad2)*%
X132397500Y-113665000D03*
%TD*%
D28*
%TO.N,GND*%
X137795000Y-128270000D02*
X137795000Y-130810000D01*
D29*
X137795000Y-130810000D02*
X139271790Y-132286790D01*
X139271790Y-132286790D02*
X139271790Y-137270710D01*
X139065000Y-137477500D02*
X137795000Y-137477500D01*
X139271790Y-137270710D02*
X139065000Y-137477500D01*
D28*
X119380000Y-118427500D02*
X129222500Y-118427500D01*
X118110000Y-119697500D02*
X119380000Y-118427500D01*
X113982500Y-119697500D02*
X118110000Y-119697500D01*
X111760000Y-120967500D02*
X112712500Y-120967500D01*
X112712500Y-120967500D02*
X113982500Y-119697500D01*
X106680000Y-128270000D02*
X106680000Y-130810000D01*
X107315000Y-134342500D02*
X107315000Y-132715000D01*
X107315000Y-132715000D02*
X106680000Y-132080000D01*
X106680000Y-132080000D02*
X106680000Y-130810000D01*
X105304810Y-121497310D02*
X105304810Y-121491790D01*
X106045000Y-121920000D02*
X105727500Y-121920000D01*
X105727500Y-121920000D02*
X105304810Y-121497310D01*
D29*
X107632500Y-121920000D02*
X106045000Y-121920000D01*
D28*
X108267500Y-121920000D02*
X107632500Y-121920000D01*
X111760000Y-120967500D02*
X109220000Y-120967500D01*
X109220000Y-120967500D02*
X108267500Y-121920000D01*
X133667500Y-142240000D02*
X134302500Y-141605000D01*
X131762500Y-142240000D02*
X133667500Y-142240000D01*
D29*
X105203210Y-127745710D02*
X105203210Y-104664290D01*
X105203210Y-104664290D02*
X106045000Y-103822500D01*
X106680000Y-128270000D02*
X105727500Y-128270000D01*
X105727500Y-128270000D02*
X105203210Y-127745710D01*
D28*
X132080000Y-105727500D02*
X128587500Y-105727500D01*
X135890000Y-137795000D02*
X136207500Y-137477500D01*
X135890000Y-138747500D02*
X135890000Y-137795000D01*
X134302500Y-141605000D02*
X134302500Y-140335000D01*
X136207500Y-137477500D02*
X137795000Y-137477500D01*
X134302500Y-140335000D02*
X135890000Y-138747500D01*
D29*
%TO.N,Net-(C2-Pad1)*%
X119380000Y-120967500D02*
X120650000Y-120967500D01*
X120650000Y-120967500D02*
X121920000Y-122237500D01*
X121920000Y-122237500D02*
X128905000Y-122237500D01*
X128905000Y-122237500D02*
X129222500Y-121920000D01*
X129222500Y-121920000D02*
X129222500Y-120967500D01*
D28*
%TO.N,+3.3V*%
X107315000Y-137477500D02*
X107315000Y-136842500D01*
X127317500Y-139700000D02*
X125412500Y-139700000D01*
X127635000Y-139382500D02*
X127317500Y-139700000D01*
X125412500Y-139700000D02*
X124777500Y-139065000D01*
X124777500Y-139065000D02*
X108902500Y-139065000D01*
X108902500Y-139065000D02*
X107315000Y-137477500D01*
D29*
%TO.N,+5V*%
X133032500Y-126047500D02*
X133350000Y-125730000D01*
D28*
X133350000Y-125730000D02*
X137795000Y-125730000D01*
X136842500Y-133985000D02*
X137795000Y-134937500D01*
X133032500Y-133985000D02*
X136842500Y-133985000D01*
X129222500Y-141605000D02*
X130175000Y-140652500D01*
X130175000Y-140652500D02*
X132715000Y-140652500D01*
X132715000Y-140652500D02*
X132715000Y-140652500D01*
X119380000Y-123507500D02*
X123507500Y-123507500D01*
X132080000Y-123507500D02*
X133032500Y-124460000D01*
X133032500Y-124460000D02*
X133032500Y-126047500D01*
D30*
X122555000Y-101917500D02*
X124460000Y-101917500D01*
D28*
X127317500Y-101917500D02*
X128587500Y-103187500D01*
X124460000Y-101917500D02*
X127317500Y-101917500D01*
X128587500Y-103187500D02*
X128587500Y-101600000D01*
X128587500Y-101600000D02*
X129540000Y-100647500D01*
X129540000Y-100647500D02*
X133667500Y-100647500D01*
X130810000Y-122872500D02*
X131445000Y-123507500D01*
X130810000Y-121920000D02*
X130810000Y-122872500D01*
X123507500Y-123507500D02*
X131445000Y-123507500D01*
X131445000Y-123507500D02*
X132080000Y-123507500D01*
X106680000Y-125730000D02*
X107950000Y-125730000D01*
X107950000Y-125730000D02*
X108902500Y-124777500D01*
X108902500Y-124777500D02*
X110490000Y-124777500D01*
D29*
X110490000Y-124777500D02*
X113030000Y-124777500D01*
D28*
X118110000Y-124777500D02*
X119380000Y-123507500D01*
X113030000Y-124777500D02*
X118110000Y-124777500D01*
X111760000Y-118427500D02*
X116840000Y-118427500D01*
X116840000Y-118427500D02*
X118110000Y-117157500D01*
X118110000Y-117157500D02*
X118745000Y-117157500D01*
D30*
X118745000Y-117157500D02*
X120015000Y-117157500D01*
D28*
X120015000Y-117157500D02*
X120650000Y-117157500D01*
X120650000Y-117157500D02*
X120967500Y-117157500D01*
X120967500Y-117157500D02*
X121285000Y-116840000D01*
X121285000Y-116840000D02*
X121285000Y-116840000D01*
D29*
X122555000Y-101917500D02*
X121602500Y-101917500D01*
X121602500Y-101917500D02*
X121285000Y-101600000D01*
X121285000Y-101600000D02*
X121285000Y-100647500D01*
D28*
X133667500Y-100647500D02*
X134937500Y-100647500D01*
X134937500Y-100647500D02*
X135890000Y-101600000D01*
X135890000Y-101600000D02*
X137160000Y-101600000D01*
D29*
%TO.N,/PC0*%
X119380000Y-115887500D02*
X123507500Y-115887500D01*
X134620000Y-115887500D02*
X132080000Y-115887500D01*
X132080000Y-115887500D02*
X123507500Y-115887500D01*
%TO.N,/PB1*%
X127635000Y-136842500D02*
X128905000Y-138112500D01*
X119380000Y-136207500D02*
X124777500Y-136207500D01*
X125412500Y-136842500D02*
X127635000Y-136842500D01*
X124777500Y-136207500D02*
X125412500Y-136842500D01*
%TO.N,/PB2*%
X120031799Y-134319299D02*
X119380000Y-133667500D01*
X128286799Y-134319299D02*
X120031799Y-134319299D01*
X129540000Y-135572500D02*
X128286799Y-134319299D01*
%TO.N,/TXD.Brd*%
X124142500Y-141605000D02*
X124142500Y-142764290D01*
X124142500Y-142764290D02*
X123507500Y-143399290D01*
X123507500Y-143399290D02*
X122872500Y-143399290D01*
X122872500Y-143399290D02*
X122555000Y-143399290D01*
D30*
X122348210Y-143399290D02*
X122297410Y-143450090D01*
X122555000Y-143399290D02*
X122348210Y-143399290D01*
X122297410Y-143450090D02*
X120967500Y-143450090D01*
X120967500Y-143450090D02*
X120650000Y-143450090D01*
X120967500Y-143450090D02*
X120590090Y-143450090D01*
X120590090Y-143450090D02*
X120332500Y-143192500D01*
D29*
X120332500Y-143192500D02*
X115570000Y-143192500D01*
X115570000Y-143192500D02*
X115252500Y-142875000D01*
X115252500Y-142875000D02*
X115252500Y-142875000D01*
%TO.N,/PB3*%
X131445000Y-134302500D02*
X131445000Y-135572500D01*
X120650000Y-131127500D02*
X121920000Y-129857500D01*
X130175000Y-129857500D02*
X131445000Y-131127500D01*
X119380000Y-131127500D02*
X120650000Y-131127500D01*
X121920000Y-129857500D02*
X130175000Y-129857500D01*
X131445000Y-131127500D02*
X131445000Y-134302500D01*
%TO.N,/PD2*%
X112988701Y-112036201D02*
X111760000Y-110807500D01*
X134302500Y-112712500D02*
X133985000Y-112395000D01*
X134302500Y-113347500D02*
X134302500Y-112712500D01*
X133985000Y-112395000D02*
X129453478Y-112395000D01*
X129453478Y-112395000D02*
X129094679Y-112036201D01*
X129094679Y-112036201D02*
X112988701Y-112036201D01*
%TO.N,/PB4*%
X135890000Y-128905000D02*
X120967500Y-128905000D01*
X120967500Y-128905000D02*
X120650000Y-128587500D01*
X120650000Y-128587500D02*
X119380000Y-128587500D01*
%TO.N,/PD3*%
X117475000Y-132397500D02*
X117475000Y-132397500D01*
X117157500Y-132397500D02*
X122872500Y-132397500D01*
X122872500Y-132397500D02*
X124460000Y-132397500D01*
X117157500Y-113347500D02*
X111760000Y-113347500D01*
X126047500Y-126047500D02*
X126047500Y-126682500D01*
X126047500Y-126682500D02*
X126365000Y-127000000D01*
X126365000Y-127000000D02*
X135890000Y-127000000D01*
X135890000Y-127000000D02*
X135890000Y-127000000D01*
%TO.N,/PB5*%
X130826799Y-139365701D02*
X132080000Y-138112500D01*
X130492500Y-139700000D02*
X130826799Y-139365701D01*
X129301078Y-139700000D02*
X130492500Y-139700000D01*
X122237500Y-140017500D02*
X124460000Y-140017500D01*
X121920000Y-140335000D02*
X122237500Y-140017500D01*
X124460000Y-140017500D02*
X125095000Y-140652500D01*
X125095000Y-140652500D02*
X128348578Y-140652500D01*
X128348578Y-140652500D02*
X129301078Y-139700000D01*
%TO.N,/PD4*%
X113665000Y-114935000D02*
X113665000Y-114935000D01*
X113982500Y-114617500D02*
X113665000Y-114935000D01*
X120967500Y-114617500D02*
X113982500Y-114617500D01*
D28*
%TO.N,/OSC1*%
X117475000Y-140652500D02*
X115570000Y-140652500D01*
X115570000Y-140652500D02*
X113347500Y-142875000D01*
D29*
X113347500Y-142875000D02*
X113347500Y-142875000D01*
%TO.N,/PC1*%
X138747500Y-120650000D02*
X137795000Y-120650000D01*
X139271790Y-120125710D02*
X138747500Y-120650000D01*
X139271790Y-117364290D02*
X139271790Y-120125710D01*
X138747500Y-116840000D02*
X139271790Y-117364290D01*
X136207500Y-116840000D02*
X138747500Y-116840000D01*
X135890000Y-116522500D02*
X136207500Y-116840000D01*
X121285000Y-113347500D02*
X122555000Y-114617500D01*
X119380000Y-113347500D02*
X121285000Y-113347500D01*
X122555000Y-114617500D02*
X135572500Y-114617500D01*
X135572500Y-114617500D02*
X135890000Y-114935000D01*
X135890000Y-114935000D02*
X135890000Y-116522500D01*
%TO.N,/PC2*%
X119380000Y-110807500D02*
X120650000Y-110807500D01*
X120650000Y-110807500D02*
X122237500Y-109220000D01*
X122237500Y-109220000D02*
X125730000Y-109220000D01*
X125730000Y-109220000D02*
X125730000Y-109220000D01*
X126047500Y-117157500D02*
X135255000Y-117157500D01*
X136207500Y-118110000D02*
X137795000Y-118110000D01*
X135255000Y-117157500D02*
X136207500Y-118110000D01*
%TO.N,/PC3*%
X121602500Y-108267500D02*
X119380000Y-108267500D01*
X135255000Y-113347500D02*
X135255000Y-108267500D01*
X137477500Y-115570000D02*
X135255000Y-113347500D01*
X135255000Y-108267500D02*
X134937500Y-107950000D01*
X134937500Y-107950000D02*
X121920000Y-107950000D01*
X121920000Y-107950000D02*
X121602500Y-108267500D01*
%TO.N,/PC4*%
X136525000Y-113030000D02*
X137795000Y-113030000D01*
X136207500Y-112712500D02*
X136525000Y-113030000D01*
X120967500Y-105727500D02*
X122237500Y-106997500D01*
X136207500Y-107632500D02*
X136207500Y-112712500D01*
X119380000Y-105727500D02*
X120967500Y-105727500D01*
X122237500Y-106997500D02*
X135572500Y-106997500D01*
X135572500Y-106997500D02*
X136207500Y-107632500D01*
%TO.N,/PC5*%
X138747500Y-110490000D02*
X137477500Y-110490000D01*
X139065000Y-110172500D02*
X138747500Y-110490000D01*
X139065000Y-106680000D02*
X139065000Y-110172500D01*
X138747500Y-106362500D02*
X139065000Y-106680000D01*
X134620000Y-106362500D02*
X138747500Y-106362500D01*
X133032500Y-104775000D02*
X134620000Y-106362500D01*
X120967500Y-103187500D02*
X122237500Y-104457500D01*
X119380000Y-103187500D02*
X120967500Y-103187500D01*
X122237500Y-104457500D02*
X130175000Y-104457500D01*
X130175000Y-104457500D02*
X130492500Y-104775000D01*
X130492500Y-104775000D02*
X133032500Y-104775000D01*
%TO.N,Net-(Q1-Pad2)*%
X128587500Y-113347500D02*
X132080000Y-113347500D01*
X132080000Y-113347500D02*
X132397500Y-113665000D01*
X132397500Y-113665000D02*
X132397500Y-113665000D01*
%TD*%
M02*
