%TF.GenerationSoftware,KiCad,Pcbnew,(5.1.6)-1*%
%TF.CreationDate,2022-03-13T12:34:37-03:00*%
%TF.ProjectId,nRF24L01_Arduino_v2,6e524632-344c-4303-915f-41726475696e,rev?*%
%TF.SameCoordinates,Original*%
%TF.FileFunction,Legend,Bot*%
%TF.FilePolarity,Positive*%
%FSLAX46Y46*%
G04 Gerber Fmt 4.6, Leading zero omitted, Abs format (unit mm)*
G04 Created by KiCad (PCBNEW (5.1.6)-1) date 2022-03-13 12:34:37*
%MOMM*%
%LPD*%
G01*
G04 APERTURE LIST*
%ADD10C,0.150000*%
%ADD11C,0.228600*%
%ADD12C,0.010000*%
G04 APERTURE END LIST*
D10*
X135969695Y-110688266D02*
X135618933Y-110688266D01*
X136039847Y-110898723D02*
X135794314Y-110162123D01*
X135548780Y-110898723D01*
X134952485Y-110162123D02*
X135303247Y-110162123D01*
X135338323Y-110512885D01*
X135303247Y-110477809D01*
X135233095Y-110442733D01*
X135057714Y-110442733D01*
X134987561Y-110477809D01*
X134952485Y-110512885D01*
X134917409Y-110583038D01*
X134917409Y-110758419D01*
X134952485Y-110828571D01*
X134987561Y-110863647D01*
X135057714Y-110898723D01*
X135233095Y-110898723D01*
X135303247Y-110863647D01*
X135338323Y-110828571D01*
X135969695Y-113198066D02*
X135618933Y-113198066D01*
X136039847Y-113408523D02*
X135794314Y-112671923D01*
X135548780Y-113408523D01*
X134987561Y-112917457D02*
X134987561Y-113408523D01*
X135162942Y-112636847D02*
X135338323Y-113162990D01*
X134882333Y-113162990D01*
X135969695Y-115707866D02*
X135618933Y-115707866D01*
X136039847Y-115918323D02*
X135794314Y-115181723D01*
X135548780Y-115918323D01*
X135373400Y-115181723D02*
X134917409Y-115181723D01*
X135162942Y-115462333D01*
X135057714Y-115462333D01*
X134987561Y-115497409D01*
X134952485Y-115532485D01*
X134917409Y-115602638D01*
X134917409Y-115778019D01*
X134952485Y-115848171D01*
X134987561Y-115883247D01*
X135057714Y-115918323D01*
X135268171Y-115918323D01*
X135338323Y-115883247D01*
X135373400Y-115848171D01*
X135969695Y-118217666D02*
X135618933Y-118217666D01*
X136039847Y-118428123D02*
X135794314Y-117691523D01*
X135548780Y-118428123D01*
X135338323Y-117761676D02*
X135303247Y-117726600D01*
X135233095Y-117691523D01*
X135057714Y-117691523D01*
X134987561Y-117726600D01*
X134952485Y-117761676D01*
X134917409Y-117831828D01*
X134917409Y-117901980D01*
X134952485Y-118007209D01*
X135373400Y-118428123D01*
X134917409Y-118428123D01*
X135969695Y-120727466D02*
X135618933Y-120727466D01*
X136039847Y-120937923D02*
X135794314Y-120201323D01*
X135548780Y-120937923D01*
X134917409Y-120937923D02*
X135338323Y-120937923D01*
X135127866Y-120937923D02*
X135127866Y-120201323D01*
X135198019Y-120306552D01*
X135268171Y-120376704D01*
X135338323Y-120411780D01*
X135969695Y-123237266D02*
X135618933Y-123237266D01*
X136039847Y-123447723D02*
X135794314Y-122711123D01*
X135548780Y-123447723D01*
X135162942Y-122711123D02*
X135092790Y-122711123D01*
X135022638Y-122746200D01*
X134987561Y-122781276D01*
X134952485Y-122851428D01*
X134917409Y-122991733D01*
X134917409Y-123167114D01*
X134952485Y-123307419D01*
X134987561Y-123377571D01*
X135022638Y-123412647D01*
X135092790Y-123447723D01*
X135162942Y-123447723D01*
X135233095Y-123412647D01*
X135268171Y-123377571D01*
X135303247Y-123307419D01*
X135338323Y-123167114D01*
X135338323Y-122991733D01*
X135303247Y-122851428D01*
X135268171Y-122781276D01*
X135233095Y-122746200D01*
X135162942Y-122711123D01*
X135521700Y-137321471D02*
X135486623Y-137251319D01*
X135486623Y-137146090D01*
X135521700Y-137040861D01*
X135591852Y-136970709D01*
X135662004Y-136935633D01*
X135802309Y-136900557D01*
X135907538Y-136900557D01*
X136047842Y-136935633D01*
X136117995Y-136970709D01*
X136188147Y-137040861D01*
X136223223Y-137146090D01*
X136223223Y-137216242D01*
X136188147Y-137321471D01*
X136153071Y-137356547D01*
X135907538Y-137356547D01*
X135907538Y-137216242D01*
X135732157Y-137672233D02*
X136223223Y-137672233D01*
X135802309Y-137672233D02*
X135767233Y-137707309D01*
X135732157Y-137777461D01*
X135732157Y-137882690D01*
X135767233Y-137952842D01*
X135837385Y-137987919D01*
X136223223Y-137987919D01*
X136223223Y-138654366D02*
X135486623Y-138654366D01*
X136188147Y-138654366D02*
X136223223Y-138584214D01*
X136223223Y-138443909D01*
X136188147Y-138373757D01*
X136153071Y-138338680D01*
X136082919Y-138303604D01*
X135872461Y-138303604D01*
X135802309Y-138338680D01*
X135767233Y-138373757D01*
X135732157Y-138443909D01*
X135732157Y-138584214D01*
X135767233Y-138654366D01*
X135942614Y-133672942D02*
X135942614Y-134234161D01*
X136223223Y-133953552D02*
X135662004Y-133953552D01*
X135486623Y-134935685D02*
X135486623Y-134584923D01*
X135837385Y-134549847D01*
X135802309Y-134584923D01*
X135767233Y-134655076D01*
X135767233Y-134830457D01*
X135802309Y-134900609D01*
X135837385Y-134935685D01*
X135907538Y-134970761D01*
X136082919Y-134970761D01*
X136153071Y-134935685D01*
X136188147Y-134900609D01*
X136223223Y-134830457D01*
X136223223Y-134655076D01*
X136188147Y-134584923D01*
X136153071Y-134549847D01*
X135486623Y-135181219D02*
X136223223Y-135426752D01*
X135486623Y-135672285D01*
X135547704Y-108283223D02*
X135793238Y-107932461D01*
X135968619Y-108283223D02*
X135968619Y-107546623D01*
X135688009Y-107546623D01*
X135617857Y-107581700D01*
X135582780Y-107616776D01*
X135547704Y-107686928D01*
X135547704Y-107792157D01*
X135582780Y-107862309D01*
X135617857Y-107897385D01*
X135688009Y-107932461D01*
X135968619Y-107932461D01*
X134881257Y-108283223D02*
X135232019Y-108283223D01*
X135232019Y-107546623D01*
X134635723Y-108002614D02*
X134074504Y-108002614D01*
X133723742Y-108283223D02*
X133723742Y-107546623D01*
X133548361Y-107546623D01*
X133443133Y-107581700D01*
X133372980Y-107651852D01*
X133337904Y-107722004D01*
X133302828Y-107862309D01*
X133302828Y-107967538D01*
X133337904Y-108107842D01*
X133372980Y-108177995D01*
X133443133Y-108248147D01*
X133548361Y-108283223D01*
X133723742Y-108283223D01*
X132671457Y-107792157D02*
X132671457Y-108283223D01*
X132846838Y-107511547D02*
X133022219Y-108037690D01*
X132566228Y-108037690D01*
X135520623Y-125812814D02*
X134959404Y-125812814D01*
X135240014Y-126093423D02*
X135240014Y-125532204D01*
X134257880Y-125356823D02*
X134608642Y-125356823D01*
X134643719Y-125707585D01*
X134608642Y-125672509D01*
X134538490Y-125637433D01*
X134363109Y-125637433D01*
X134292957Y-125672509D01*
X134257880Y-125707585D01*
X134222804Y-125777738D01*
X134222804Y-125953119D01*
X134257880Y-126023271D01*
X134292957Y-126058347D01*
X134363109Y-126093423D01*
X134538490Y-126093423D01*
X134608642Y-126058347D01*
X134643719Y-126023271D01*
X135590776Y-127901700D02*
X135660928Y-127866623D01*
X135766157Y-127866623D01*
X135871385Y-127901700D01*
X135941538Y-127971852D01*
X135976614Y-128042004D01*
X136011690Y-128182309D01*
X136011690Y-128287538D01*
X135976614Y-128427842D01*
X135941538Y-128497995D01*
X135871385Y-128568147D01*
X135766157Y-128603223D01*
X135696004Y-128603223D01*
X135590776Y-128568147D01*
X135555700Y-128533071D01*
X135555700Y-128287538D01*
X135696004Y-128287538D01*
X135240014Y-128112157D02*
X135240014Y-128603223D01*
X135240014Y-128182309D02*
X135204938Y-128147233D01*
X135134785Y-128112157D01*
X135029557Y-128112157D01*
X134959404Y-128147233D01*
X134924328Y-128217385D01*
X134924328Y-128603223D01*
X134257880Y-128603223D02*
X134257880Y-127866623D01*
X134257880Y-128568147D02*
X134328033Y-128603223D01*
X134468338Y-128603223D01*
X134538490Y-128568147D01*
X134573566Y-128533071D01*
X134608642Y-128462919D01*
X134608642Y-128252461D01*
X134573566Y-128182309D01*
X134538490Y-128147233D01*
X134468338Y-128112157D01*
X134328033Y-128112157D01*
X134257880Y-128147233D01*
X135590776Y-130411500D02*
X135660928Y-130376423D01*
X135766157Y-130376423D01*
X135871385Y-130411500D01*
X135941538Y-130481652D01*
X135976614Y-130551804D01*
X136011690Y-130692109D01*
X136011690Y-130797338D01*
X135976614Y-130937642D01*
X135941538Y-131007795D01*
X135871385Y-131077947D01*
X135766157Y-131113023D01*
X135696004Y-131113023D01*
X135590776Y-131077947D01*
X135555700Y-131042871D01*
X135555700Y-130797338D01*
X135696004Y-130797338D01*
X135240014Y-130621957D02*
X135240014Y-131113023D01*
X135240014Y-130692109D02*
X135204938Y-130657033D01*
X135134785Y-130621957D01*
X135029557Y-130621957D01*
X134959404Y-130657033D01*
X134924328Y-130727185D01*
X134924328Y-131113023D01*
X134257880Y-131113023D02*
X134257880Y-130376423D01*
X134257880Y-131077947D02*
X134328033Y-131113023D01*
X134468338Y-131113023D01*
X134538490Y-131077947D01*
X134573566Y-131042871D01*
X134608642Y-130972719D01*
X134608642Y-130762261D01*
X134573566Y-130692109D01*
X134538490Y-130657033D01*
X134468338Y-130621957D01*
X134328033Y-130621957D01*
X134257880Y-130657033D01*
X110456019Y-123287914D02*
X109894800Y-123287914D01*
X110175409Y-123568523D02*
X110175409Y-123007304D01*
X109614190Y-122831923D02*
X109158200Y-122831923D01*
X109403733Y-123112533D01*
X109298504Y-123112533D01*
X109228352Y-123147609D01*
X109193276Y-123182685D01*
X109158200Y-123252838D01*
X109158200Y-123428219D01*
X109193276Y-123498371D01*
X109228352Y-123533447D01*
X109298504Y-123568523D01*
X109508961Y-123568523D01*
X109579114Y-123533447D01*
X109614190Y-123498371D01*
X108947742Y-122831923D02*
X108702209Y-123568523D01*
X108456676Y-122831923D01*
X108281295Y-122831923D02*
X107825304Y-122831923D01*
X108070838Y-123112533D01*
X107965609Y-123112533D01*
X107895457Y-123147609D01*
X107860380Y-123182685D01*
X107825304Y-123252838D01*
X107825304Y-123428219D01*
X107860380Y-123498371D01*
X107895457Y-123533447D01*
X107965609Y-123568523D01*
X108176066Y-123568523D01*
X108246219Y-123533447D01*
X108281295Y-123498371D01*
X110456019Y-125797714D02*
X109894800Y-125797714D01*
X110175409Y-126078323D02*
X110175409Y-125517104D01*
X109193276Y-125341723D02*
X109544038Y-125341723D01*
X109579114Y-125692485D01*
X109544038Y-125657409D01*
X109473885Y-125622333D01*
X109298504Y-125622333D01*
X109228352Y-125657409D01*
X109193276Y-125692485D01*
X109158200Y-125762638D01*
X109158200Y-125938019D01*
X109193276Y-126008171D01*
X109228352Y-126043247D01*
X109298504Y-126078323D01*
X109473885Y-126078323D01*
X109544038Y-126043247D01*
X109579114Y-126008171D01*
X108947742Y-125341723D02*
X108702209Y-126078323D01*
X108456676Y-125341723D01*
X110070180Y-127886600D02*
X110140333Y-127851523D01*
X110245561Y-127851523D01*
X110350790Y-127886600D01*
X110420942Y-127956752D01*
X110456019Y-128026904D01*
X110491095Y-128167209D01*
X110491095Y-128272438D01*
X110456019Y-128412742D01*
X110420942Y-128482895D01*
X110350790Y-128553047D01*
X110245561Y-128588123D01*
X110175409Y-128588123D01*
X110070180Y-128553047D01*
X110035104Y-128517971D01*
X110035104Y-128272438D01*
X110175409Y-128272438D01*
X109719419Y-128097057D02*
X109719419Y-128588123D01*
X109719419Y-128167209D02*
X109684342Y-128132133D01*
X109614190Y-128097057D01*
X109508961Y-128097057D01*
X109438809Y-128132133D01*
X109403733Y-128202285D01*
X109403733Y-128588123D01*
X108737285Y-128588123D02*
X108737285Y-127851523D01*
X108737285Y-128553047D02*
X108807438Y-128588123D01*
X108947742Y-128588123D01*
X109017895Y-128553047D01*
X109052971Y-128517971D01*
X109088047Y-128447819D01*
X109088047Y-128237361D01*
X109052971Y-128167209D01*
X109017895Y-128132133D01*
X108947742Y-128097057D01*
X108807438Y-128097057D01*
X108737285Y-128132133D01*
X110070180Y-130396400D02*
X110140333Y-130361323D01*
X110245561Y-130361323D01*
X110350790Y-130396400D01*
X110420942Y-130466552D01*
X110456019Y-130536704D01*
X110491095Y-130677009D01*
X110491095Y-130782238D01*
X110456019Y-130922542D01*
X110420942Y-130992695D01*
X110350790Y-131062847D01*
X110245561Y-131097923D01*
X110175409Y-131097923D01*
X110070180Y-131062847D01*
X110035104Y-131027771D01*
X110035104Y-130782238D01*
X110175409Y-130782238D01*
X109719419Y-130606857D02*
X109719419Y-131097923D01*
X109719419Y-130677009D02*
X109684342Y-130641933D01*
X109614190Y-130606857D01*
X109508961Y-130606857D01*
X109438809Y-130641933D01*
X109403733Y-130712085D01*
X109403733Y-131097923D01*
X108737285Y-131097923D02*
X108737285Y-130361323D01*
X108737285Y-131062847D02*
X108807438Y-131097923D01*
X108947742Y-131097923D01*
X109017895Y-131062847D01*
X109052971Y-131027771D01*
X109088047Y-130957619D01*
X109088047Y-130747161D01*
X109052971Y-130677009D01*
X109017895Y-130641933D01*
X108947742Y-130606857D01*
X108807438Y-130606857D01*
X108737285Y-130641933D01*
X109446180Y-108366273D02*
X109446180Y-107629673D01*
X109270800Y-107629673D01*
X109165571Y-107664750D01*
X109095419Y-107734902D01*
X109060342Y-107805054D01*
X109025266Y-107945359D01*
X109025266Y-108050588D01*
X109060342Y-108190892D01*
X109095419Y-108261045D01*
X109165571Y-108331197D01*
X109270800Y-108366273D01*
X109446180Y-108366273D01*
X108779733Y-107629673D02*
X108323742Y-107629673D01*
X108569276Y-107910283D01*
X108464047Y-107910283D01*
X108393895Y-107945359D01*
X108358819Y-107980435D01*
X108323742Y-108050588D01*
X108323742Y-108225969D01*
X108358819Y-108296121D01*
X108393895Y-108331197D01*
X108464047Y-108366273D01*
X108674504Y-108366273D01*
X108744657Y-108331197D01*
X108779733Y-108296121D01*
X109446180Y-110876073D02*
X109446180Y-110139473D01*
X109270800Y-110139473D01*
X109165571Y-110174550D01*
X109095419Y-110244702D01*
X109060342Y-110314854D01*
X109025266Y-110455159D01*
X109025266Y-110560388D01*
X109060342Y-110700692D01*
X109095419Y-110770845D01*
X109165571Y-110840997D01*
X109270800Y-110876073D01*
X109446180Y-110876073D01*
X108393895Y-110385007D02*
X108393895Y-110876073D01*
X108569276Y-110104397D02*
X108744657Y-110630540D01*
X108288666Y-110630540D01*
X109446180Y-113385873D02*
X109446180Y-112649273D01*
X109270800Y-112649273D01*
X109165571Y-112684350D01*
X109095419Y-112754502D01*
X109060342Y-112824654D01*
X109025266Y-112964959D01*
X109025266Y-113070188D01*
X109060342Y-113210492D01*
X109095419Y-113280645D01*
X109165571Y-113350797D01*
X109270800Y-113385873D01*
X109446180Y-113385873D01*
X108358819Y-112649273D02*
X108709580Y-112649273D01*
X108744657Y-113000035D01*
X108709580Y-112964959D01*
X108639428Y-112929883D01*
X108464047Y-112929883D01*
X108393895Y-112964959D01*
X108358819Y-113000035D01*
X108323742Y-113070188D01*
X108323742Y-113245569D01*
X108358819Y-113315721D01*
X108393895Y-113350797D01*
X108464047Y-113385873D01*
X108639428Y-113385873D01*
X108709580Y-113350797D01*
X108744657Y-113315721D01*
X109446180Y-115895673D02*
X109446180Y-115159073D01*
X109270800Y-115159073D01*
X109165571Y-115194150D01*
X109095419Y-115264302D01*
X109060342Y-115334454D01*
X109025266Y-115474759D01*
X109025266Y-115579988D01*
X109060342Y-115720292D01*
X109095419Y-115790445D01*
X109165571Y-115860597D01*
X109270800Y-115895673D01*
X109446180Y-115895673D01*
X108393895Y-115159073D02*
X108534200Y-115159073D01*
X108604352Y-115194150D01*
X108639428Y-115229226D01*
X108709580Y-115334454D01*
X108744657Y-115474759D01*
X108744657Y-115755369D01*
X108709580Y-115825521D01*
X108674504Y-115860597D01*
X108604352Y-115895673D01*
X108464047Y-115895673D01*
X108393895Y-115860597D01*
X108358819Y-115825521D01*
X108323742Y-115755369D01*
X108323742Y-115579988D01*
X108358819Y-115509835D01*
X108393895Y-115474759D01*
X108464047Y-115439683D01*
X108604352Y-115439683D01*
X108674504Y-115474759D01*
X108709580Y-115509835D01*
X108744657Y-115579988D01*
X109446180Y-118405473D02*
X109446180Y-117668873D01*
X109270800Y-117668873D01*
X109165571Y-117703950D01*
X109095419Y-117774102D01*
X109060342Y-117844254D01*
X109025266Y-117984559D01*
X109025266Y-118089788D01*
X109060342Y-118230092D01*
X109095419Y-118300245D01*
X109165571Y-118370397D01*
X109270800Y-118405473D01*
X109446180Y-118405473D01*
X108779733Y-117668873D02*
X108288666Y-117668873D01*
X108604352Y-118405473D01*
X109446180Y-120915273D02*
X109446180Y-120178673D01*
X109270800Y-120178673D01*
X109165571Y-120213750D01*
X109095419Y-120283902D01*
X109060342Y-120354054D01*
X109025266Y-120494359D01*
X109025266Y-120599588D01*
X109060342Y-120739892D01*
X109095419Y-120810045D01*
X109165571Y-120880197D01*
X109270800Y-120915273D01*
X109446180Y-120915273D01*
X108604352Y-120494359D02*
X108674504Y-120459283D01*
X108709580Y-120424207D01*
X108744657Y-120354054D01*
X108744657Y-120318978D01*
X108709580Y-120248826D01*
X108674504Y-120213750D01*
X108604352Y-120178673D01*
X108464047Y-120178673D01*
X108393895Y-120213750D01*
X108358819Y-120248826D01*
X108323742Y-120318978D01*
X108323742Y-120354054D01*
X108358819Y-120424207D01*
X108393895Y-120459283D01*
X108464047Y-120494359D01*
X108604352Y-120494359D01*
X108674504Y-120529435D01*
X108709580Y-120564511D01*
X108744657Y-120634664D01*
X108744657Y-120774969D01*
X108709580Y-120845121D01*
X108674504Y-120880197D01*
X108604352Y-120915273D01*
X108464047Y-120915273D01*
X108393895Y-120880197D01*
X108358819Y-120845121D01*
X108323742Y-120774969D01*
X108323742Y-120634664D01*
X108358819Y-120564511D01*
X108393895Y-120529435D01*
X108464047Y-120494359D01*
D11*
X116636800Y-137074910D02*
X117348000Y-137074910D01*
X117246400Y-137074910D02*
X117297200Y-137024110D01*
X117348000Y-136922510D01*
X117348000Y-136770110D01*
X117297200Y-136668510D01*
X117195600Y-136617710D01*
X116636800Y-136617710D01*
X117195600Y-136617710D02*
X117297200Y-136566910D01*
X117348000Y-136465310D01*
X117348000Y-136312910D01*
X117297200Y-136211310D01*
X117195600Y-136160510D01*
X116636800Y-136160510D01*
X116636800Y-135195310D02*
X117195600Y-135195310D01*
X117297200Y-135246110D01*
X117348000Y-135347710D01*
X117348000Y-135550910D01*
X117297200Y-135652510D01*
X116687600Y-135195310D02*
X116636800Y-135296910D01*
X116636800Y-135550910D01*
X116687600Y-135652510D01*
X116789200Y-135703310D01*
X116890800Y-135703310D01*
X116992400Y-135652510D01*
X117043200Y-135550910D01*
X117043200Y-135296910D01*
X117094000Y-135195310D01*
X116636800Y-134230110D02*
X117703600Y-134230110D01*
X116687600Y-134230110D02*
X116636800Y-134331710D01*
X116636800Y-134534910D01*
X116687600Y-134636510D01*
X116738400Y-134687310D01*
X116840000Y-134738110D01*
X117144800Y-134738110D01*
X117246400Y-134687310D01*
X117297200Y-134636510D01*
X117348000Y-134534910D01*
X117348000Y-134331710D01*
X117297200Y-134230110D01*
X116687600Y-133315710D02*
X116636800Y-133417310D01*
X116636800Y-133620510D01*
X116687600Y-133722110D01*
X116789200Y-133772910D01*
X117195600Y-133772910D01*
X117297200Y-133722110D01*
X117348000Y-133620510D01*
X117348000Y-133417310D01*
X117297200Y-133315710D01*
X117195600Y-133264910D01*
X117094000Y-133264910D01*
X116992400Y-133772910D01*
X117348000Y-132147310D02*
X117348000Y-131740910D01*
X116636800Y-131994910D02*
X117551200Y-131994910D01*
X117652800Y-131944110D01*
X117703600Y-131842510D01*
X117703600Y-131740910D01*
X116636800Y-131232910D02*
X116687600Y-131334510D01*
X116738400Y-131385310D01*
X116840000Y-131436110D01*
X117144800Y-131436110D01*
X117246400Y-131385310D01*
X117297200Y-131334510D01*
X117348000Y-131232910D01*
X117348000Y-131080510D01*
X117297200Y-130978910D01*
X117246400Y-130928110D01*
X117144800Y-130877310D01*
X116840000Y-130877310D01*
X116738400Y-130928110D01*
X116687600Y-130978910D01*
X116636800Y-131080510D01*
X116636800Y-131232910D01*
X116636800Y-130420110D02*
X117348000Y-130420110D01*
X117144800Y-130420110D02*
X117246400Y-130369310D01*
X117297200Y-130318510D01*
X117348000Y-130216910D01*
X117348000Y-130115310D01*
X114808000Y-137074910D02*
X115874800Y-137074910D01*
X115112800Y-136719310D01*
X115874800Y-136363710D01*
X114808000Y-136363710D01*
X115519200Y-135957310D02*
X114808000Y-135703310D01*
X115519200Y-135449310D02*
X114808000Y-135703310D01*
X114554000Y-135804910D01*
X114503200Y-135855710D01*
X114452400Y-135957310D01*
X114858800Y-135093710D02*
X114808000Y-134941310D01*
X114808000Y-134687310D01*
X114858800Y-134585710D01*
X114909600Y-134534910D01*
X115011200Y-134484110D01*
X115112800Y-134484110D01*
X115214400Y-134534910D01*
X115265200Y-134585710D01*
X115316000Y-134687310D01*
X115366800Y-134890510D01*
X115417600Y-134992110D01*
X115468400Y-135042910D01*
X115570000Y-135093710D01*
X115671600Y-135093710D01*
X115773200Y-135042910D01*
X115824000Y-134992110D01*
X115874800Y-134890510D01*
X115874800Y-134636510D01*
X115824000Y-134484110D01*
X114858800Y-133620510D02*
X114808000Y-133722110D01*
X114808000Y-133925310D01*
X114858800Y-134026910D01*
X114960400Y-134077710D01*
X115366800Y-134077710D01*
X115468400Y-134026910D01*
X115519200Y-133925310D01*
X115519200Y-133722110D01*
X115468400Y-133620510D01*
X115366800Y-133569710D01*
X115265200Y-133569710D01*
X115163600Y-134077710D01*
X115519200Y-133112510D02*
X114808000Y-133112510D01*
X115417600Y-133112510D02*
X115468400Y-133061710D01*
X115519200Y-132960110D01*
X115519200Y-132807710D01*
X115468400Y-132706110D01*
X115366800Y-132655310D01*
X114808000Y-132655310D01*
X114858800Y-132198110D02*
X114808000Y-132096510D01*
X114808000Y-131893310D01*
X114858800Y-131791710D01*
X114960400Y-131740910D01*
X115011200Y-131740910D01*
X115112800Y-131791710D01*
X115163600Y-131893310D01*
X115163600Y-132045710D01*
X115214400Y-132147310D01*
X115316000Y-132198110D01*
X115366800Y-132198110D01*
X115468400Y-132147310D01*
X115519200Y-132045710D01*
X115519200Y-131893310D01*
X115468400Y-131791710D01*
X114808000Y-131131310D02*
X114858800Y-131232910D01*
X114909600Y-131283710D01*
X115011200Y-131334510D01*
X115316000Y-131334510D01*
X115417600Y-131283710D01*
X115468400Y-131232910D01*
X115519200Y-131131310D01*
X115519200Y-130978910D01*
X115468400Y-130877310D01*
X115417600Y-130826510D01*
X115316000Y-130775710D01*
X115011200Y-130775710D01*
X114909600Y-130826510D01*
X114858800Y-130877310D01*
X114808000Y-130978910D01*
X114808000Y-131131310D01*
X114808000Y-130318510D02*
X115519200Y-130318510D01*
X115316000Y-130318510D02*
X115417600Y-130267710D01*
X115468400Y-130216910D01*
X115519200Y-130115310D01*
X115519200Y-130013710D01*
X114858800Y-129708910D02*
X114808000Y-129607310D01*
X114808000Y-129404110D01*
X114858800Y-129302510D01*
X114960400Y-129251710D01*
X115011200Y-129251710D01*
X115112800Y-129302510D01*
X115163600Y-129404110D01*
X115163600Y-129556510D01*
X115214400Y-129658110D01*
X115316000Y-129708910D01*
X115366800Y-129708910D01*
X115468400Y-129658110D01*
X115519200Y-129556510D01*
X115519200Y-129404110D01*
X115468400Y-129302510D01*
X114808000Y-127981710D02*
X115874800Y-127981710D01*
X114808000Y-127321310D02*
X114858800Y-127422910D01*
X114909600Y-127473710D01*
X115011200Y-127524510D01*
X115316000Y-127524510D01*
X115417600Y-127473710D01*
X115468400Y-127422910D01*
X115519200Y-127321310D01*
X115519200Y-127168910D01*
X115468400Y-127067310D01*
X115417600Y-127016510D01*
X115316000Y-126965710D01*
X115011200Y-126965710D01*
X114909600Y-127016510D01*
X114858800Y-127067310D01*
X114808000Y-127168910D01*
X114808000Y-127321310D01*
X115874800Y-126660910D02*
X115874800Y-126051310D01*
X114808000Y-126356110D02*
X115874800Y-126356110D01*
X114808000Y-124019310D02*
X114808000Y-124070110D01*
X114858800Y-124171710D01*
X115011200Y-124324110D01*
X115316000Y-124578110D01*
X115468400Y-124679710D01*
X115620800Y-124730510D01*
X115722400Y-124730510D01*
X115824000Y-124679710D01*
X115874800Y-124578110D01*
X115874800Y-124527310D01*
X115824000Y-124425710D01*
X115722400Y-124374910D01*
X115671600Y-124374910D01*
X115570000Y-124425710D01*
X115519200Y-124476510D01*
X115316000Y-124781310D01*
X115265200Y-124832110D01*
X115163600Y-124882910D01*
X115011200Y-124882910D01*
X114909600Y-124832110D01*
X114858800Y-124781310D01*
X114808000Y-124679710D01*
X114808000Y-124527310D01*
X114858800Y-124425710D01*
X114909600Y-124374910D01*
X115112800Y-124222510D01*
X115265200Y-124171710D01*
X115366800Y-124171710D01*
X114808000Y-122749310D02*
X115874800Y-122749310D01*
X115874800Y-122495310D01*
X115824000Y-122342910D01*
X115722400Y-122241310D01*
X115620800Y-122190510D01*
X115417600Y-122139710D01*
X115265200Y-122139710D01*
X115062000Y-122190510D01*
X114960400Y-122241310D01*
X114858800Y-122342910D01*
X114808000Y-122495310D01*
X114808000Y-122749310D01*
X114808000Y-121530110D02*
X114858800Y-121631710D01*
X114909600Y-121682510D01*
X115011200Y-121733310D01*
X115316000Y-121733310D01*
X115417600Y-121682510D01*
X115468400Y-121631710D01*
X115519200Y-121530110D01*
X115519200Y-121377710D01*
X115468400Y-121276110D01*
X115417600Y-121225310D01*
X115316000Y-121174510D01*
X115011200Y-121174510D01*
X114909600Y-121225310D01*
X114858800Y-121276110D01*
X114808000Y-121377710D01*
X114808000Y-121530110D01*
X114808000Y-120717310D02*
X115519200Y-120717310D01*
X115417600Y-120717310D02*
X115468400Y-120666510D01*
X115519200Y-120564910D01*
X115519200Y-120412510D01*
X115468400Y-120310910D01*
X115366800Y-120260110D01*
X114808000Y-120260110D01*
X115366800Y-120260110D02*
X115468400Y-120209310D01*
X115519200Y-120107710D01*
X115519200Y-119955310D01*
X115468400Y-119853710D01*
X115366800Y-119802910D01*
X114808000Y-119802910D01*
X114808000Y-119142510D02*
X114858800Y-119244110D01*
X114909600Y-119294910D01*
X115011200Y-119345710D01*
X115316000Y-119345710D01*
X115417600Y-119294910D01*
X115468400Y-119244110D01*
X115519200Y-119142510D01*
X115519200Y-118990110D01*
X115468400Y-118888510D01*
X115417600Y-118837710D01*
X115316000Y-118786910D01*
X115011200Y-118786910D01*
X114909600Y-118837710D01*
X114858800Y-118888510D01*
X114808000Y-118990110D01*
X114808000Y-119142510D01*
X115519200Y-118482110D02*
X115519200Y-118075710D01*
X115874800Y-118329710D02*
X114960400Y-118329710D01*
X114858800Y-118278910D01*
X114808000Y-118177310D01*
X114808000Y-118075710D01*
X114808000Y-117720110D02*
X115519200Y-117720110D01*
X115874800Y-117720110D02*
X115824000Y-117770910D01*
X115773200Y-117720110D01*
X115824000Y-117669310D01*
X115874800Y-117720110D01*
X115773200Y-117720110D01*
X114858800Y-116754910D02*
X114808000Y-116856510D01*
X114808000Y-117059710D01*
X114858800Y-117161310D01*
X114909600Y-117212110D01*
X115011200Y-117262910D01*
X115316000Y-117262910D01*
X115417600Y-117212110D01*
X115468400Y-117161310D01*
X115519200Y-117059710D01*
X115519200Y-116856510D01*
X115468400Y-116754910D01*
X115519200Y-116399310D02*
X115519200Y-115840510D01*
X114808000Y-116399310D01*
X114808000Y-115840510D01*
X123304300Y-136122410D02*
X124371100Y-136122410D01*
X123964700Y-136122410D02*
X124015500Y-136020810D01*
X124015500Y-135817610D01*
X123964700Y-135716010D01*
X123913900Y-135665210D01*
X123812300Y-135614410D01*
X123507500Y-135614410D01*
X123405900Y-135665210D01*
X123355100Y-135716010D01*
X123304300Y-135817610D01*
X123304300Y-136020810D01*
X123355100Y-136122410D01*
X124015500Y-135258810D02*
X123304300Y-135004810D01*
X124015500Y-134750810D02*
X123304300Y-135004810D01*
X123050300Y-135106410D01*
X122999500Y-135157210D01*
X122948700Y-135258810D01*
X122186700Y-136224010D02*
X121475500Y-136020810D01*
X121983500Y-135817610D01*
X121475500Y-135614410D01*
X122186700Y-135411210D01*
X122186700Y-135106410D02*
X121475500Y-134903210D01*
X121983500Y-134700010D01*
X121475500Y-134496810D01*
X122186700Y-134293610D01*
X122186700Y-133988810D02*
X121475500Y-133785610D01*
X121983500Y-133582410D01*
X121475500Y-133379210D01*
X122186700Y-133176010D01*
X121577100Y-132769610D02*
X121526300Y-132718810D01*
X121475500Y-132769610D01*
X121526300Y-132820410D01*
X121577100Y-132769610D01*
X121475500Y-132769610D01*
X121475500Y-132261610D02*
X122186700Y-132261610D01*
X122085100Y-132261610D02*
X122135900Y-132210810D01*
X122186700Y-132109210D01*
X122186700Y-131956810D01*
X122135900Y-131855210D01*
X122034300Y-131804410D01*
X121475500Y-131804410D01*
X122034300Y-131804410D02*
X122135900Y-131753610D01*
X122186700Y-131652010D01*
X122186700Y-131499610D01*
X122135900Y-131398010D01*
X122034300Y-131347210D01*
X121475500Y-131347210D01*
X121475500Y-130382010D02*
X122034300Y-130382010D01*
X122135900Y-130432810D01*
X122186700Y-130534410D01*
X122186700Y-130737610D01*
X122135900Y-130839210D01*
X121526300Y-130382010D02*
X121475500Y-130483610D01*
X121475500Y-130737610D01*
X121526300Y-130839210D01*
X121627900Y-130890010D01*
X121729500Y-130890010D01*
X121831100Y-130839210D01*
X121881900Y-130737610D01*
X121881900Y-130483610D01*
X121932700Y-130382010D01*
X121475500Y-129874010D02*
X122186700Y-129874010D01*
X121983500Y-129874010D02*
X122085100Y-129823210D01*
X122135900Y-129772410D01*
X122186700Y-129670810D01*
X122186700Y-129569210D01*
X121526300Y-128756410D02*
X121475500Y-128858010D01*
X121475500Y-129061210D01*
X121526300Y-129162810D01*
X121577100Y-129213610D01*
X121678700Y-129264410D01*
X121983500Y-129264410D01*
X122085100Y-129213610D01*
X122135900Y-129162810D01*
X122186700Y-129061210D01*
X122186700Y-128858010D01*
X122135900Y-128756410D01*
X121526300Y-127892810D02*
X121475500Y-127994410D01*
X121475500Y-128197610D01*
X121526300Y-128299210D01*
X121627900Y-128350010D01*
X122034300Y-128350010D01*
X122135900Y-128299210D01*
X122186700Y-128197610D01*
X122186700Y-127994410D01*
X122135900Y-127892810D01*
X122034300Y-127842010D01*
X121932700Y-127842010D01*
X121831100Y-128350010D01*
X121475500Y-127232410D02*
X121526300Y-127334010D01*
X121627900Y-127384810D01*
X122542300Y-127384810D01*
X121475500Y-126673610D02*
X121526300Y-126775210D01*
X121577100Y-126826010D01*
X121678700Y-126876810D01*
X121983500Y-126876810D01*
X122085100Y-126826010D01*
X122135900Y-126775210D01*
X122186700Y-126673610D01*
X122186700Y-126521210D01*
X122135900Y-126419610D01*
X122085100Y-126368810D01*
X121983500Y-126318010D01*
X121678700Y-126318010D01*
X121577100Y-126368810D01*
X121526300Y-126419610D01*
X121475500Y-126521210D01*
X121475500Y-126673610D01*
X121526300Y-125403610D02*
X121475500Y-125505210D01*
X121475500Y-125708410D01*
X121526300Y-125810010D01*
X121577100Y-125860810D01*
X121678700Y-125911610D01*
X121983500Y-125911610D01*
X122085100Y-125860810D01*
X122135900Y-125810010D01*
X122186700Y-125708410D01*
X122186700Y-125505210D01*
X122135900Y-125403610D01*
X121475500Y-124489210D02*
X122034300Y-124489210D01*
X122135900Y-124540010D01*
X122186700Y-124641610D01*
X122186700Y-124844810D01*
X122135900Y-124946410D01*
X121526300Y-124489210D02*
X121475500Y-124590810D01*
X121475500Y-124844810D01*
X121526300Y-124946410D01*
X121627900Y-124997210D01*
X121729500Y-124997210D01*
X121831100Y-124946410D01*
X121881900Y-124844810D01*
X121881900Y-124590810D01*
X121932700Y-124489210D01*
X121475500Y-123981210D02*
X122186700Y-123981210D01*
X122085100Y-123981210D02*
X122135900Y-123930410D01*
X122186700Y-123828810D01*
X122186700Y-123676410D01*
X122135900Y-123574810D01*
X122034300Y-123524010D01*
X121475500Y-123524010D01*
X122034300Y-123524010D02*
X122135900Y-123473210D01*
X122186700Y-123371610D01*
X122186700Y-123219210D01*
X122135900Y-123117610D01*
X122034300Y-123066810D01*
X121475500Y-123066810D01*
X122186700Y-122558810D02*
X121119900Y-122558810D01*
X122135900Y-122558810D02*
X122186700Y-122457210D01*
X122186700Y-122254010D01*
X122135900Y-122152410D01*
X122085100Y-122101610D01*
X121983500Y-122050810D01*
X121678700Y-122050810D01*
X121577100Y-122101610D01*
X121526300Y-122152410D01*
X121475500Y-122254010D01*
X121475500Y-122457210D01*
X121526300Y-122558810D01*
X121475500Y-121441210D02*
X121526300Y-121542810D01*
X121577100Y-121593610D01*
X121678700Y-121644410D01*
X121983500Y-121644410D01*
X122085100Y-121593610D01*
X122135900Y-121542810D01*
X122186700Y-121441210D01*
X122186700Y-121288810D01*
X122135900Y-121187210D01*
X122085100Y-121136410D01*
X121983500Y-121085610D01*
X121678700Y-121085610D01*
X121577100Y-121136410D01*
X121526300Y-121187210D01*
X121475500Y-121288810D01*
X121475500Y-121441210D01*
X121526300Y-120679210D02*
X121475500Y-120577610D01*
X121475500Y-120374410D01*
X121526300Y-120272810D01*
X121627900Y-120222010D01*
X121678700Y-120222010D01*
X121780300Y-120272810D01*
X121831100Y-120374410D01*
X121831100Y-120526810D01*
X121881900Y-120628410D01*
X121983500Y-120679210D01*
X122034300Y-120679210D01*
X122135900Y-120628410D01*
X122186700Y-120526810D01*
X122186700Y-120374410D01*
X122135900Y-120272810D01*
X121577100Y-119764810D02*
X121526300Y-119714010D01*
X121475500Y-119764810D01*
X121526300Y-119815610D01*
X121577100Y-119764810D01*
X121475500Y-119764810D01*
X121526300Y-118799610D02*
X121475500Y-118901210D01*
X121475500Y-119104410D01*
X121526300Y-119206010D01*
X121577100Y-119256810D01*
X121678700Y-119307610D01*
X121983500Y-119307610D01*
X122085100Y-119256810D01*
X122135900Y-119206010D01*
X122186700Y-119104410D01*
X122186700Y-118901210D01*
X122135900Y-118799610D01*
X121526300Y-117885210D02*
X121475500Y-117986810D01*
X121475500Y-118190010D01*
X121526300Y-118291610D01*
X121577100Y-118342410D01*
X121678700Y-118393210D01*
X121983500Y-118393210D01*
X122085100Y-118342410D01*
X122135900Y-118291610D01*
X122186700Y-118190010D01*
X122186700Y-117986810D01*
X122135900Y-117885210D01*
D12*
%TO.C,REF\u002A\u002A*%
G36*
X126955495Y-130866114D02*
G01*
X126918273Y-130791461D01*
X126849739Y-130725569D01*
X126824352Y-130707423D01*
X126791134Y-130687655D01*
X126755055Y-130674828D01*
X126706902Y-130667490D01*
X126637464Y-130664187D01*
X126545794Y-130663462D01*
X126420170Y-130666737D01*
X126325846Y-130678123D01*
X126255477Y-130699959D01*
X126201714Y-130734581D01*
X126157212Y-130784330D01*
X126154577Y-130787986D01*
X126127623Y-130837015D01*
X126114288Y-130896055D01*
X126111000Y-130971141D01*
X126111000Y-131093205D01*
X125992503Y-131093256D01*
X125926508Y-131094392D01*
X125887798Y-131101314D01*
X125864581Y-131119402D01*
X125845067Y-131154038D01*
X125841080Y-131162355D01*
X125822397Y-131201280D01*
X125810597Y-131231417D01*
X125809578Y-131253826D01*
X125823239Y-131269567D01*
X125855478Y-131279698D01*
X125910196Y-131285277D01*
X125991289Y-131287365D01*
X126102656Y-131287019D01*
X126248198Y-131285300D01*
X126291731Y-131284763D01*
X126441795Y-131282828D01*
X126539958Y-131281096D01*
X126539958Y-131093308D01*
X126456636Y-131092252D01*
X126402120Y-131087562D01*
X126366163Y-131076949D01*
X126338518Y-131058128D01*
X126325035Y-131045350D01*
X126285583Y-130993110D01*
X126282372Y-130946858D01*
X126314951Y-130899133D01*
X126316154Y-130897923D01*
X126341332Y-130878506D01*
X126375553Y-130866693D01*
X126428252Y-130860735D01*
X126508869Y-130858880D01*
X126526729Y-130858846D01*
X126637825Y-130863330D01*
X126714839Y-130877926D01*
X126761853Y-130904350D01*
X126782950Y-130944317D01*
X126785077Y-130967416D01*
X126775100Y-131022238D01*
X126742248Y-131059842D01*
X126682143Y-131082477D01*
X126590402Y-131092394D01*
X126539958Y-131093308D01*
X126539958Y-131281096D01*
X126557940Y-131280778D01*
X126645321Y-131278127D01*
X126709095Y-131274394D01*
X126754418Y-131269093D01*
X126786445Y-131261742D01*
X126810332Y-131251857D01*
X126831236Y-131238954D01*
X126839102Y-131233421D01*
X126913405Y-131160031D01*
X126955533Y-131067240D01*
X126967278Y-130959904D01*
X126955495Y-130866114D01*
G37*
X126955495Y-130866114D02*
X126918273Y-130791461D01*
X126849739Y-130725569D01*
X126824352Y-130707423D01*
X126791134Y-130687655D01*
X126755055Y-130674828D01*
X126706902Y-130667490D01*
X126637464Y-130664187D01*
X126545794Y-130663462D01*
X126420170Y-130666737D01*
X126325846Y-130678123D01*
X126255477Y-130699959D01*
X126201714Y-130734581D01*
X126157212Y-130784330D01*
X126154577Y-130787986D01*
X126127623Y-130837015D01*
X126114288Y-130896055D01*
X126111000Y-130971141D01*
X126111000Y-131093205D01*
X125992503Y-131093256D01*
X125926508Y-131094392D01*
X125887798Y-131101314D01*
X125864581Y-131119402D01*
X125845067Y-131154038D01*
X125841080Y-131162355D01*
X125822397Y-131201280D01*
X125810597Y-131231417D01*
X125809578Y-131253826D01*
X125823239Y-131269567D01*
X125855478Y-131279698D01*
X125910196Y-131285277D01*
X125991289Y-131287365D01*
X126102656Y-131287019D01*
X126248198Y-131285300D01*
X126291731Y-131284763D01*
X126441795Y-131282828D01*
X126539958Y-131281096D01*
X126539958Y-131093308D01*
X126456636Y-131092252D01*
X126402120Y-131087562D01*
X126366163Y-131076949D01*
X126338518Y-131058128D01*
X126325035Y-131045350D01*
X126285583Y-130993110D01*
X126282372Y-130946858D01*
X126314951Y-130899133D01*
X126316154Y-130897923D01*
X126341332Y-130878506D01*
X126375553Y-130866693D01*
X126428252Y-130860735D01*
X126508869Y-130858880D01*
X126526729Y-130858846D01*
X126637825Y-130863330D01*
X126714839Y-130877926D01*
X126761853Y-130904350D01*
X126782950Y-130944317D01*
X126785077Y-130967416D01*
X126775100Y-131022238D01*
X126742248Y-131059842D01*
X126682143Y-131082477D01*
X126590402Y-131092394D01*
X126539958Y-131093308D01*
X126539958Y-131281096D01*
X126557940Y-131280778D01*
X126645321Y-131278127D01*
X126709095Y-131274394D01*
X126754418Y-131269093D01*
X126786445Y-131261742D01*
X126810332Y-131251857D01*
X126831236Y-131238954D01*
X126839102Y-131233421D01*
X126913405Y-131160031D01*
X126955533Y-131067240D01*
X126967278Y-130959904D01*
X126955495Y-130866114D01*
G36*
X126944911Y-129363336D02*
G01*
X126908642Y-129300633D01*
X126872642Y-129257039D01*
X126834925Y-129225155D01*
X126788801Y-129203190D01*
X126727579Y-129189351D01*
X126644569Y-129181847D01*
X126533081Y-129178883D01*
X126452938Y-129178539D01*
X126157935Y-129178539D01*
X126083485Y-129344615D01*
X126406598Y-129354385D01*
X126527271Y-129358421D01*
X126614859Y-129362656D01*
X126675350Y-129367903D01*
X126714732Y-129374975D01*
X126738993Y-129384689D01*
X126754120Y-129397856D01*
X126757394Y-129402081D01*
X126782966Y-129466091D01*
X126772847Y-129530792D01*
X126746000Y-129569308D01*
X126726976Y-129584975D01*
X126702012Y-129595820D01*
X126664166Y-129602712D01*
X126606498Y-129606521D01*
X126522065Y-129608117D01*
X126434072Y-129608385D01*
X126323677Y-129608437D01*
X126245537Y-129610328D01*
X126192835Y-129616655D01*
X126158758Y-129630017D01*
X126136489Y-129653015D01*
X126119213Y-129688246D01*
X126101262Y-129735303D01*
X126081722Y-129786697D01*
X126428515Y-129780579D01*
X126553532Y-129778116D01*
X126645918Y-129775233D01*
X126712119Y-129771102D01*
X126758580Y-129764893D01*
X126791744Y-129755774D01*
X126818056Y-129742917D01*
X126841271Y-129727416D01*
X126915431Y-129652629D01*
X126958316Y-129561372D01*
X126968588Y-129462117D01*
X126944911Y-129363336D01*
G37*
X126944911Y-129363336D02*
X126908642Y-129300633D01*
X126872642Y-129257039D01*
X126834925Y-129225155D01*
X126788801Y-129203190D01*
X126727579Y-129189351D01*
X126644569Y-129181847D01*
X126533081Y-129178883D01*
X126452938Y-129178539D01*
X126157935Y-129178539D01*
X126083485Y-129344615D01*
X126406598Y-129354385D01*
X126527271Y-129358421D01*
X126614859Y-129362656D01*
X126675350Y-129367903D01*
X126714732Y-129374975D01*
X126738993Y-129384689D01*
X126754120Y-129397856D01*
X126757394Y-129402081D01*
X126782966Y-129466091D01*
X126772847Y-129530792D01*
X126746000Y-129569308D01*
X126726976Y-129584975D01*
X126702012Y-129595820D01*
X126664166Y-129602712D01*
X126606498Y-129606521D01*
X126522065Y-129608117D01*
X126434072Y-129608385D01*
X126323677Y-129608437D01*
X126245537Y-129610328D01*
X126192835Y-129616655D01*
X126158758Y-129630017D01*
X126136489Y-129653015D01*
X126119213Y-129688246D01*
X126101262Y-129735303D01*
X126081722Y-129786697D01*
X126428515Y-129780579D01*
X126553532Y-129778116D01*
X126645918Y-129775233D01*
X126712119Y-129771102D01*
X126758580Y-129764893D01*
X126791744Y-129755774D01*
X126818056Y-129742917D01*
X126841271Y-129727416D01*
X126915431Y-129652629D01*
X126958316Y-129561372D01*
X126968588Y-129462117D01*
X126944911Y-129363336D01*
G36*
X126952744Y-131618114D02*
G01*
X126904591Y-131526536D01*
X126827095Y-131458951D01*
X126777273Y-131434943D01*
X126702467Y-131416262D01*
X126607948Y-131406699D01*
X126504790Y-131405792D01*
X126404065Y-131413079D01*
X126316847Y-131428097D01*
X126254209Y-131450385D01*
X126243421Y-131457235D01*
X126162895Y-131538368D01*
X126114664Y-131634734D01*
X126100550Y-131739299D01*
X126122371Y-131845032D01*
X126135453Y-131874457D01*
X126175769Y-131931759D01*
X126229225Y-131982050D01*
X126236005Y-131986803D01*
X126268679Y-132006122D01*
X126303606Y-132018892D01*
X126349586Y-132026436D01*
X126415416Y-132030076D01*
X126509895Y-132031135D01*
X126531077Y-132031154D01*
X126537818Y-132031106D01*
X126537818Y-131835769D01*
X126448651Y-131834632D01*
X126389480Y-131830159D01*
X126351259Y-131820754D01*
X126324947Y-131804824D01*
X126316154Y-131796692D01*
X126282739Y-131749942D01*
X126284263Y-131704553D01*
X126313248Y-131658660D01*
X126344191Y-131631288D01*
X126389357Y-131615077D01*
X126460580Y-131605974D01*
X126468886Y-131605349D01*
X126597963Y-131603796D01*
X126693828Y-131620035D01*
X126755893Y-131653848D01*
X126783568Y-131705016D01*
X126785077Y-131723280D01*
X126777487Y-131771240D01*
X126751192Y-131804047D01*
X126700905Y-131824105D01*
X126621336Y-131833822D01*
X126537818Y-131835769D01*
X126537818Y-132031106D01*
X126631751Y-132030426D01*
X126702094Y-132027371D01*
X126750837Y-132020678D01*
X126786712Y-132009040D01*
X126818452Y-131991147D01*
X126824352Y-131987192D01*
X126903896Y-131920733D01*
X126950071Y-131848315D01*
X126968401Y-131760151D01*
X126969297Y-131730213D01*
X126952744Y-131618114D01*
G37*
X126952744Y-131618114D02*
X126904591Y-131526536D01*
X126827095Y-131458951D01*
X126777273Y-131434943D01*
X126702467Y-131416262D01*
X126607948Y-131406699D01*
X126504790Y-131405792D01*
X126404065Y-131413079D01*
X126316847Y-131428097D01*
X126254209Y-131450385D01*
X126243421Y-131457235D01*
X126162895Y-131538368D01*
X126114664Y-131634734D01*
X126100550Y-131739299D01*
X126122371Y-131845032D01*
X126135453Y-131874457D01*
X126175769Y-131931759D01*
X126229225Y-131982050D01*
X126236005Y-131986803D01*
X126268679Y-132006122D01*
X126303606Y-132018892D01*
X126349586Y-132026436D01*
X126415416Y-132030076D01*
X126509895Y-132031135D01*
X126531077Y-132031154D01*
X126537818Y-132031106D01*
X126537818Y-131835769D01*
X126448651Y-131834632D01*
X126389480Y-131830159D01*
X126351259Y-131820754D01*
X126324947Y-131804824D01*
X126316154Y-131796692D01*
X126282739Y-131749942D01*
X126284263Y-131704553D01*
X126313248Y-131658660D01*
X126344191Y-131631288D01*
X126389357Y-131615077D01*
X126460580Y-131605974D01*
X126468886Y-131605349D01*
X126597963Y-131603796D01*
X126693828Y-131620035D01*
X126755893Y-131653848D01*
X126783568Y-131705016D01*
X126785077Y-131723280D01*
X126777487Y-131771240D01*
X126751192Y-131804047D01*
X126700905Y-131824105D01*
X126621336Y-131833822D01*
X126537818Y-131835769D01*
X126537818Y-132031106D01*
X126631751Y-132030426D01*
X126702094Y-132027371D01*
X126750837Y-132020678D01*
X126786712Y-132009040D01*
X126818452Y-131991147D01*
X126824352Y-131987192D01*
X126903896Y-131920733D01*
X126950071Y-131848315D01*
X126968401Y-131760151D01*
X126969297Y-131730213D01*
X126952744Y-131618114D01*
G36*
X126940255Y-130100746D02*
G01*
X126888433Y-130023714D01*
X126813588Y-129964184D01*
X126718346Y-129928622D01*
X126648244Y-129921429D01*
X126618991Y-129922246D01*
X126596593Y-129929086D01*
X126576526Y-129947888D01*
X126554267Y-129984592D01*
X126525291Y-130045138D01*
X126485073Y-130135466D01*
X126484871Y-130135923D01*
X126446790Y-130219067D01*
X126412975Y-130287247D01*
X126387067Y-130333495D01*
X126372705Y-130350842D01*
X126372589Y-130350846D01*
X126341315Y-130335557D01*
X126306843Y-130299804D01*
X126282010Y-130258758D01*
X126277077Y-130237963D01*
X126294138Y-130181230D01*
X126336867Y-130132373D01*
X126383845Y-130108535D01*
X126418478Y-130085603D01*
X126457919Y-130040682D01*
X126491991Y-129987877D01*
X126510520Y-129941290D01*
X126511538Y-129931548D01*
X126494785Y-129920582D01*
X126451961Y-129919921D01*
X126394219Y-129927980D01*
X126332711Y-129943173D01*
X126278591Y-129963914D01*
X126276490Y-129964962D01*
X126189340Y-130027379D01*
X126130061Y-130108274D01*
X126100966Y-130200144D01*
X126104366Y-130295487D01*
X126142572Y-130386802D01*
X126145259Y-130390862D01*
X126210358Y-130462694D01*
X126295295Y-130509927D01*
X126406979Y-130536066D01*
X126438357Y-130539574D01*
X126586464Y-130545787D01*
X126655532Y-130538339D01*
X126655532Y-130350846D01*
X126612448Y-130348410D01*
X126599874Y-130335086D01*
X126609281Y-130301868D01*
X126631517Y-130249506D01*
X126659390Y-130190976D01*
X126660128Y-130189521D01*
X126686223Y-130139911D01*
X126703637Y-130120000D01*
X126721893Y-130124910D01*
X126745880Y-130145584D01*
X126780594Y-130198181D01*
X126783144Y-130254823D01*
X126757881Y-130305631D01*
X126709153Y-130340724D01*
X126655532Y-130350846D01*
X126655532Y-130538339D01*
X126704964Y-130533008D01*
X126798945Y-130500222D01*
X126864785Y-130454579D01*
X126931319Y-130372198D01*
X126964324Y-130281454D01*
X126966427Y-130188815D01*
X126940255Y-130100746D01*
G37*
X126940255Y-130100746D02*
X126888433Y-130023714D01*
X126813588Y-129964184D01*
X126718346Y-129928622D01*
X126648244Y-129921429D01*
X126618991Y-129922246D01*
X126596593Y-129929086D01*
X126576526Y-129947888D01*
X126554267Y-129984592D01*
X126525291Y-130045138D01*
X126485073Y-130135466D01*
X126484871Y-130135923D01*
X126446790Y-130219067D01*
X126412975Y-130287247D01*
X126387067Y-130333495D01*
X126372705Y-130350842D01*
X126372589Y-130350846D01*
X126341315Y-130335557D01*
X126306843Y-130299804D01*
X126282010Y-130258758D01*
X126277077Y-130237963D01*
X126294138Y-130181230D01*
X126336867Y-130132373D01*
X126383845Y-130108535D01*
X126418478Y-130085603D01*
X126457919Y-130040682D01*
X126491991Y-129987877D01*
X126510520Y-129941290D01*
X126511538Y-129931548D01*
X126494785Y-129920582D01*
X126451961Y-129919921D01*
X126394219Y-129927980D01*
X126332711Y-129943173D01*
X126278591Y-129963914D01*
X126276490Y-129964962D01*
X126189340Y-130027379D01*
X126130061Y-130108274D01*
X126100966Y-130200144D01*
X126104366Y-130295487D01*
X126142572Y-130386802D01*
X126145259Y-130390862D01*
X126210358Y-130462694D01*
X126295295Y-130509927D01*
X126406979Y-130536066D01*
X126438357Y-130539574D01*
X126586464Y-130545787D01*
X126655532Y-130538339D01*
X126655532Y-130350846D01*
X126612448Y-130348410D01*
X126599874Y-130335086D01*
X126609281Y-130301868D01*
X126631517Y-130249506D01*
X126659390Y-130190976D01*
X126660128Y-130189521D01*
X126686223Y-130139911D01*
X126703637Y-130120000D01*
X126721893Y-130124910D01*
X126745880Y-130145584D01*
X126780594Y-130198181D01*
X126783144Y-130254823D01*
X126757881Y-130305631D01*
X126709153Y-130340724D01*
X126655532Y-130350846D01*
X126655532Y-130538339D01*
X126704964Y-130533008D01*
X126798945Y-130500222D01*
X126864785Y-130454579D01*
X126931319Y-130372198D01*
X126964324Y-130281454D01*
X126966427Y-130188815D01*
X126940255Y-130100746D01*
G36*
X127047880Y-128475154D02*
G01*
X126968020Y-128469428D01*
X126920961Y-128462851D01*
X126900434Y-128453738D01*
X126900171Y-128440402D01*
X126902622Y-128436077D01*
X126920364Y-128378556D01*
X126919328Y-128303732D01*
X126901090Y-128227661D01*
X126877495Y-128180082D01*
X126839802Y-128131298D01*
X126797145Y-128095636D01*
X126742943Y-128071155D01*
X126670616Y-128055913D01*
X126573581Y-128047970D01*
X126445258Y-128045384D01*
X126420642Y-128045338D01*
X126144130Y-128045308D01*
X126122680Y-128106839D01*
X126108088Y-128150541D01*
X126101294Y-128174518D01*
X126101231Y-128175223D01*
X126119655Y-128177585D01*
X126170474Y-128179594D01*
X126247007Y-128181099D01*
X126342570Y-128181947D01*
X126400671Y-128182077D01*
X126515229Y-128182349D01*
X126597333Y-128183748D01*
X126653607Y-128187151D01*
X126690674Y-128193433D01*
X126715156Y-128203471D01*
X126733675Y-128218139D01*
X126742594Y-128227298D01*
X126778534Y-128290211D01*
X126781225Y-128358864D01*
X126750830Y-128421152D01*
X126739856Y-128432671D01*
X126719221Y-128449567D01*
X126694744Y-128461286D01*
X126659353Y-128468767D01*
X126605974Y-128472946D01*
X126527534Y-128474763D01*
X126419383Y-128475154D01*
X126144130Y-128475154D01*
X126122680Y-128536685D01*
X126108088Y-128580387D01*
X126101294Y-128604364D01*
X126101231Y-128605070D01*
X126119931Y-128606874D01*
X126172678Y-128608500D01*
X126254443Y-128609883D01*
X126360195Y-128610958D01*
X126484906Y-128611660D01*
X126623545Y-128611923D01*
X127158194Y-128611923D01*
X127211764Y-128484923D01*
X127047880Y-128475154D01*
G37*
X127047880Y-128475154D02*
X126968020Y-128469428D01*
X126920961Y-128462851D01*
X126900434Y-128453738D01*
X126900171Y-128440402D01*
X126902622Y-128436077D01*
X126920364Y-128378556D01*
X126919328Y-128303732D01*
X126901090Y-128227661D01*
X126877495Y-128180082D01*
X126839802Y-128131298D01*
X126797145Y-128095636D01*
X126742943Y-128071155D01*
X126670616Y-128055913D01*
X126573581Y-128047970D01*
X126445258Y-128045384D01*
X126420642Y-128045338D01*
X126144130Y-128045308D01*
X126122680Y-128106839D01*
X126108088Y-128150541D01*
X126101294Y-128174518D01*
X126101231Y-128175223D01*
X126119655Y-128177585D01*
X126170474Y-128179594D01*
X126247007Y-128181099D01*
X126342570Y-128181947D01*
X126400671Y-128182077D01*
X126515229Y-128182349D01*
X126597333Y-128183748D01*
X126653607Y-128187151D01*
X126690674Y-128193433D01*
X126715156Y-128203471D01*
X126733675Y-128218139D01*
X126742594Y-128227298D01*
X126778534Y-128290211D01*
X126781225Y-128358864D01*
X126750830Y-128421152D01*
X126739856Y-128432671D01*
X126719221Y-128449567D01*
X126694744Y-128461286D01*
X126659353Y-128468767D01*
X126605974Y-128472946D01*
X126527534Y-128474763D01*
X126419383Y-128475154D01*
X126144130Y-128475154D01*
X126122680Y-128536685D01*
X126108088Y-128580387D01*
X126101294Y-128604364D01*
X126101231Y-128605070D01*
X126119931Y-128606874D01*
X126172678Y-128608500D01*
X126254443Y-128609883D01*
X126360195Y-128610958D01*
X126484906Y-128611660D01*
X126623545Y-128611923D01*
X127158194Y-128611923D01*
X127211764Y-128484923D01*
X127047880Y-128475154D01*
G36*
X126913697Y-127581499D02*
G01*
X126885267Y-127504940D01*
X126884721Y-127504064D01*
X126849873Y-127456715D01*
X126809148Y-127421759D01*
X126756075Y-127397175D01*
X126684186Y-127380938D01*
X126587008Y-127371025D01*
X126458072Y-127365414D01*
X126439702Y-127364923D01*
X126162713Y-127357859D01*
X126131972Y-127417305D01*
X126111198Y-127460319D01*
X126101354Y-127486290D01*
X126101231Y-127487491D01*
X126119394Y-127491986D01*
X126168388Y-127495556D01*
X126239969Y-127497752D01*
X126297932Y-127498231D01*
X126391830Y-127498242D01*
X126450797Y-127502534D01*
X126478921Y-127517497D01*
X126480294Y-127549518D01*
X126459002Y-127604986D01*
X126419864Y-127688731D01*
X126387357Y-127750311D01*
X126359155Y-127781983D01*
X126328418Y-127791294D01*
X126326896Y-127791308D01*
X126273946Y-127775943D01*
X126245340Y-127730453D01*
X126241197Y-127660834D01*
X126241916Y-127610687D01*
X126227473Y-127584246D01*
X126192782Y-127567757D01*
X126148584Y-127558267D01*
X126123507Y-127571943D01*
X126119918Y-127577093D01*
X126105504Y-127625575D01*
X126103463Y-127693469D01*
X126113017Y-127763388D01*
X126130478Y-127812932D01*
X126188636Y-127881430D01*
X126269592Y-127920366D01*
X126332840Y-127928077D01*
X126389889Y-127922193D01*
X126436458Y-127900899D01*
X126477819Y-127858735D01*
X126519245Y-127790241D01*
X126566007Y-127689956D01*
X126568650Y-127683846D01*
X126610383Y-127593510D01*
X126644609Y-127537765D01*
X126675365Y-127513871D01*
X126706689Y-127519087D01*
X126742617Y-127550672D01*
X126750884Y-127560117D01*
X126782942Y-127623383D01*
X126781593Y-127688936D01*
X126750162Y-127746028D01*
X126691976Y-127783907D01*
X126680554Y-127787426D01*
X126625163Y-127821700D01*
X126598482Y-127865191D01*
X126572040Y-127928077D01*
X126640452Y-127928077D01*
X126739890Y-127908948D01*
X126831098Y-127852169D01*
X126861611Y-127822622D01*
X126900772Y-127755458D01*
X126918500Y-127670044D01*
X126913697Y-127581499D01*
G37*
X126913697Y-127581499D02*
X126885267Y-127504940D01*
X126884721Y-127504064D01*
X126849873Y-127456715D01*
X126809148Y-127421759D01*
X126756075Y-127397175D01*
X126684186Y-127380938D01*
X126587008Y-127371025D01*
X126458072Y-127365414D01*
X126439702Y-127364923D01*
X126162713Y-127357859D01*
X126131972Y-127417305D01*
X126111198Y-127460319D01*
X126101354Y-127486290D01*
X126101231Y-127487491D01*
X126119394Y-127491986D01*
X126168388Y-127495556D01*
X126239969Y-127497752D01*
X126297932Y-127498231D01*
X126391830Y-127498242D01*
X126450797Y-127502534D01*
X126478921Y-127517497D01*
X126480294Y-127549518D01*
X126459002Y-127604986D01*
X126419864Y-127688731D01*
X126387357Y-127750311D01*
X126359155Y-127781983D01*
X126328418Y-127791294D01*
X126326896Y-127791308D01*
X126273946Y-127775943D01*
X126245340Y-127730453D01*
X126241197Y-127660834D01*
X126241916Y-127610687D01*
X126227473Y-127584246D01*
X126192782Y-127567757D01*
X126148584Y-127558267D01*
X126123507Y-127571943D01*
X126119918Y-127577093D01*
X126105504Y-127625575D01*
X126103463Y-127693469D01*
X126113017Y-127763388D01*
X126130478Y-127812932D01*
X126188636Y-127881430D01*
X126269592Y-127920366D01*
X126332840Y-127928077D01*
X126389889Y-127922193D01*
X126436458Y-127900899D01*
X126477819Y-127858735D01*
X126519245Y-127790241D01*
X126566007Y-127689956D01*
X126568650Y-127683846D01*
X126610383Y-127593510D01*
X126644609Y-127537765D01*
X126675365Y-127513871D01*
X126706689Y-127519087D01*
X126742617Y-127550672D01*
X126750884Y-127560117D01*
X126782942Y-127623383D01*
X126781593Y-127688936D01*
X126750162Y-127746028D01*
X126691976Y-127783907D01*
X126680554Y-127787426D01*
X126625163Y-127821700D01*
X126598482Y-127865191D01*
X126572040Y-127928077D01*
X126640452Y-127928077D01*
X126739890Y-127908948D01*
X126831098Y-127852169D01*
X126861611Y-127822622D01*
X126900772Y-127755458D01*
X126918500Y-127670044D01*
X126913697Y-127581499D01*
G36*
X126915330Y-126921638D02*
G01*
X126882579Y-126832883D01*
X126824650Y-126760978D01*
X126783872Y-126732856D01*
X126709046Y-126702198D01*
X126654942Y-126702835D01*
X126618554Y-126735013D01*
X126612367Y-126746919D01*
X126593075Y-126798325D01*
X126598018Y-126824578D01*
X126630413Y-126833470D01*
X126648308Y-126833923D01*
X126714141Y-126850203D01*
X126760193Y-126892635D01*
X126782436Y-126951612D01*
X126776839Y-127017525D01*
X126747771Y-127071105D01*
X126731190Y-127089202D01*
X126711075Y-127102029D01*
X126680668Y-127110694D01*
X126633212Y-127116304D01*
X126561950Y-127119965D01*
X126460125Y-127122785D01*
X126427885Y-127123516D01*
X126317590Y-127126180D01*
X126239964Y-127129208D01*
X126188604Y-127133750D01*
X126157110Y-127140954D01*
X126139080Y-127151967D01*
X126128112Y-127167940D01*
X126123267Y-127178166D01*
X126106699Y-127221594D01*
X126101231Y-127247158D01*
X126119493Y-127255605D01*
X126174704Y-127260761D01*
X126267501Y-127262654D01*
X126398522Y-127261311D01*
X126418731Y-127260893D01*
X126538267Y-127257942D01*
X126625551Y-127254452D01*
X126687409Y-127249486D01*
X126730664Y-127242107D01*
X126762140Y-127231376D01*
X126788661Y-127216355D01*
X126800025Y-127208498D01*
X126850308Y-127163447D01*
X126889419Y-127113060D01*
X126892833Y-127106892D01*
X126919788Y-127016542D01*
X126915330Y-126921638D01*
G37*
X126915330Y-126921638D02*
X126882579Y-126832883D01*
X126824650Y-126760978D01*
X126783872Y-126732856D01*
X126709046Y-126702198D01*
X126654942Y-126702835D01*
X126618554Y-126735013D01*
X126612367Y-126746919D01*
X126593075Y-126798325D01*
X126598018Y-126824578D01*
X126630413Y-126833470D01*
X126648308Y-126833923D01*
X126714141Y-126850203D01*
X126760193Y-126892635D01*
X126782436Y-126951612D01*
X126776839Y-127017525D01*
X126747771Y-127071105D01*
X126731190Y-127089202D01*
X126711075Y-127102029D01*
X126680668Y-127110694D01*
X126633212Y-127116304D01*
X126561950Y-127119965D01*
X126460125Y-127122785D01*
X126427885Y-127123516D01*
X126317590Y-127126180D01*
X126239964Y-127129208D01*
X126188604Y-127133750D01*
X126157110Y-127140954D01*
X126139080Y-127151967D01*
X126128112Y-127167940D01*
X126123267Y-127178166D01*
X126106699Y-127221594D01*
X126101231Y-127247158D01*
X126119493Y-127255605D01*
X126174704Y-127260761D01*
X126267501Y-127262654D01*
X126398522Y-127261311D01*
X126418731Y-127260893D01*
X126538267Y-127257942D01*
X126625551Y-127254452D01*
X126687409Y-127249486D01*
X126730664Y-127242107D01*
X126762140Y-127231376D01*
X126788661Y-127216355D01*
X126800025Y-127208498D01*
X126850308Y-127163447D01*
X126889419Y-127113060D01*
X126892833Y-127106892D01*
X126919788Y-127016542D01*
X126915330Y-126921638D01*
G36*
X126759711Y-126032919D02*
G01*
X126613680Y-126033167D01*
X126501345Y-126034128D01*
X126417322Y-126036206D01*
X126356231Y-126039807D01*
X126312691Y-126045335D01*
X126281321Y-126053196D01*
X126256738Y-126063793D01*
X126242706Y-126071818D01*
X126166612Y-126138272D01*
X126118916Y-126222530D01*
X126101801Y-126315751D01*
X126117454Y-126409100D01*
X126145582Y-126464688D01*
X126194240Y-126523043D01*
X126253667Y-126562814D01*
X126331493Y-126586810D01*
X126435348Y-126597839D01*
X126511538Y-126599401D01*
X126517014Y-126599191D01*
X126517014Y-126462692D01*
X126429645Y-126461859D01*
X126371808Y-126458039D01*
X126333971Y-126449254D01*
X126306602Y-126433526D01*
X126285958Y-126414734D01*
X126246110Y-126351625D01*
X126242705Y-126283863D01*
X126275975Y-126219821D01*
X126280483Y-126214836D01*
X126303933Y-126193561D01*
X126331834Y-126180221D01*
X126373359Y-126172999D01*
X126437684Y-126170077D01*
X126508800Y-126169615D01*
X126598142Y-126170617D01*
X126657742Y-126174762D01*
X126696911Y-126183764D01*
X126724960Y-126199333D01*
X126739856Y-126212098D01*
X126777425Y-126271400D01*
X126781943Y-126339699D01*
X126753247Y-126404890D01*
X126742594Y-126417472D01*
X126718937Y-126438889D01*
X126690749Y-126452256D01*
X126648755Y-126459434D01*
X126583681Y-126462281D01*
X126517014Y-126462692D01*
X126517014Y-126599191D01*
X126634235Y-126594678D01*
X126726423Y-126578638D01*
X126795731Y-126548472D01*
X126849789Y-126501371D01*
X126877495Y-126464688D01*
X126907428Y-126398010D01*
X126921322Y-126320728D01*
X126917603Y-126248890D01*
X126902600Y-126208692D01*
X126898330Y-126192918D01*
X126914250Y-126182450D01*
X126956911Y-126175144D01*
X127021894Y-126169615D01*
X127094268Y-126163563D01*
X127137813Y-126155156D01*
X127162713Y-126139859D01*
X127179155Y-126113136D01*
X127186436Y-126096346D01*
X127213037Y-126032846D01*
X126759711Y-126032919D01*
G37*
X126759711Y-126032919D02*
X126613680Y-126033167D01*
X126501345Y-126034128D01*
X126417322Y-126036206D01*
X126356231Y-126039807D01*
X126312691Y-126045335D01*
X126281321Y-126053196D01*
X126256738Y-126063793D01*
X126242706Y-126071818D01*
X126166612Y-126138272D01*
X126118916Y-126222530D01*
X126101801Y-126315751D01*
X126117454Y-126409100D01*
X126145582Y-126464688D01*
X126194240Y-126523043D01*
X126253667Y-126562814D01*
X126331493Y-126586810D01*
X126435348Y-126597839D01*
X126511538Y-126599401D01*
X126517014Y-126599191D01*
X126517014Y-126462692D01*
X126429645Y-126461859D01*
X126371808Y-126458039D01*
X126333971Y-126449254D01*
X126306602Y-126433526D01*
X126285958Y-126414734D01*
X126246110Y-126351625D01*
X126242705Y-126283863D01*
X126275975Y-126219821D01*
X126280483Y-126214836D01*
X126303933Y-126193561D01*
X126331834Y-126180221D01*
X126373359Y-126172999D01*
X126437684Y-126170077D01*
X126508800Y-126169615D01*
X126598142Y-126170617D01*
X126657742Y-126174762D01*
X126696911Y-126183764D01*
X126724960Y-126199333D01*
X126739856Y-126212098D01*
X126777425Y-126271400D01*
X126781943Y-126339699D01*
X126753247Y-126404890D01*
X126742594Y-126417472D01*
X126718937Y-126438889D01*
X126690749Y-126452256D01*
X126648755Y-126459434D01*
X126583681Y-126462281D01*
X126517014Y-126462692D01*
X126517014Y-126599191D01*
X126634235Y-126594678D01*
X126726423Y-126578638D01*
X126795731Y-126548472D01*
X126849789Y-126501371D01*
X126877495Y-126464688D01*
X126907428Y-126398010D01*
X126921322Y-126320728D01*
X126917603Y-126248890D01*
X126902600Y-126208692D01*
X126898330Y-126192918D01*
X126914250Y-126182450D01*
X126956911Y-126175144D01*
X127021894Y-126169615D01*
X127094268Y-126163563D01*
X127137813Y-126155156D01*
X127162713Y-126139859D01*
X127179155Y-126113136D01*
X127186436Y-126096346D01*
X127213037Y-126032846D01*
X126759711Y-126032919D01*
G36*
X126903338Y-125239071D02*
G01*
X126851932Y-125236089D01*
X126773808Y-125233753D01*
X126675143Y-125232251D01*
X126571657Y-125231769D01*
X126221467Y-125231769D01*
X126159637Y-125293599D01*
X126121538Y-125336207D01*
X126106105Y-125373610D01*
X126107082Y-125424730D01*
X126109567Y-125445022D01*
X126116800Y-125508446D01*
X126120945Y-125560905D01*
X126121328Y-125573692D01*
X126118824Y-125616801D01*
X126112538Y-125678456D01*
X126109567Y-125702362D01*
X126104972Y-125761078D01*
X126114954Y-125800536D01*
X126145772Y-125839662D01*
X126159637Y-125853785D01*
X126221467Y-125915615D01*
X126876497Y-125915615D01*
X126899171Y-125865850D01*
X126915966Y-125822998D01*
X126921846Y-125797927D01*
X126903264Y-125791499D01*
X126851345Y-125785491D01*
X126771828Y-125780303D01*
X126670454Y-125776336D01*
X126584808Y-125774423D01*
X126247769Y-125769077D01*
X126241175Y-125722440D01*
X126245786Y-125680024D01*
X126260713Y-125659240D01*
X126288623Y-125653430D01*
X126348075Y-125648470D01*
X126431534Y-125644754D01*
X126531468Y-125642676D01*
X126582896Y-125642376D01*
X126878946Y-125642077D01*
X126900396Y-125580546D01*
X126914980Y-125536996D01*
X126921781Y-125513306D01*
X126921846Y-125512623D01*
X126903358Y-125510246D01*
X126852094Y-125507634D01*
X126774351Y-125505005D01*
X126676426Y-125502579D01*
X126584808Y-125500885D01*
X126247769Y-125495539D01*
X126247769Y-125378308D01*
X126555254Y-125372928D01*
X126862739Y-125367549D01*
X126892293Y-125310399D01*
X126912587Y-125268203D01*
X126921796Y-125243230D01*
X126921846Y-125242509D01*
X126903338Y-125239071D01*
G37*
X126903338Y-125239071D02*
X126851932Y-125236089D01*
X126773808Y-125233753D01*
X126675143Y-125232251D01*
X126571657Y-125231769D01*
X126221467Y-125231769D01*
X126159637Y-125293599D01*
X126121538Y-125336207D01*
X126106105Y-125373610D01*
X126107082Y-125424730D01*
X126109567Y-125445022D01*
X126116800Y-125508446D01*
X126120945Y-125560905D01*
X126121328Y-125573692D01*
X126118824Y-125616801D01*
X126112538Y-125678456D01*
X126109567Y-125702362D01*
X126104972Y-125761078D01*
X126114954Y-125800536D01*
X126145772Y-125839662D01*
X126159637Y-125853785D01*
X126221467Y-125915615D01*
X126876497Y-125915615D01*
X126899171Y-125865850D01*
X126915966Y-125822998D01*
X126921846Y-125797927D01*
X126903264Y-125791499D01*
X126851345Y-125785491D01*
X126771828Y-125780303D01*
X126670454Y-125776336D01*
X126584808Y-125774423D01*
X126247769Y-125769077D01*
X126241175Y-125722440D01*
X126245786Y-125680024D01*
X126260713Y-125659240D01*
X126288623Y-125653430D01*
X126348075Y-125648470D01*
X126431534Y-125644754D01*
X126531468Y-125642676D01*
X126582896Y-125642376D01*
X126878946Y-125642077D01*
X126900396Y-125580546D01*
X126914980Y-125536996D01*
X126921781Y-125513306D01*
X126921846Y-125512623D01*
X126903358Y-125510246D01*
X126852094Y-125507634D01*
X126774351Y-125505005D01*
X126676426Y-125502579D01*
X126584808Y-125500885D01*
X126247769Y-125495539D01*
X126247769Y-125378308D01*
X126555254Y-125372928D01*
X126862739Y-125367549D01*
X126892293Y-125310399D01*
X126912587Y-125268203D01*
X126921796Y-125243230D01*
X126921846Y-125242509D01*
X126903338Y-125239071D01*
G36*
X126906472Y-124747667D02*
G01*
X126880883Y-124691410D01*
X126849876Y-124647253D01*
X126815205Y-124614899D01*
X126770480Y-124592562D01*
X126709308Y-124578454D01*
X126625299Y-124570789D01*
X126512060Y-124567780D01*
X126437491Y-124567462D01*
X126146580Y-124567462D01*
X126123905Y-124617227D01*
X126107333Y-124656424D01*
X126101231Y-124675843D01*
X126119390Y-124679558D01*
X126168352Y-124682505D01*
X126239847Y-124684309D01*
X126296615Y-124684692D01*
X126378629Y-124686339D01*
X126443691Y-124690778D01*
X126483533Y-124697260D01*
X126492000Y-124702410D01*
X126483354Y-124737023D01*
X126461177Y-124791360D01*
X126431114Y-124854278D01*
X126398808Y-124914632D01*
X126369902Y-124961279D01*
X126350039Y-124983074D01*
X126349825Y-124983161D01*
X126313065Y-124981286D01*
X126277974Y-124964475D01*
X126249472Y-124934961D01*
X126239939Y-124891884D01*
X126241050Y-124855068D01*
X126241867Y-124802926D01*
X126229651Y-124775556D01*
X126197376Y-124759118D01*
X126191290Y-124757045D01*
X126145261Y-124749919D01*
X126117313Y-124768976D01*
X126103993Y-124818647D01*
X126101530Y-124872303D01*
X126119790Y-124968858D01*
X126145869Y-125018841D01*
X126207132Y-125080571D01*
X126282330Y-125113310D01*
X126361789Y-125116247D01*
X126435833Y-125088576D01*
X126482231Y-125046953D01*
X126508207Y-125005396D01*
X126541093Y-124940078D01*
X126574443Y-124863962D01*
X126579539Y-124851274D01*
X126616435Y-124767667D01*
X126648954Y-124719470D01*
X126681282Y-124703970D01*
X126717606Y-124718450D01*
X126746000Y-124743308D01*
X126780961Y-124802061D01*
X126783583Y-124866707D01*
X126756642Y-124925992D01*
X126702912Y-124968661D01*
X126689050Y-124974261D01*
X126638064Y-125006867D01*
X126600213Y-125054470D01*
X126569150Y-125114539D01*
X126657232Y-125114539D01*
X126711049Y-125111003D01*
X126753466Y-125095844D01*
X126798721Y-125062232D01*
X126833580Y-125029965D01*
X126882938Y-124979791D01*
X126909453Y-124940807D01*
X126920089Y-124898936D01*
X126921846Y-124851540D01*
X126906472Y-124747667D01*
G37*
X126906472Y-124747667D02*
X126880883Y-124691410D01*
X126849876Y-124647253D01*
X126815205Y-124614899D01*
X126770480Y-124592562D01*
X126709308Y-124578454D01*
X126625299Y-124570789D01*
X126512060Y-124567780D01*
X126437491Y-124567462D01*
X126146580Y-124567462D01*
X126123905Y-124617227D01*
X126107333Y-124656424D01*
X126101231Y-124675843D01*
X126119390Y-124679558D01*
X126168352Y-124682505D01*
X126239847Y-124684309D01*
X126296615Y-124684692D01*
X126378629Y-124686339D01*
X126443691Y-124690778D01*
X126483533Y-124697260D01*
X126492000Y-124702410D01*
X126483354Y-124737023D01*
X126461177Y-124791360D01*
X126431114Y-124854278D01*
X126398808Y-124914632D01*
X126369902Y-124961279D01*
X126350039Y-124983074D01*
X126349825Y-124983161D01*
X126313065Y-124981286D01*
X126277974Y-124964475D01*
X126249472Y-124934961D01*
X126239939Y-124891884D01*
X126241050Y-124855068D01*
X126241867Y-124802926D01*
X126229651Y-124775556D01*
X126197376Y-124759118D01*
X126191290Y-124757045D01*
X126145261Y-124749919D01*
X126117313Y-124768976D01*
X126103993Y-124818647D01*
X126101530Y-124872303D01*
X126119790Y-124968858D01*
X126145869Y-125018841D01*
X126207132Y-125080571D01*
X126282330Y-125113310D01*
X126361789Y-125116247D01*
X126435833Y-125088576D01*
X126482231Y-125046953D01*
X126508207Y-125005396D01*
X126541093Y-124940078D01*
X126574443Y-124863962D01*
X126579539Y-124851274D01*
X126616435Y-124767667D01*
X126648954Y-124719470D01*
X126681282Y-124703970D01*
X126717606Y-124718450D01*
X126746000Y-124743308D01*
X126780961Y-124802061D01*
X126783583Y-124866707D01*
X126756642Y-124925992D01*
X126702912Y-124968661D01*
X126689050Y-124974261D01*
X126638064Y-125006867D01*
X126600213Y-125054470D01*
X126569150Y-125114539D01*
X126657232Y-125114539D01*
X126711049Y-125111003D01*
X126753466Y-125095844D01*
X126798721Y-125062232D01*
X126833580Y-125029965D01*
X126882938Y-124979791D01*
X126909453Y-124940807D01*
X126920089Y-124898936D01*
X126921846Y-124851540D01*
X126906472Y-124747667D01*
G36*
X126903218Y-124064193D02*
G01*
X126893012Y-124040839D01*
X126848866Y-123985098D01*
X126785033Y-123937431D01*
X126716913Y-123907952D01*
X126683330Y-123903154D01*
X126636444Y-123919240D01*
X126611635Y-123954525D01*
X126596613Y-123992356D01*
X126593845Y-124009679D01*
X126613934Y-124018114D01*
X126657649Y-124034770D01*
X126677402Y-124042077D01*
X126745729Y-124083052D01*
X126779809Y-124142378D01*
X126778761Y-124218448D01*
X126777419Y-124224082D01*
X126758164Y-124264695D01*
X126720625Y-124294552D01*
X126660191Y-124314945D01*
X126572249Y-124327164D01*
X126452187Y-124332500D01*
X126388302Y-124333000D01*
X126287597Y-124333248D01*
X126218946Y-124334874D01*
X126175327Y-124339199D01*
X126149718Y-124347546D01*
X126135097Y-124361235D01*
X126124442Y-124381589D01*
X126123905Y-124382766D01*
X126107333Y-124421962D01*
X126101231Y-124441381D01*
X126119681Y-124444365D01*
X126170677Y-124446919D01*
X126247692Y-124448860D01*
X126344195Y-124450003D01*
X126414816Y-124450231D01*
X126551475Y-124449068D01*
X126655149Y-124444521D01*
X126731892Y-124435001D01*
X126787754Y-124418919D01*
X126828788Y-124394687D01*
X126861046Y-124360714D01*
X126883560Y-124327167D01*
X126913524Y-124246501D01*
X126920282Y-124152619D01*
X126903218Y-124064193D01*
G37*
X126903218Y-124064193D02*
X126893012Y-124040839D01*
X126848866Y-123985098D01*
X126785033Y-123937431D01*
X126716913Y-123907952D01*
X126683330Y-123903154D01*
X126636444Y-123919240D01*
X126611635Y-123954525D01*
X126596613Y-123992356D01*
X126593845Y-124009679D01*
X126613934Y-124018114D01*
X126657649Y-124034770D01*
X126677402Y-124042077D01*
X126745729Y-124083052D01*
X126779809Y-124142378D01*
X126778761Y-124218448D01*
X126777419Y-124224082D01*
X126758164Y-124264695D01*
X126720625Y-124294552D01*
X126660191Y-124314945D01*
X126572249Y-124327164D01*
X126452187Y-124332500D01*
X126388302Y-124333000D01*
X126287597Y-124333248D01*
X126218946Y-124334874D01*
X126175327Y-124339199D01*
X126149718Y-124347546D01*
X126135097Y-124361235D01*
X126124442Y-124381589D01*
X126123905Y-124382766D01*
X126107333Y-124421962D01*
X126101231Y-124441381D01*
X126119681Y-124444365D01*
X126170677Y-124446919D01*
X126247692Y-124448860D01*
X126344195Y-124450003D01*
X126414816Y-124450231D01*
X126551475Y-124449068D01*
X126655149Y-124444521D01*
X126731892Y-124435001D01*
X126787754Y-124418919D01*
X126828788Y-124394687D01*
X126861046Y-124360714D01*
X126883560Y-124327167D01*
X126913524Y-124246501D01*
X126920282Y-124152619D01*
X126903218Y-124064193D01*
G36*
X126892162Y-123389776D02*
G01*
X126841639Y-123312472D01*
X126796410Y-123275186D01*
X126714337Y-123245647D01*
X126649393Y-123243301D01*
X126562555Y-123248615D01*
X126474897Y-123448885D01*
X126430113Y-123546261D01*
X126394087Y-123609887D01*
X126362883Y-123642971D01*
X126332564Y-123648720D01*
X126299195Y-123630342D01*
X126277077Y-123610077D01*
X126241607Y-123551111D01*
X126239121Y-123486976D01*
X126266765Y-123428074D01*
X126321680Y-123384803D01*
X126341072Y-123377064D01*
X126401636Y-123339994D01*
X126427448Y-123297346D01*
X126449529Y-123238846D01*
X126365816Y-123238846D01*
X126308850Y-123244018D01*
X126260811Y-123264277D01*
X126205654Y-123306738D01*
X126198486Y-123313049D01*
X126149415Y-123360280D01*
X126123080Y-123400879D01*
X126110965Y-123451672D01*
X126106997Y-123493780D01*
X126106009Y-123569098D01*
X126118534Y-123622714D01*
X126137131Y-123656162D01*
X126178025Y-123708732D01*
X126222252Y-123745121D01*
X126277874Y-123768150D01*
X126352953Y-123780641D01*
X126455551Y-123785413D01*
X126507624Y-123785794D01*
X126570052Y-123784499D01*
X126570052Y-123666529D01*
X126536562Y-123665161D01*
X126531077Y-123661751D01*
X126538528Y-123639247D01*
X126558247Y-123590818D01*
X126586282Y-123526092D01*
X126592308Y-123512557D01*
X126633904Y-123430756D01*
X126670462Y-123385688D01*
X126704704Y-123375783D01*
X126739352Y-123399474D01*
X126754661Y-123419040D01*
X126785279Y-123489640D01*
X126780220Y-123555720D01*
X126742849Y-123611041D01*
X126676527Y-123649364D01*
X126623884Y-123661651D01*
X126570052Y-123666529D01*
X126570052Y-123784499D01*
X126629280Y-123783270D01*
X126719290Y-123773968D01*
X126784833Y-123755540D01*
X126833088Y-123725640D01*
X126871233Y-123681920D01*
X126883560Y-123662859D01*
X126915664Y-123576274D01*
X126917684Y-123481478D01*
X126892162Y-123389776D01*
G37*
X126892162Y-123389776D02*
X126841639Y-123312472D01*
X126796410Y-123275186D01*
X126714337Y-123245647D01*
X126649393Y-123243301D01*
X126562555Y-123248615D01*
X126474897Y-123448885D01*
X126430113Y-123546261D01*
X126394087Y-123609887D01*
X126362883Y-123642971D01*
X126332564Y-123648720D01*
X126299195Y-123630342D01*
X126277077Y-123610077D01*
X126241607Y-123551111D01*
X126239121Y-123486976D01*
X126266765Y-123428074D01*
X126321680Y-123384803D01*
X126341072Y-123377064D01*
X126401636Y-123339994D01*
X126427448Y-123297346D01*
X126449529Y-123238846D01*
X126365816Y-123238846D01*
X126308850Y-123244018D01*
X126260811Y-123264277D01*
X126205654Y-123306738D01*
X126198486Y-123313049D01*
X126149415Y-123360280D01*
X126123080Y-123400879D01*
X126110965Y-123451672D01*
X126106997Y-123493780D01*
X126106009Y-123569098D01*
X126118534Y-123622714D01*
X126137131Y-123656162D01*
X126178025Y-123708732D01*
X126222252Y-123745121D01*
X126277874Y-123768150D01*
X126352953Y-123780641D01*
X126455551Y-123785413D01*
X126507624Y-123785794D01*
X126570052Y-123784499D01*
X126570052Y-123666529D01*
X126536562Y-123665161D01*
X126531077Y-123661751D01*
X126538528Y-123639247D01*
X126558247Y-123590818D01*
X126586282Y-123526092D01*
X126592308Y-123512557D01*
X126633904Y-123430756D01*
X126670462Y-123385688D01*
X126704704Y-123375783D01*
X126739352Y-123399474D01*
X126754661Y-123419040D01*
X126785279Y-123489640D01*
X126780220Y-123555720D01*
X126742849Y-123611041D01*
X126676527Y-123649364D01*
X126623884Y-123661651D01*
X126570052Y-123666529D01*
X126570052Y-123784499D01*
X126629280Y-123783270D01*
X126719290Y-123773968D01*
X126784833Y-123755540D01*
X126833088Y-123725640D01*
X126871233Y-123681920D01*
X126883560Y-123662859D01*
X126915664Y-123576274D01*
X126917684Y-123481478D01*
X126892162Y-123389776D01*
G36*
X133252224Y-127495122D02*
G01*
X133251645Y-127389388D01*
X133250078Y-127312868D01*
X133247028Y-127260628D01*
X133242004Y-127227737D01*
X133234511Y-127209263D01*
X133224056Y-127200273D01*
X133210147Y-127195837D01*
X133208346Y-127195406D01*
X133175855Y-127188667D01*
X133111748Y-127176192D01*
X133022849Y-127159281D01*
X132915981Y-127139229D01*
X132797967Y-127117336D01*
X132793822Y-127116571D01*
X132678169Y-127094641D01*
X132575986Y-127074123D01*
X132493402Y-127056341D01*
X132436544Y-127042619D01*
X132411542Y-127034282D01*
X132411099Y-127033884D01*
X132398890Y-127009323D01*
X132378544Y-126958685D01*
X132354455Y-126892905D01*
X132354326Y-126892539D01*
X132323182Y-126809683D01*
X132283509Y-126712000D01*
X132243619Y-126619923D01*
X132241647Y-126615566D01*
X132173580Y-126465593D01*
X132400361Y-126133502D01*
X132469496Y-126031626D01*
X132531303Y-125939343D01*
X132582267Y-125861997D01*
X132618873Y-125804936D01*
X132637606Y-125773505D01*
X132638996Y-125770521D01*
X132632810Y-125747679D01*
X132602965Y-125705018D01*
X132548053Y-125640872D01*
X132466666Y-125553579D01*
X132380078Y-125464465D01*
X132294753Y-125378559D01*
X132216892Y-125301673D01*
X132151303Y-125238436D01*
X132102795Y-125193477D01*
X132076175Y-125171424D01*
X132074805Y-125170604D01*
X132056537Y-125168166D01*
X132026705Y-125177350D01*
X131981279Y-125200426D01*
X131916230Y-125239663D01*
X131827530Y-125297330D01*
X131713343Y-125374205D01*
X131612838Y-125442430D01*
X131522697Y-125503418D01*
X131448151Y-125553644D01*
X131394435Y-125589584D01*
X131366782Y-125607713D01*
X131364905Y-125608854D01*
X131338410Y-125606641D01*
X131286914Y-125589862D01*
X131220149Y-125561858D01*
X131198828Y-125551878D01*
X131103841Y-125508328D01*
X130996063Y-125461866D01*
X130902808Y-125424123D01*
X130833594Y-125396927D01*
X130780994Y-125375325D01*
X130753503Y-125362842D01*
X130751384Y-125361291D01*
X130747876Y-125338332D01*
X130738262Y-125284214D01*
X130723911Y-125206132D01*
X130706193Y-125111281D01*
X130686475Y-125006857D01*
X130666126Y-124900056D01*
X130646514Y-124798074D01*
X130629009Y-124708106D01*
X130614978Y-124637347D01*
X130605791Y-124592994D01*
X130603193Y-124582115D01*
X130596782Y-124570878D01*
X130582303Y-124562395D01*
X130554867Y-124556286D01*
X130509589Y-124552168D01*
X130441580Y-124549659D01*
X130345953Y-124548379D01*
X130217820Y-124547946D01*
X130165299Y-124547923D01*
X129738155Y-124547923D01*
X129717909Y-124650500D01*
X129706930Y-124707569D01*
X129690905Y-124792731D01*
X129671767Y-124895628D01*
X129651449Y-125005904D01*
X129645868Y-125036385D01*
X129626083Y-125138145D01*
X129606627Y-125226795D01*
X129589303Y-125294892D01*
X129575912Y-125334996D01*
X129571921Y-125341677D01*
X129543658Y-125358081D01*
X129488891Y-125381601D01*
X129418412Y-125407684D01*
X129403231Y-125412858D01*
X129309104Y-125447044D01*
X129202899Y-125489477D01*
X129107527Y-125531003D01*
X129107084Y-125531208D01*
X128957475Y-125600360D01*
X128288383Y-125145488D01*
X127995884Y-125437500D01*
X127908830Y-125525820D01*
X127832091Y-125606375D01*
X127769763Y-125674640D01*
X127725944Y-125726092D01*
X127704730Y-125756206D01*
X127703384Y-125760526D01*
X127713984Y-125785889D01*
X127743453Y-125837642D01*
X127788295Y-125910132D01*
X127845016Y-125997706D01*
X127908538Y-126092388D01*
X127973332Y-126188484D01*
X128029713Y-126274163D01*
X128074212Y-126343984D01*
X128103361Y-126392506D01*
X128113692Y-126414218D01*
X128104950Y-126440707D01*
X128081913Y-126490938D01*
X128049369Y-126554549D01*
X128045751Y-126561292D01*
X128002790Y-126646954D01*
X127981721Y-126705694D01*
X127981497Y-126742228D01*
X128001072Y-126761269D01*
X128001346Y-126761380D01*
X128024528Y-126770898D01*
X128079559Y-126793597D01*
X128162178Y-126827718D01*
X128268128Y-126871500D01*
X128393148Y-126923184D01*
X128532980Y-126981008D01*
X128668363Y-127037009D01*
X128817766Y-127098553D01*
X128956168Y-127155061D01*
X129079327Y-127204839D01*
X129182998Y-127246194D01*
X129262941Y-127277432D01*
X129314912Y-127296859D01*
X129334308Y-127302846D01*
X129356557Y-127287832D01*
X129392018Y-127248561D01*
X129431113Y-127196193D01*
X129554755Y-127047059D01*
X129696478Y-126930489D01*
X129853296Y-126847882D01*
X130022225Y-126800634D01*
X130200278Y-126790143D01*
X130282461Y-126797769D01*
X130452969Y-126839318D01*
X130603541Y-126910877D01*
X130732691Y-127008005D01*
X130838936Y-127126266D01*
X130920790Y-127261220D01*
X130976768Y-127408429D01*
X131005385Y-127563456D01*
X131005156Y-127721861D01*
X130974595Y-127879206D01*
X130912218Y-128031054D01*
X130816540Y-128172965D01*
X130762428Y-128232197D01*
X130623480Y-128345797D01*
X130471639Y-128424894D01*
X130311333Y-128470014D01*
X130146988Y-128481684D01*
X129983029Y-128460431D01*
X129823882Y-128406780D01*
X129673975Y-128321260D01*
X129537733Y-128204395D01*
X129431113Y-128073807D01*
X129390358Y-128019412D01*
X129355282Y-127980986D01*
X129334274Y-127967154D01*
X129311365Y-127974397D01*
X129256635Y-127994995D01*
X129174328Y-128027254D01*
X129068685Y-128069479D01*
X128943950Y-128119977D01*
X128804364Y-128177052D01*
X128668330Y-128233146D01*
X128518799Y-128295033D01*
X128380233Y-128352356D01*
X128256893Y-128403356D01*
X128153036Y-128446273D01*
X128072920Y-128479347D01*
X128020805Y-128500819D01*
X128001346Y-128508775D01*
X127981577Y-128527571D01*
X127981635Y-128563926D01*
X128002559Y-128622521D01*
X128045387Y-128708032D01*
X128045751Y-128708708D01*
X128078988Y-128773093D01*
X128103198Y-128825139D01*
X128113596Y-128854488D01*
X128113692Y-128855783D01*
X128103145Y-128877876D01*
X128073816Y-128926652D01*
X128029173Y-128996669D01*
X127972686Y-129082486D01*
X127908538Y-129177612D01*
X127843589Y-129274460D01*
X127787104Y-129361747D01*
X127742579Y-129433819D01*
X127713510Y-129485023D01*
X127703384Y-129509474D01*
X127716693Y-129531990D01*
X127753888Y-129577258D01*
X127810872Y-129640756D01*
X127883551Y-129717961D01*
X127967829Y-129804349D01*
X127995984Y-129832601D01*
X128288584Y-130124713D01*
X128614896Y-129902369D01*
X128715103Y-129834798D01*
X128805037Y-129775493D01*
X128879490Y-129727783D01*
X128933249Y-129694993D01*
X128961106Y-129680452D01*
X128963088Y-129680026D01*
X128989345Y-129687692D01*
X129042163Y-129708311D01*
X129112690Y-129738315D01*
X129159907Y-129759375D01*
X129250306Y-129798752D01*
X129341634Y-129835835D01*
X129418800Y-129864585D01*
X129442308Y-129872395D01*
X129505084Y-129894583D01*
X129553589Y-129916273D01*
X129571921Y-129928187D01*
X129583141Y-129954477D01*
X129599046Y-130011858D01*
X129617833Y-130092882D01*
X129637701Y-130190105D01*
X129645868Y-130233615D01*
X129666171Y-130344104D01*
X129685830Y-130450084D01*
X129702912Y-130541199D01*
X129715482Y-130607092D01*
X129717909Y-130619500D01*
X129738155Y-130722077D01*
X130165299Y-130722077D01*
X130305754Y-130721847D01*
X130412021Y-130720901D01*
X130488987Y-130718859D01*
X130541540Y-130715338D01*
X130574567Y-130709957D01*
X130592955Y-130702334D01*
X130601592Y-130692088D01*
X130603193Y-130687885D01*
X130608873Y-130662530D01*
X130620205Y-130606516D01*
X130635821Y-130527036D01*
X130654353Y-130431288D01*
X130674431Y-130326467D01*
X130694688Y-130219768D01*
X130713754Y-130118387D01*
X130730261Y-130029521D01*
X130742841Y-129960363D01*
X130750125Y-129918111D01*
X130751384Y-129908710D01*
X130768237Y-129900193D01*
X130813130Y-129881340D01*
X130877570Y-129855676D01*
X130902808Y-129845877D01*
X131000314Y-129806352D01*
X131108041Y-129759808D01*
X131198828Y-129718123D01*
X131268247Y-129687450D01*
X131325290Y-129667044D01*
X131360223Y-129660232D01*
X131364905Y-129661318D01*
X131387009Y-129675715D01*
X131436169Y-129708588D01*
X131507152Y-129756410D01*
X131594722Y-129815652D01*
X131693643Y-129882785D01*
X131713170Y-129896059D01*
X131828860Y-129973954D01*
X131916956Y-130031213D01*
X131981514Y-130070119D01*
X132026589Y-130092956D01*
X132056237Y-130102006D01*
X132074515Y-130099552D01*
X132074631Y-130099489D01*
X132098639Y-130080173D01*
X132145053Y-130037449D01*
X132209063Y-129975949D01*
X132285855Y-129900302D01*
X132370618Y-129815139D01*
X132380078Y-129805535D01*
X132484011Y-129698210D01*
X132560325Y-129615385D01*
X132610429Y-129555395D01*
X132635730Y-129516577D01*
X132638996Y-129499480D01*
X132624750Y-129474527D01*
X132591844Y-129422745D01*
X132543792Y-129349480D01*
X132484110Y-129260080D01*
X132416312Y-129159889D01*
X132400361Y-129136499D01*
X132173580Y-128804407D01*
X132241647Y-128654435D01*
X132281315Y-128563230D01*
X132321209Y-128465331D01*
X132353017Y-128381169D01*
X132354326Y-128377462D01*
X132378424Y-128311631D01*
X132398800Y-128260884D01*
X132411064Y-128236158D01*
X132411099Y-128236116D01*
X132433266Y-128228271D01*
X132487783Y-128214934D01*
X132568520Y-128197430D01*
X132669350Y-128177083D01*
X132784144Y-128155218D01*
X132793822Y-128153429D01*
X132912096Y-128131496D01*
X133019458Y-128111360D01*
X133109083Y-128094320D01*
X133174149Y-128081672D01*
X133207832Y-128074716D01*
X133208346Y-128074594D01*
X133222675Y-128070361D01*
X133233493Y-128062129D01*
X133241294Y-128044967D01*
X133246571Y-128013942D01*
X133249818Y-127964122D01*
X133251528Y-127890576D01*
X133252193Y-127788371D01*
X133252307Y-127652575D01*
X133252308Y-127635000D01*
X133252224Y-127495122D01*
G37*
X133252224Y-127495122D02*
X133251645Y-127389388D01*
X133250078Y-127312868D01*
X133247028Y-127260628D01*
X133242004Y-127227737D01*
X133234511Y-127209263D01*
X133224056Y-127200273D01*
X133210147Y-127195837D01*
X133208346Y-127195406D01*
X133175855Y-127188667D01*
X133111748Y-127176192D01*
X133022849Y-127159281D01*
X132915981Y-127139229D01*
X132797967Y-127117336D01*
X132793822Y-127116571D01*
X132678169Y-127094641D01*
X132575986Y-127074123D01*
X132493402Y-127056341D01*
X132436544Y-127042619D01*
X132411542Y-127034282D01*
X132411099Y-127033884D01*
X132398890Y-127009323D01*
X132378544Y-126958685D01*
X132354455Y-126892905D01*
X132354326Y-126892539D01*
X132323182Y-126809683D01*
X132283509Y-126712000D01*
X132243619Y-126619923D01*
X132241647Y-126615566D01*
X132173580Y-126465593D01*
X132400361Y-126133502D01*
X132469496Y-126031626D01*
X132531303Y-125939343D01*
X132582267Y-125861997D01*
X132618873Y-125804936D01*
X132637606Y-125773505D01*
X132638996Y-125770521D01*
X132632810Y-125747679D01*
X132602965Y-125705018D01*
X132548053Y-125640872D01*
X132466666Y-125553579D01*
X132380078Y-125464465D01*
X132294753Y-125378559D01*
X132216892Y-125301673D01*
X132151303Y-125238436D01*
X132102795Y-125193477D01*
X132076175Y-125171424D01*
X132074805Y-125170604D01*
X132056537Y-125168166D01*
X132026705Y-125177350D01*
X131981279Y-125200426D01*
X131916230Y-125239663D01*
X131827530Y-125297330D01*
X131713343Y-125374205D01*
X131612838Y-125442430D01*
X131522697Y-125503418D01*
X131448151Y-125553644D01*
X131394435Y-125589584D01*
X131366782Y-125607713D01*
X131364905Y-125608854D01*
X131338410Y-125606641D01*
X131286914Y-125589862D01*
X131220149Y-125561858D01*
X131198828Y-125551878D01*
X131103841Y-125508328D01*
X130996063Y-125461866D01*
X130902808Y-125424123D01*
X130833594Y-125396927D01*
X130780994Y-125375325D01*
X130753503Y-125362842D01*
X130751384Y-125361291D01*
X130747876Y-125338332D01*
X130738262Y-125284214D01*
X130723911Y-125206132D01*
X130706193Y-125111281D01*
X130686475Y-125006857D01*
X130666126Y-124900056D01*
X130646514Y-124798074D01*
X130629009Y-124708106D01*
X130614978Y-124637347D01*
X130605791Y-124592994D01*
X130603193Y-124582115D01*
X130596782Y-124570878D01*
X130582303Y-124562395D01*
X130554867Y-124556286D01*
X130509589Y-124552168D01*
X130441580Y-124549659D01*
X130345953Y-124548379D01*
X130217820Y-124547946D01*
X130165299Y-124547923D01*
X129738155Y-124547923D01*
X129717909Y-124650500D01*
X129706930Y-124707569D01*
X129690905Y-124792731D01*
X129671767Y-124895628D01*
X129651449Y-125005904D01*
X129645868Y-125036385D01*
X129626083Y-125138145D01*
X129606627Y-125226795D01*
X129589303Y-125294892D01*
X129575912Y-125334996D01*
X129571921Y-125341677D01*
X129543658Y-125358081D01*
X129488891Y-125381601D01*
X129418412Y-125407684D01*
X129403231Y-125412858D01*
X129309104Y-125447044D01*
X129202899Y-125489477D01*
X129107527Y-125531003D01*
X129107084Y-125531208D01*
X128957475Y-125600360D01*
X128288383Y-125145488D01*
X127995884Y-125437500D01*
X127908830Y-125525820D01*
X127832091Y-125606375D01*
X127769763Y-125674640D01*
X127725944Y-125726092D01*
X127704730Y-125756206D01*
X127703384Y-125760526D01*
X127713984Y-125785889D01*
X127743453Y-125837642D01*
X127788295Y-125910132D01*
X127845016Y-125997706D01*
X127908538Y-126092388D01*
X127973332Y-126188484D01*
X128029713Y-126274163D01*
X128074212Y-126343984D01*
X128103361Y-126392506D01*
X128113692Y-126414218D01*
X128104950Y-126440707D01*
X128081913Y-126490938D01*
X128049369Y-126554549D01*
X128045751Y-126561292D01*
X128002790Y-126646954D01*
X127981721Y-126705694D01*
X127981497Y-126742228D01*
X128001072Y-126761269D01*
X128001346Y-126761380D01*
X128024528Y-126770898D01*
X128079559Y-126793597D01*
X128162178Y-126827718D01*
X128268128Y-126871500D01*
X128393148Y-126923184D01*
X128532980Y-126981008D01*
X128668363Y-127037009D01*
X128817766Y-127098553D01*
X128956168Y-127155061D01*
X129079327Y-127204839D01*
X129182998Y-127246194D01*
X129262941Y-127277432D01*
X129314912Y-127296859D01*
X129334308Y-127302846D01*
X129356557Y-127287832D01*
X129392018Y-127248561D01*
X129431113Y-127196193D01*
X129554755Y-127047059D01*
X129696478Y-126930489D01*
X129853296Y-126847882D01*
X130022225Y-126800634D01*
X130200278Y-126790143D01*
X130282461Y-126797769D01*
X130452969Y-126839318D01*
X130603541Y-126910877D01*
X130732691Y-127008005D01*
X130838936Y-127126266D01*
X130920790Y-127261220D01*
X130976768Y-127408429D01*
X131005385Y-127563456D01*
X131005156Y-127721861D01*
X130974595Y-127879206D01*
X130912218Y-128031054D01*
X130816540Y-128172965D01*
X130762428Y-128232197D01*
X130623480Y-128345797D01*
X130471639Y-128424894D01*
X130311333Y-128470014D01*
X130146988Y-128481684D01*
X129983029Y-128460431D01*
X129823882Y-128406780D01*
X129673975Y-128321260D01*
X129537733Y-128204395D01*
X129431113Y-128073807D01*
X129390358Y-128019412D01*
X129355282Y-127980986D01*
X129334274Y-127967154D01*
X129311365Y-127974397D01*
X129256635Y-127994995D01*
X129174328Y-128027254D01*
X129068685Y-128069479D01*
X128943950Y-128119977D01*
X128804364Y-128177052D01*
X128668330Y-128233146D01*
X128518799Y-128295033D01*
X128380233Y-128352356D01*
X128256893Y-128403356D01*
X128153036Y-128446273D01*
X128072920Y-128479347D01*
X128020805Y-128500819D01*
X128001346Y-128508775D01*
X127981577Y-128527571D01*
X127981635Y-128563926D01*
X128002559Y-128622521D01*
X128045387Y-128708032D01*
X128045751Y-128708708D01*
X128078988Y-128773093D01*
X128103198Y-128825139D01*
X128113596Y-128854488D01*
X128113692Y-128855783D01*
X128103145Y-128877876D01*
X128073816Y-128926652D01*
X128029173Y-128996669D01*
X127972686Y-129082486D01*
X127908538Y-129177612D01*
X127843589Y-129274460D01*
X127787104Y-129361747D01*
X127742579Y-129433819D01*
X127713510Y-129485023D01*
X127703384Y-129509474D01*
X127716693Y-129531990D01*
X127753888Y-129577258D01*
X127810872Y-129640756D01*
X127883551Y-129717961D01*
X127967829Y-129804349D01*
X127995984Y-129832601D01*
X128288584Y-130124713D01*
X128614896Y-129902369D01*
X128715103Y-129834798D01*
X128805037Y-129775493D01*
X128879490Y-129727783D01*
X128933249Y-129694993D01*
X128961106Y-129680452D01*
X128963088Y-129680026D01*
X128989345Y-129687692D01*
X129042163Y-129708311D01*
X129112690Y-129738315D01*
X129159907Y-129759375D01*
X129250306Y-129798752D01*
X129341634Y-129835835D01*
X129418800Y-129864585D01*
X129442308Y-129872395D01*
X129505084Y-129894583D01*
X129553589Y-129916273D01*
X129571921Y-129928187D01*
X129583141Y-129954477D01*
X129599046Y-130011858D01*
X129617833Y-130092882D01*
X129637701Y-130190105D01*
X129645868Y-130233615D01*
X129666171Y-130344104D01*
X129685830Y-130450084D01*
X129702912Y-130541199D01*
X129715482Y-130607092D01*
X129717909Y-130619500D01*
X129738155Y-130722077D01*
X130165299Y-130722077D01*
X130305754Y-130721847D01*
X130412021Y-130720901D01*
X130488987Y-130718859D01*
X130541540Y-130715338D01*
X130574567Y-130709957D01*
X130592955Y-130702334D01*
X130601592Y-130692088D01*
X130603193Y-130687885D01*
X130608873Y-130662530D01*
X130620205Y-130606516D01*
X130635821Y-130527036D01*
X130654353Y-130431288D01*
X130674431Y-130326467D01*
X130694688Y-130219768D01*
X130713754Y-130118387D01*
X130730261Y-130029521D01*
X130742841Y-129960363D01*
X130750125Y-129918111D01*
X130751384Y-129908710D01*
X130768237Y-129900193D01*
X130813130Y-129881340D01*
X130877570Y-129855676D01*
X130902808Y-129845877D01*
X131000314Y-129806352D01*
X131108041Y-129759808D01*
X131198828Y-129718123D01*
X131268247Y-129687450D01*
X131325290Y-129667044D01*
X131360223Y-129660232D01*
X131364905Y-129661318D01*
X131387009Y-129675715D01*
X131436169Y-129708588D01*
X131507152Y-129756410D01*
X131594722Y-129815652D01*
X131693643Y-129882785D01*
X131713170Y-129896059D01*
X131828860Y-129973954D01*
X131916956Y-130031213D01*
X131981514Y-130070119D01*
X132026589Y-130092956D01*
X132056237Y-130102006D01*
X132074515Y-130099552D01*
X132074631Y-130099489D01*
X132098639Y-130080173D01*
X132145053Y-130037449D01*
X132209063Y-129975949D01*
X132285855Y-129900302D01*
X132370618Y-129815139D01*
X132380078Y-129805535D01*
X132484011Y-129698210D01*
X132560325Y-129615385D01*
X132610429Y-129555395D01*
X132635730Y-129516577D01*
X132638996Y-129499480D01*
X132624750Y-129474527D01*
X132591844Y-129422745D01*
X132543792Y-129349480D01*
X132484110Y-129260080D01*
X132416312Y-129159889D01*
X132400361Y-129136499D01*
X132173580Y-128804407D01*
X132241647Y-128654435D01*
X132281315Y-128563230D01*
X132321209Y-128465331D01*
X132353017Y-128381169D01*
X132354326Y-128377462D01*
X132378424Y-128311631D01*
X132398800Y-128260884D01*
X132411064Y-128236158D01*
X132411099Y-128236116D01*
X132433266Y-128228271D01*
X132487783Y-128214934D01*
X132568520Y-128197430D01*
X132669350Y-128177083D01*
X132784144Y-128155218D01*
X132793822Y-128153429D01*
X132912096Y-128131496D01*
X133019458Y-128111360D01*
X133109083Y-128094320D01*
X133174149Y-128081672D01*
X133207832Y-128074716D01*
X133208346Y-128074594D01*
X133222675Y-128070361D01*
X133233493Y-128062129D01*
X133241294Y-128044967D01*
X133246571Y-128013942D01*
X133249818Y-127964122D01*
X133251528Y-127890576D01*
X133252193Y-127788371D01*
X133252307Y-127652575D01*
X133252308Y-127635000D01*
X133252224Y-127495122D01*
%TD*%
M02*
